<?xml version="1.0" encoding="UTF-8"?>
<svg xmlns="http://www.w3.org/2000/svg" version="1.1" viewBox="0 0 683.7 246.9">
  <defs>
    <style>
      .cls-1 {
        fill: #0500e2;
      }
    </style>
  </defs>
  <!-- Generator: Adobe Illustrator 28.7.5, SVG Export Plug-In . SVG Version: 1.2.0 Build 176)  -->
  <g>
    <g id="Layer_1">
      <path class="cls-1" d="M211.6,37.1c-10.4-10.6-22.6-19.3-36.2-25.6-.5-.3-1.1-.5-1.7-.8-2.7-1.2-5.4-2.3-8.1-3.3-7.7-2.8-15.8-4.9-24.2-6.1-5.9-.9-11.8-1.3-17.9-1.3C55.4,0,0,55.4,0,123.5s33.6,98.4,80.7,115.8c5.5,2,11.2,3.7,17.1,5,8.3,1.8,16.9,2.7,25.7,2.7,46.9,0,87.8-26.3,108.7-64.9,9.4-17.4,14.8-37.4,14.8-58.6,0-33.6-13.5-64.1-35.3-86.4h0ZM36.8,189.5c-14.6-19.2-22.3-42.2-22.3-66.4,0-41.3,22.9-77.4,56.7-96.1.9-.5,1.8.7,1,1.4-3.1,2.9-6,6-8.9,9.3-19.6,22.9-30.9,54-30.9,85.4,0,40.8,27.3,84.8,71.3,84.8s71.3-38,71.3-84.8-7.4-43.1-19.9-58.7c-.4-.5,0-1.3.8-1.1,21.3,6.3,37.2,30.7,37.2,59.9s-9.3,51.3-25.6,70.2c-16.9,19.6-39.5,30.4-63.7,30.4-25.5,0-49.9-12.5-66.9-34.2h0ZM212.1,56.8c14.6,19.2,22.3,42.1,22.2,66.3,0,41.3-22.9,77.4-56.7,96.1-.9.5-1.8-.7-1-1.4,3.1-2.9,6-6,8.9-9.3,19.6-22.9,30.9-54,31-85.4,0-40.8-27.3-84.8-71.4-84.8s-71.3,38-71.3,84.8,7.4,43.1,19.9,58.7c.4.5,0,1.3-.8,1.1-21.3-6.3-37.2-30.7-37.2-59.8s9.3-51.3,25.6-70.2c16.9-19.6,39.5-30.4,63.7-30.4s49.9,12.5,67,34.3h0ZM162.2,123.1c0,29.1-14.1,54.3-34.4,65.5-2.5,1.4-5.6,1.2-7.9-.5l-4.3-3.2c-17.8-13-28.8-36.7-28.8-61.9s14.1-54.3,34.4-65.5c2.5-1.4,5.6-1.2,7.9.5l4.3,3.2c17.8,13,28.8,36.7,28.8,61.9h0Z"/>
      <g>
        <path class="cls-1" d="M349.4,86.1c-5.5-3.5-12-5.3-19.3-5.3s-13.8,1.8-19.4,5.3c-5.5,3.5-9.8,8.6-12.9,15.1s-4.6,14.4-4.6,23.5,1.5,16.8,4.6,23.3c3,6.6,7.3,11.6,12.9,15.2,5.5,3.6,12,5.3,19.4,5.3s13.8-1.8,19.3-5.3c5.5-3.6,9.8-8.6,12.9-15.2s4.6-14.3,4.6-23.3-1.5-17-4.6-23.5c-3.1-6.5-7.4-11.5-12.9-15.1ZM346.2,140.5c-1.6,4.4-3.8,7.7-6.6,10-2.8,2.3-6,3.5-9.5,3.5s-6.8-1.2-9.6-3.5c-2.8-2.3-5-5.7-6.6-10s-2.4-9.6-2.4-15.8.8-11.4,2.4-15.8c1.6-4.4,3.8-7.7,6.6-10,2.8-2.3,6-3.5,9.6-3.5s6.8,1.2,9.5,3.5c2.8,2.3,5,5.6,6.6,10,1.6,4.3,2.4,9.6,2.4,15.9s-.8,11.4-2.4,15.8h0Z"/>
        <path class="cls-1" d="M398.4,85.2l-20.8,76.9c-.7,2.5,1.2,5,3.8,5h9.3c1.8,0,3.4-1.2,3.8-2.9l3.2-12.1c.5-1.7,2-2.9,3.8-2.9h21.2c1.8,0,3.4,1.2,3.8,3l3.1,12.1c.5,1.7,2,3,3.8,3h9.8c2.6,0,4.5-2.5,3.8-5l-20.9-76.9c-.5-1.7-2-2.9-3.8-2.9h-20.1c-1.8,0-3.3,1.2-3.8,2.9h0ZM407.4,134.5c-2.6,0-4.5-2.5-3.8-5l3.5-13.3,1.3-5.3c1-4,6.7-4,7.7,0l1.3,5.3,3.4,13.3c.7,2.5-1.2,4.9-3.8,4.9h-9.5,0Z"/>
        <path class="cls-1" d="M542.2,86.2v6.7c0,2.2,1.8,4,4,4h6.3c2.2,0,4,1.8,4,4v47.8c0,2.2-1.8,4-4,4h-6.3c-2.2,0-4,1.8-4,4v6.7c0,2.2,1.8,4,4,4h38.2c2.2,0,4-1.8,4-4v-6.7c0-2.2-1.8-4-4-4h-6.3c-2.2,0-4-1.8-4-4v-47.8c0-2.2,1.8-4,4-4h6.3c2.2,0,4-1.8,4-4v-6.7c0-2.2-1.8-4-4-4h-38.2c-2.2,0-4,1.8-4,4Z"/>
        <path class="cls-1" d="M668.2,131.3c-1.7-3.1-3.8-5.6-6.6-7.5-2.7-1.9-5.7-3.4-8.9-4.5-3.2-1.1-6.4-2-9.7-2.8-3.2-.8-6.2-1.6-8.9-2.4s-4.9-2-6.5-3.3-2.4-3.2-2.4-5.5,1.2-5.6,3.6-7.3c2.4-1.7,5.4-2.5,9.1-2.5s4.9.4,7,1.5c2.8,1.5,4.7,3.7,5.8,5.3.7,1.1,2,1.7,3.3,1.7h10.7c2.8,0,4.7-2.8,3.7-5.3-.7-1.8-1.6-3.5-2.8-5.1-3-4.1-6.9-7.3-11.7-9.5-4.8-2.2-10.1-3.3-15.9-3.3s-11.7,1.1-16.3,3.3c-4.6,2.2-8.2,5.2-10.8,8.9-2.5,3.8-3.8,8-3.8,12.7s.8,8.3,2.4,11.2c1.6,3,3.8,5.3,6.5,7.1,2.7,1.8,5.7,3.2,8.9,4.4,3.2,1.1,6.5,2.1,9.7,2.9,3.2.8,6.2,1.7,8.9,2.6s4.9,2.1,6.5,3.6,2.4,3.4,2.4,5.8-1.2,5.9-3.7,7.8c-2.5,1.9-5.8,2.8-9.9,2.8s-9-1.5-11.7-4.5c-1.1-1.2-2-2.8-2.6-4.5s-2.2-2.8-4-2.8h-9.6c-2.6,0-4.5,2.5-3.8,5,.6,2.3,1.5,4.5,2.6,6.4,2.7,4.8,6.5,8.5,11.4,11.1s10.8,3.9,17.6,3.9,11.7-1.1,16.5-3.2c4.8-2.2,8.6-5.1,11.4-8.9s4.1-8.2,4.1-13.2-.8-8.8-2.5-12h0Z"/>
        <path class="cls-1" d="M522.8,131.3c-1.7-3.1-3.8-5.6-6.6-7.5-2.7-1.9-5.7-3.4-8.9-4.5-3.2-1.1-6.4-2-9.7-2.8-3.2-.8-6.2-1.6-8.9-2.4s-4.9-2-6.5-3.3-2.4-3.2-2.4-5.5,1.2-5.6,3.6-7.3c2.4-1.7,5.4-2.5,9.1-2.5s4.9.4,7,1.5c2.8,1.5,4.7,3.7,5.8,5.3.7,1.1,2,1.7,3.3,1.7h10.7c2.8,0,4.7-2.8,3.7-5.3-.7-1.8-1.6-3.5-2.8-5.1-3-4.1-6.9-7.3-11.7-9.5-4.8-2.2-10.1-3.3-15.9-3.3s-11.7,1.1-16.3,3.3c-4.6,2.2-8.2,5.2-10.8,8.9-2.5,3.8-3.8,8-3.8,12.7s.8,8.3,2.4,11.2c1.6,3,3.8,5.3,6.5,7.1,2.7,1.8,5.7,3.2,8.9,4.4,3.2,1.1,6.5,2.1,9.7,2.9,3.2.8,6.2,1.7,8.9,2.6s4.9,2.1,6.5,3.6,2.4,3.4,2.4,5.8-1.2,5.9-3.7,7.8c-2.5,1.9-5.8,2.8-9.9,2.8s-9-1.5-11.7-4.5c-1.1-1.2-2-2.8-2.6-4.5-.6-1.7-2.2-2.8-4-2.8h-9.6c-2.6,0-4.5,2.5-3.8,5,.6,2.3,1.5,4.5,2.6,6.4,2.7,4.8,6.5,8.5,11.4,11.1s10.8,3.9,17.6,3.9,11.7-1.1,16.5-3.2c4.8-2.2,8.6-5.1,11.4-8.9s4.1-8.2,4.1-13.2-.8-8.8-2.5-12h0Z"/>
      </g>
    </g>
  </g>
</svg>