<svg width="460" height="713" viewBox="0 0 460 713" fill="none" xmlns="http://www.w3.org/2000/svg">
    <path style="mix-blend-mode:color-burn"
          d="M343.1 305.914C321.866 292.145 297.75 283.433 272.635 280.462C247.52 277.49 222.042 280.309 198.195 288.732C104.697 323.314 68.7944 435.484 103.575 529.786C127.819 595.516 188.723 628.933 237.559 610.87C242.009 609.188 246.363 607.142 250.482 604.747C228.424 597.487 208.335 585.257 191.782 568.959C175.23 552.661 162.656 532.713 155.093 510.735C127.461 435.81 156.617 359.472 215.943 337.53C280.721 313.571 349.39 361.166 374.609 429.544C393.088 479.847 393.449 535.04 375.68 585.579C361.165 626.573 332.528 661 294.923 682.706C294.923 682.706 298.239 681.479 302.51 679.899C339.05 666.31 371.135 642.799 395.092 611.99C419.05 581.18 433.998 544.307 438.197 505.496C442.426 466.674 435.74 427.427 418.949 392.209C402.131 356.925 375.865 327.062 343.106 305.911L343.1 305.914ZM357.061 435.995C332.817 370.266 271.18 337.121 222.662 355.067C218.135 356.743 213.805 358.851 209.68 361.321C231.747 368.504 251.836 380.737 268.388 397.035C284.941 413.333 297.47 433.259 305.066 455.229C332.698 530.154 303.685 606.584 244.359 628.526C179.582 652.485 110.912 604.891 85.645 536.384C67.1213 486.06 66.8588 430.834 84.9292 380.328C99.3998 339.313 128.046 304.812 165.639 283.072C165.639 283.072 162.322 284.3 158.052 285.88C121.389 299.331 89.1851 322.815 65.1082 353.595C41.0432 384.408 26.0298 421.304 21.762 460.214C17.524 499.111 24.1897 538.403 41.0193 573.716C57.8788 609.018 84.2223 638.893 117.109 659.993C138.356 673.794 162.442 682.515 187.598 685.511C212.725 688.515 238.203 685.696 262.092 677.295C355.591 642.713 391.871 530.291 356.891 435.446L357.091 435.989L357.058 436.001L357.061 435.995Z"
          fill="url(#paint0_linear_859_148)"></path>
    <g style="mix-blend-mode:overlay">
        <path d="M457.401 482.701C457.401 356.929 355.586 254.971 229.991 254.971C104.397 254.971 2.58215 356.929 2.58215 482.701C2.58215 608.473 104.397 710.431 229.991 710.431C355.586 710.431 457.401 608.473 457.401 482.701Z"
              fill="url(#paint0_linear_859_148)"></path>
    </g>
    <g style="mix-blend-mode:hard-light">
        <path d="M343.1 305.914C321.866 292.145 297.75 283.433 272.635 280.462C247.52 277.49 222.042 280.309 198.195 288.732C104.697 323.314 68.7944 435.484 103.575 529.786C127.819 595.516 188.723 628.933 237.559 610.87C242.009 609.188 246.363 607.142 250.482 604.747C228.424 597.487 208.335 585.257 191.782 568.959C175.23 552.661 162.656 532.713 155.093 510.735C127.461 435.81 156.617 359.472 215.943 337.53C280.721 313.571 349.39 361.166 374.609 429.544C393.088 479.847 393.449 535.04 375.68 585.579C361.165 626.573 332.528 661 294.923 682.706C294.923 682.706 298.239 681.479 302.51 679.899C339.05 666.31 371.135 642.799 395.092 611.99C419.05 581.18 433.998 544.307 438.197 505.496C442.426 466.674 435.74 427.427 418.949 392.209C402.131 356.925 375.865 327.062 343.106 305.911L343.1 305.914ZM357.061 435.995C332.817 370.266 271.18 337.121 222.662 355.067C218.135 356.743 213.805 358.851 209.68 361.321C231.747 368.504 251.836 380.737 268.388 397.035C284.941 413.333 297.47 433.259 305.066 455.229C332.698 530.154 303.685 606.584 244.359 628.526C179.582 652.485 110.912 604.891 85.6449 536.384C67.1213 486.06 66.8588 430.834 84.9292 380.328C99.3998 339.313 128.046 304.812 165.639 283.072C165.639 283.072 162.322 284.3 158.052 285.88C121.389 299.331 89.185 322.815 65.1082 353.595C41.0432 384.408 26.0298 421.304 21.762 460.213C17.524 499.111 24.1897 538.403 41.0193 573.716C57.8788 609.018 84.2223 638.893 117.109 659.993C138.356 673.794 162.442 682.515 187.598 685.511C212.725 688.515 238.203 685.696 262.092 677.295C355.591 642.713 391.871 530.291 356.891 435.446L357.091 435.989L357.058 436.001L357.061 435.995Z"
              stroke="#2B00FF" stroke-width="4" stroke-miterlimit="10"></path>
    </g>
    <g>
        <g style="mix-blend-mode:hard-light">
            <path d="M300.694 103.261L302.274 2H308.594L310.175 103.261H300.694Z" fill="url(#paint1_linear_859_148)"
                  style="mix-blend-mode:hard-light"></path>
            <path d="M300.694 103.261L302.274 2H308.594L310.175 103.261H300.694Z" stroke="#464D57" stroke-width="4"
                  stroke-miterlimit="10"></path>
        </g>

        <g style="mix-blend-mode:hard-light">
            <path d="M299.116 103.261H311.755C318.737 103.261 324.395 108.926 324.395 115.918V204.522H286.477V115.918C286.477 108.926 292.134 103.261 299.116 103.261Z"
                  fill="url(#paint2_linear_859_148)" style="mix-blend-mode:hard-light"></path>
            <path d="M299.116 103.261H311.755C318.737 103.261 324.395 108.926 324.395 115.918V204.522H286.477V115.918C286.477 108.926 292.134 103.261 299.116 103.261Z"
                  stroke="#464D57" stroke-width="4" stroke-miterlimit="10"></path>
        </g>
        <path d="M324.395 195.084V115.918H305.436V191.864C312.086 191.864 318.373 193.175 324.395 195.084Z"
              fill="url(#paint3_linear_859_148)" stroke="#002087" stroke-width="4" stroke-miterlimit="10"></path>
        <path d="M305.436 318.442C340.34 318.442 368.636 290.107 368.636 255.153C368.636 220.2 340.34 191.864 305.436 191.864C270.531 191.864 242.236 220.2 242.236 255.153C242.236 290.107 270.531 318.442 305.436 318.442Z"
              fill="url(#paint4_linear_859_148)" stroke="#002087" stroke-width="4" stroke-miterlimit="10"></path>
        <g style="mix-blend-mode:overlay">
            <path d="M246.432 277.305C247.252 279.494 248.239 281.567 249.286 283.634H361.582C362.629 281.567 363.616 279.494 364.436 277.305H246.432Z"
                  fill="white"></path>
            <path d="M246.432 277.305C247.252 279.494 248.239 281.567 249.286 283.634H361.582C362.629 281.567 363.616 279.494 364.436 277.305H246.432Z"
                  stroke="#212C57" stroke-width="4" stroke-miterlimit="10"></path>
        </g>
        <g style="mix-blend-mode:overlay">
            <path d="M305.436 264.648H243.193C243.518 266.801 243.936 268.901 244.472 270.976H366.402C366.939 268.901 367.356 266.801 367.681 264.648H305.439H305.436Z"
                  fill="white"></path>
            <path d="M305.436 264.648H243.193C243.518 266.801 243.936 268.901 244.472 270.976H366.402C366.939 268.901 367.356 266.801 367.681 264.648H305.439H305.436Z"
                  stroke="#212C57" stroke-width="4" stroke-miterlimit="10"></path>
        </g>
        <g style="mix-blend-mode:hard-light">
            <path d="M242.236 255.153C242.236 266.093 245.26 276.23 250.142 285.211C259.11 290.097 269.229 293.128 280.157 293.128C315.06 293.128 343.357 264.791 343.357 229.839C343.357 218.899 340.333 208.762 335.45 199.782C326.482 194.896 316.363 191.864 305.436 191.864C270.533 191.864 242.236 220.201 242.236 255.153Z"
                  fill="url(#paint5_linear_859_148)" style="mix-blend-mode:hard-light"></path>
            <path d="M242.236 255.153C242.236 266.093 245.26 276.23 250.142 285.211C259.11 290.097 269.229 293.128 280.157 293.128C315.06 293.128 343.357 264.791 343.357 229.839C343.357 218.899 340.333 208.762 335.45 199.782C326.482 194.896 316.363 191.864 305.436 191.864C270.533 191.864 242.236 220.201 242.236 255.153Z"
                  stroke="#464D57" stroke-width="4" stroke-miterlimit="10"></path>
        </g>
        <path d="M246.521 277.305C246.62 277.565 246.685 277.84 246.79 278.099C246.921 278.428 247.088 278.739 247.225 279.064C247.884 280.623 248.627 282.134 249.393 283.634H313.07C316.098 281.773 318.895 279.634 321.558 277.305H246.521Z"
              fill="url(#paint6_linear_859_148)" stroke="#002087" stroke-width="4" stroke-miterlimit="10"></path>
        <path d="M243.19 264.648C243.515 266.801 243.933 268.901 244.469 270.976H327.821C329.587 268.928 331.379 266.912 332.874 264.648H243.193H243.19Z"
              fill="url(#paint7_linear_859_148)" stroke="#002087" stroke-width="4" stroke-miterlimit="10"></path>
        <path d="M286.477 115.918H324.395" stroke="#212C57" stroke-width="4" stroke-miterlimit="10"></path>
        <path d="M286.477 128.578H324.395" stroke="#212C57" stroke-width="4" stroke-miterlimit="10"></path>
        <path d="M286.477 141.235H324.395" stroke="#212C57" stroke-width="4" stroke-miterlimit="10"></path>
        <path d="M286.477 153.893H324.395" stroke="#212C57" stroke-width="4" stroke-miterlimit="10"></path>
        <path d="M286.477 166.55H324.395" stroke="#212C57" stroke-width="4" stroke-miterlimit="10"></path>
        <path d="M286.477 179.207H324.395" stroke="#212C57" stroke-width="4" stroke-miterlimit="10"></path>
    </g>

    <g style="mix-blend-mode:hard-light">
        <path d="M49.6394 273.314C56.6199 273.314 62.2788 267.648 62.2788 260.657C62.2788 253.667 56.6199 248 49.6394 248C42.6588 248 37 253.667 37 260.657C37 267.648 42.6588 273.314 49.6394 273.314Z"
              fill="url(#paint8_linear_859_148)" style="mix-blend-mode:hard-light"></path>
        <path d="M49.6394 273.314C56.6199 273.314 62.2788 267.648 62.2788 260.657C62.2788 253.667 56.6199 248 49.6394 248C42.6588 248 37 253.667 37 260.657C37 267.648 42.6588 273.314 49.6394 273.314Z"
              stroke="#2B00FF" stroke-width="4" stroke-miterlimit="10"></path>
    </g>
    <g style="mix-blend-mode:hard-light">
        <path d="M159 190C159 217.633 136.82 240 109.5 240C82.1801 240 60 217.633 60 190C60 162.368 82.1801 140 109.5 140C136.82 140 159 162.368 159 190Z"
              fill="url(#paint9_linear_859_148)" style="mix-blend-mode:hard-light"></path>
        <path d="M159 190C159 217.633 136.82 240 109.5 240C82.1801 240 60 217.633 60 190C60 162.368 82.1801 140 109.5 140C136.82 140 159 162.368 159 190Z"
              stroke="#2B00FF" stroke-width="4"></path>
    </g>
    <path style="mix-blend-mode:color-burn"
          d="M106.281 166.675C93.3205 169.383 85.3786 179.248 85.4698 190.803C85.4822 192.276 84.8104 193.162 83.6616 193.191C82.4713 193.22 81.7041 192.417 81.7124 190.952C81.7539 180.188 86.3241 171.788 95.6637 166.51C106.476 160.395 117.159 161.385 127.025 168.886C131.882 172.579 134.868 177.671 136.601 183.541C139.019 191.722 140.01 200.039 139.525 208.542C139.471 209.502 139.396 210.459 139.28 211.415C139.131 212.678 138.314 213.398 137.219 213.294C136.116 213.187 135.452 212.371 135.56 211.071C135.925 206.65 135.958 202.233 135.544 197.811C135.096 193.009 134.121 188.331 132.657 183.732C131.384 179.741 129.348 176.247 126.337 173.365C120.215 167.512 112.937 165.458 106.281 166.679V166.675ZM118.374 200.167C119.054 208.165 117.885 215.907 115.06 223.412C114.538 224.803 114.924 225.867 115.989 226.252C117.088 226.654 118.059 226.103 118.594 224.749C119.751 221.827 120.622 218.821 121.244 215.741C122.712 208.484 122.753 201.198 121.364 193.945C120.771 190.848 120.186 187.689 118.49 184.916C114.567 178.495 104.941 178.383 100.823 184.655C98.7078 187.876 98.6829 191.212 99.7778 194.731C101.739 201.053 101.677 207.403 99.9934 213.771C99.2386 216.619 98.0111 219.264 96.6342 221.856C95.8711 223.292 96.2029 224.571 97.4263 224.998C98.4258 225.346 99.3672 224.865 100.047 223.603C101.536 220.837 102.801 217.977 103.61 214.93C105.397 208.215 105.547 201.5 103.763 194.748C103.386 193.315 102.743 191.953 102.838 190.372C103.033 187.097 105.074 184.659 108.475 183.939C111.249 183.347 114.397 184.911 115.637 187.611C116.62 189.747 117.059 192.057 117.578 194.338C118.051 196.255 118.212 198.213 118.378 200.167H118.374ZM110.345 175.154C114.865 175.398 118.478 177.447 121.443 180.772C122.289 181.72 123.363 181.852 124.213 181.19C125.055 180.532 125.146 179.41 124.367 178.412C122.99 176.652 121.364 175.15 119.419 174.036C114.646 171.3 109.586 170.612 104.286 172.128C98.6083 173.75 94.5191 177.315 92.0432 182.647C89.9239 187.213 89.9073 191.92 91.3381 196.702C91.9229 198.66 92.3335 200.672 92.4745 202.725C92.8519 208.231 91.4833 213.315 88.8125 218.101C88.1074 219.363 88.3189 220.394 89.3018 220.924C90.2889 221.454 91.4418 221.011 92.1344 219.852C95.0997 214.868 96.3853 209.461 96.319 203.69C96.2817 200.349 95.4978 197.157 94.7886 194.905C92.1676 183.914 100.383 174.62 110.345 175.154ZM112.701 157.965C115.973 158.284 119.1 159.145 122.165 160.304C123.301 160.731 124.329 160.246 124.657 159.302C125.047 158.189 124.524 157.195 123.351 156.731C114.936 153.424 106.426 153.047 97.8452 156.003C89.0281 159.037 82.2598 164.581 77.6688 172.711C76.9721 173.941 77.1712 174.992 78.1333 175.564C79.0665 176.118 80.2816 175.675 80.9783 174.533C82.3055 172.355 83.7611 170.289 85.4988 168.402C90.3345 163.148 96.2858 159.931 103.22 158.391C106.359 157.853 109.515 157.659 112.705 157.973L112.701 157.965ZM129.319 189.788C129.14 189.101 128.97 188.401 128.676 187.764C128.249 186.837 127.473 186.543 126.482 186.832C125.528 187.114 125.13 187.797 125.196 188.728C125.242 189.349 125.412 189.962 125.553 190.571C127.324 198.056 127.622 205.603 126.527 213.216C126.2 215.493 125.694 217.732 125.184 219.972C124.902 221.21 125.474 222.237 126.461 222.46C127.544 222.708 128.497 222.046 128.867 220.796C128.937 220.556 128.999 220.312 129.057 220.067C131.355 210.678 131.571 201.235 129.721 191.751C129.588 191.096 129.484 190.434 129.314 189.788H129.319ZM142.237 186.112C142.399 187.499 143.125 188.252 144.265 188.186C145.389 188.12 146.032 187.259 145.999 185.876C145.957 184.146 145.509 182.502 145.003 180.859C142.714 173.432 138.488 167.284 132.628 162.229C131.434 161.198 130.272 161.211 129.522 162.105C128.696 163.086 128.983 164.121 130.227 165.193C136.195 170.331 140.234 176.661 142.001 184.377C142.08 184.957 142.167 185.532 142.237 186.112ZM76.0721 205.019C76.603 206.252 77.7933 206.646 78.8342 206.021C79.7093 205.495 79.9374 204.497 79.4024 203.247C77.7228 199.318 76.9348 195.199 76.7855 190.947C76.6984 188.435 77.0799 185.959 77.5361 183.496C77.7642 182.27 77.1836 181.343 76.1012 181.107C75.0561 180.883 74.2266 181.438 73.8741 182.618C73.7663 182.978 73.6999 183.351 73.6294 183.719C72.717 188.451 72.8332 193.175 73.7414 197.894C74.21 200.37 75.081 202.717 76.068 205.023L76.0721 205.019ZM109.909 205.23C109.909 206.998 110.498 207.851 111.714 207.838C113.074 207.826 113.671 207.08 113.679 205.242C113.688 203.831 113.654 202.411 113.559 201.003C113.306 197.331 112.655 193.725 111.461 190.235C111.025 188.96 110.063 188.464 108.935 188.853C107.935 189.196 107.537 190.235 107.877 191.444C108.292 192.926 108.653 194.429 109.039 195.919C109.727 198.991 109.905 202.104 109.909 205.234V205.23ZM87.1702 200.279C86.8799 199.364 86.2287 198.904 85.2707 199.008C84.2795 199.115 83.4625 199.716 83.6035 200.697C84.2049 204.944 83.7238 208.985 81.8658 212.885C81.4262 213.804 81.8949 214.739 82.8819 215.149C83.8524 215.555 84.6818 215.166 85.2873 214.346C85.5071 214.048 85.6855 213.704 85.8265 213.361C87.3651 209.585 88.066 205.694 87.419 201.459C87.3609 201.169 87.307 200.709 87.1702 200.275V200.279ZM110.573 213.708C109.549 213.634 108.885 214.189 108.616 215.124C107.977 217.331 107.351 219.537 106.384 221.632C105.949 222.58 105.468 223.516 105.144 224.501C104.85 225.399 105.016 226.318 105.953 226.766C106.928 227.233 107.836 227.002 108.483 226.066C108.674 225.793 108.856 225.507 108.997 225.205C110.287 222.435 111.382 219.591 112.12 216.623C112.24 216.134 112.356 215.646 112.249 215.137C112.054 214.242 111.465 213.766 110.577 213.704L110.573 213.708Z"
          fill="url(#paint10_linear_859_148)"></path>
    <mask id="mask0_859_148" style="mask-type:luminance" maskUnits="userSpaceOnUse" x="2" y="255" width="456"
          height="456">
        <path d="M229.596 710.831C355.251 710.831 457.114 608.824 457.114 482.992C457.114 357.16 355.251 255.153 229.596 255.153C103.941 255.153 2.07812 357.16 2.07812 482.992C2.07812 608.824 103.941 710.831 229.596 710.831Z"
              fill="white"></path>
    </mask>


    <g mask="url(#mask0_859_148)">
        <g>
            <path d="M179.036 445.018V394.389" stroke="#002087" stroke-width="4" stroke-miterlimit="10"></path>
            <path d="M179.036 394.389C184.272 394.389 188.517 390.138 188.517 384.894C188.517 379.651 184.272 375.4 179.036 375.4C173.799 375.4 169.555 379.651 169.555 384.894C169.555 390.138 173.799 394.389 179.036 394.389Z"
                  fill="url(#paint11_linear_859_148)" stroke="#002087" stroke-width="4" stroke-miterlimit="10"></path>
            <path d="M185.334 362.743L191.803 356.414L195.889 343.757L185.135 349.142C184.097 349.661 183.25 351.035 183.25 352.194V356.414C183.25 358.744 181.365 360.634 179.036 360.634C176.706 360.634 174.822 358.747 174.822 356.414V352.194C174.822 351.032 173.975 349.661 172.94 349.142L162.182 343.757L166.25 356.414L172.695 362.743C172.695 366.237 175.522 369.071 179.015 369.071C179.021 369.071 179.024 369.071 179.024 369.071H179.033C182.513 369.059 185.334 366.234 185.334 362.746V362.743Z"
                  fill="url(#paint12_linear_859_148)" stroke="#002087" stroke-width="4" stroke-miterlimit="10"></path>
            <path d="M141.117 407.046L128.478 419.703L134.798 445.018H141.117V407.046Z" fill="#F5A4A1" stroke="#212C57"
                  stroke-width="4" stroke-miterlimit="10"></path>
            <path d="M160.073 400.717L147.434 413.375L153.754 445.018H160.073V400.717Z" fill="#F5A4A1" stroke="#212C57"
                  stroke-width="4" stroke-miterlimit="10"></path>
            <path d="M229.596 419.703L216.957 407.046V445.018H223.276L229.596 419.703Z" fill="#F5A4A1" stroke="#212C57"
                  stroke-width="4" stroke-miterlimit="10"></path>
            <path d="M210.634 413.375L197.995 400.717V445.018H204.314L210.634 413.375Z" fill="#F5A4A1" stroke="#212C57"
                  stroke-width="4" stroke-miterlimit="10"></path>
            <path d="M187.464 407.046H170.61L166.393 445.018H191.675L187.464 407.046Z" fill="#F5A4A1" stroke="#212C57"
                  stroke-width="4" stroke-miterlimit="10"></path>
            <path d="M179.036 375.4V350.085" stroke="#002087" stroke-width="4" stroke-miterlimit="10"></path>
            <path d="M2.07811 584.253H-23.2007V761.46H2.07811V584.253Z" fill="#F5A4A1" stroke="#212C57" stroke-width="4"
                  stroke-miterlimit="10"></path>
            <path d="M77.9175 584.253H52.6387V761.46H77.9175V584.253Z" fill="#F5A4A1" stroke="#212C57" stroke-width="4"
                  stroke-miterlimit="10"></path>
            <path d="M153.757 584.253H128.478V761.46H153.757V584.253Z" fill="#F5A4A1" stroke="#212C57" stroke-width="4"
                  stroke-miterlimit="10"></path>
            <path d="M229.596 584.253H204.317V761.46H229.596V584.253Z" fill="#F5A4A1" stroke="#212C57" stroke-width="4"
                  stroke-miterlimit="10"></path>
            <path d="M381.272 584.253H355.993V761.46H381.272V584.253Z" fill="#F5A4A1" stroke="#212C57" stroke-width="4"
                  stroke-miterlimit="10"></path>
            <path d="M305.436 584.253H280.157V761.46H305.436V584.253Z" fill="#F5A4A1" stroke="#212C57" stroke-width="4"
                  stroke-miterlimit="10"></path>
            <path d="M381.275 533.621H-23.2007V584.253H381.275V533.621Z" fill="#F5A4A1" stroke="#212C57"
                  stroke-width="4" stroke-miterlimit="10"></path>
            <path d="M368.633 482.992H-10.5613V508.307H368.633V482.992Z" fill="#F5A4A1" stroke="#212C57"
                  stroke-width="4" stroke-miterlimit="10"></path>
            <path d="M419.193 508.307H-61.1189L-35.8401 533.621H393.914L419.193 508.307Z" fill="#F5A4A1"
                  stroke="#212C57" stroke-width="4" stroke-miterlimit="10"></path>
            <path d="M393.914 470.332H-35.8401L-23.2007 482.992H381.275L393.914 470.332Z" fill="#F5A4A1"
                  stroke="#212C57" stroke-width="4" stroke-miterlimit="10"></path>
            <path d="M381.275 584.253H355.993L381.275 609.567V584.253Z" fill="url(#paint13_linear_859_148)"
                  stroke="#002087" stroke-width="4" stroke-miterlimit="10"></path>
            <path d="M305.436 584.253H280.157L305.436 609.567V584.253Z" fill="url(#paint14_linear_859_148)"
                  stroke="#002087" stroke-width="4" stroke-miterlimit="10"></path>
            <path d="M229.596 584.253H204.317L229.596 609.567V584.253Z" fill="url(#paint15_linear_859_148)"
                  stroke="#002087" stroke-width="4" stroke-miterlimit="10"></path>
            <path d="M153.757 584.253H128.478L153.757 609.567V584.253Z" fill="url(#paint16_linear_859_148)"
                  stroke="#002087" stroke-width="4" stroke-miterlimit="10"></path>
            <path d="M77.9175 584.253H52.6387L77.9175 609.567V584.253Z" fill="url(#paint17_linear_859_148)"
                  stroke="#002087" stroke-width="4" stroke-miterlimit="10"></path>
            <path d="M2.07811 584.253H-23.2007L2.07811 609.567V584.253Z" fill="url(#paint18_linear_859_148)"
                  stroke="#002087" stroke-width="4" stroke-miterlimit="10"></path>
            <path d="M381.275 533.621H-23.2007V539.95H381.275V533.621Z" fill="url(#paint19_linear_859_148)"
                  stroke="#002087" stroke-width="4" stroke-miterlimit="10"></path>
            <path d="M21.0372 546.278H8.39783V571.593H21.0372V546.278Z" fill="url(#paint20_linear_859_148)"
                  stroke="#002087" stroke-width="4" stroke-miterlimit="10"></path>
            <path d="M46.319 546.278H33.6796V571.593H46.319V546.278Z" fill="url(#paint21_linear_859_148)"
                  stroke="#002087" stroke-width="4" stroke-miterlimit="10"></path>
            <path d="M71.5978 546.278H58.9584V571.593H71.5978V546.278Z" fill="url(#paint22_linear_859_148)"
                  stroke="#002087" stroke-width="4" stroke-miterlimit="10"></path>
            <path d="M96.8766 546.278H84.2372V571.593H96.8766V546.278Z" fill="url(#paint23_linear_859_148)"
                  stroke="#002087" stroke-width="4" stroke-miterlimit="10"></path>
            <path d="M122.158 546.278H109.519V571.593H122.158V546.278Z" fill="url(#paint24_linear_859_148)"
                  stroke="#002087" stroke-width="4" stroke-miterlimit="10"></path>
            <path d="M147.437 546.278H134.798V571.593H147.437V546.278Z" fill="url(#paint25_linear_859_148)"
                  stroke="#002087" stroke-width="4" stroke-miterlimit="10"></path>
            <path d="M172.716 546.278H160.077V571.593H172.716V546.278Z" fill="url(#paint26_linear_859_148)"
                  stroke="#002087" stroke-width="4" stroke-miterlimit="10"></path>
            <path d="M197.995 546.278H185.355V571.593H197.995V546.278Z" fill="url(#paint27_linear_859_148)"
                  stroke="#002087" stroke-width="4" stroke-miterlimit="10"></path>
            <path d="M223.277 546.278H210.637V571.593H223.277V546.278Z" fill="url(#paint28_linear_859_148)"
                  stroke="#002087" stroke-width="4" stroke-miterlimit="10"></path>
            <path d="M248.555 546.278H235.916V571.593H248.555V546.278Z" fill="url(#paint29_linear_859_148)"
                  stroke="#002087" stroke-width="4" stroke-miterlimit="10"></path>
            <path d="M273.834 546.278H261.195V571.593H273.834V546.278Z" fill="url(#paint30_linear_859_148)"
                  stroke="#002087" stroke-width="4" stroke-miterlimit="10"></path>
            <path d="M299.116 546.278H286.477V571.593H299.116V546.278Z" fill="url(#paint31_linear_859_148)"
                  stroke="#002087" stroke-width="4" stroke-miterlimit="10"></path>
            <path d="M324.395 546.278H311.755V571.593H324.395V546.278Z" fill="url(#paint32_linear_859_148)"
                  stroke="#002087" stroke-width="4" stroke-miterlimit="10"></path>
            <path d="M349.674 546.278H337.034V571.593H349.674V546.278Z" fill="url(#paint33_linear_859_148)"
                  stroke="#002087" stroke-width="4" stroke-miterlimit="10"></path>
            <path d="M374.952 546.278H362.313V571.593H374.952V546.278Z" fill="url(#paint34_linear_859_148)"
                  stroke="#002087" stroke-width="4" stroke-miterlimit="10"></path>
            <path d="M368.633 482.992H-10.5613V489.321H368.633V482.992Z" fill="url(#paint35_linear_859_148)"
                  stroke="#002087" stroke-width="4" stroke-miterlimit="10"></path>
            <path d="M229.596 457.675H128.478V508.307H229.596V457.675Z" fill="#F5A4A1" stroke="#212C57" stroke-width="4"
                  stroke-miterlimit="10"></path>
            <path d="M235.916 470.332H229.596V508.304H235.916V470.332Z" fill="url(#paint36_linear_859_148)"
                  stroke="#002087" stroke-width="4" stroke-miterlimit="10"></path>
            <path d="M235.916 445.018H122.158V457.675H235.916V445.018Z" fill="#F5A4A1" stroke="#212C57" stroke-width="4"
                  stroke-miterlimit="10"></path>
            <path d="M213.166 470.332H144.905C142.811 470.332 141.117 472.031 141.117 474.125V508.304H216.957V474.125C216.957 472.028 215.26 470.332 213.169 470.332H213.166Z"
                  fill="url(#paint37_linear_859_148)" stroke="#002087" stroke-width="4" stroke-miterlimit="10"></path>
            <path d="M172.337 391.605L185.737 378.183" stroke="#002087" stroke-width="4" stroke-miterlimit="10"></path>
            <path d="M172.352 378.198L185.722 391.587" stroke="#002087" stroke-width="4" stroke-miterlimit="10"></path>
            <path d="M128.478 457.675V460.826L134.828 464.003H229.596V457.675H128.478Z"
                  fill="url(#paint38_linear_859_148)" stroke="#002087" stroke-width="4" stroke-miterlimit="10"></path>
            <path d="M60.5391 584.253V761.46" stroke="#212C57" stroke-width="4" stroke-miterlimit="10"></path>
            <path d="M70.0171 584.253V761.46" stroke="#212C57" stroke-width="4" stroke-miterlimit="10"></path>
            <path d="M136.378 584.253V761.46" stroke="#212C57" stroke-width="4" stroke-miterlimit="10"></path>
            <path d="M145.856 584.253V761.46" stroke="#212C57" stroke-width="4" stroke-miterlimit="10"></path>
            <g style="mix-blend-mode:hard-light">
                <path d="M212.215 584.253V761.46" stroke="#212C57" stroke-width="4" stroke-miterlimit="10"></path>
            </g>

            <path d="M221.696 584.253V761.46" stroke="#212C57" stroke-width="4" stroke-miterlimit="10"></path>
            <path d="M288.054 584.253V761.46" stroke="#777777" stroke-width="4" stroke-miterlimit="10"></path>
            <path d="M297.535 584.253V761.46" stroke="#777777" stroke-width="4" stroke-miterlimit="10"></path>
            <path d="M363.894 584.253V761.46" stroke="#212C57" stroke-width="4" stroke-miterlimit="10"></path>
            <path d="M373.375 584.253V761.46" stroke="#212C57" stroke-width="4" stroke-miterlimit="10"></path>
            <path d="M349.674 546.278H337.034V571.593H349.674V546.278Z" fill="url(#paint39_linear_859_148)"
                  stroke="#002087" stroke-width="4" stroke-miterlimit="10"></path>
        </g>


        <g style="mix-blend-mode:hard-light">
            <path d="M324.395 204.521H286.476L273.834 913.35H337.034L324.395 204.521Z" fill="#4C00FF"></path>
            <path d="M324.395 204.521H286.476L273.834 913.35H337.034L324.395 204.521Z" stroke="#212C57" stroke-width="4"
                  stroke-miterlimit="10"></path>
        </g>


        <g>
            <path d="M324.395 204.521H286.477L283.548 368.575L328.117 413.204L324.395 204.521Z"
                  fill="url(#paint40_linear_859_148)" stroke="#002087" stroke-width="4" stroke-miterlimit="10"></path>
            <path d="M330.714 331.1H280.154C276.664 331.1 273.834 333.934 273.834 337.428C273.834 340.923 276.664 343.757 280.154 343.757H330.714C334.204 343.757 337.034 340.923 337.034 337.428C337.034 333.934 334.204 331.1 330.714 331.1Z"
                  fill="white" stroke="#212C57" stroke-width="4" stroke-miterlimit="10"></path>
            <path d="M305.436 331.1H326.652L326.357 314.611C319.778 316.934 312.808 318.439 305.436 318.439V331.097V331.1Z"
                  fill="url(#paint41_linear_859_148)" stroke="#002087" stroke-width="4" stroke-miterlimit="10"></path>
            <path d="M330.714 331.1H314.013V331.309C316.992 331.819 319.301 334.301 319.301 337.428C319.301 340.555 317.103 342.903 314.234 343.503L314.24 343.757H330.717C334.207 343.757 337.037 340.923 337.037 337.428C337.037 333.934 334.207 331.1 330.717 331.1H330.714Z"
                  fill="url(#paint42_linear_859_148)" stroke="#002087" stroke-width="4" stroke-miterlimit="10"></path>
            <path d="M305.436 318.442C340.34 318.442 368.636 290.107 368.636 255.153C368.636 220.2 340.34 191.864 305.436 191.864C270.531 191.864 242.236 220.2 242.236 255.153C242.236 290.107 270.531 318.442 305.436 318.442Z"
                  fill="url(#paint43_linear_859_148)" stroke="#002087" stroke-width="4" stroke-miterlimit="10"></path>
            <path d="M242.236 255.153C242.236 266.093 245.26 276.23 250.142 285.21C259.11 290.096 269.229 293.128 280.157 293.128C315.06 293.128 343.357 264.791 343.357 229.839C343.357 218.899 340.333 208.762 335.45 199.782C326.482 194.895 316.363 191.864 305.436 191.864C270.533 191.864 242.236 220.201 242.236 255.153Z"
                  fill="#A0D6E2" stroke="#212C57" stroke-width="4" stroke-miterlimit="10"></path>
            <path d="M246.521 277.305C246.62 277.565 246.685 277.839 246.79 278.099C246.921 278.428 247.088 278.738 247.225 279.064C247.884 280.623 248.627 282.134 249.393 283.633H313.07C316.098 281.773 318.895 279.634 321.558 277.305H246.521Z"
                  fill="url(#paint44_linear_859_148)" stroke="#002087" stroke-width="4" stroke-miterlimit="10"></path>
            <path d="M243.19 264.647C243.515 266.801 243.933 268.9 244.469 270.976H327.821C329.587 268.927 331.379 266.911 332.874 264.647H243.193H243.19Z"
                  fill="url(#paint45_linear_859_148)" stroke="#002087" stroke-width="4" stroke-miterlimit="10"></path>

        </g>


    </g>
    <g style="mix-blend-mode:hard-light">
        <path d="M356.107 293.17C417.177 334.003 457.401 403.647 457.401 482.703C457.401 608.474 355.585 710.434 229.99 710.434C104.395 710.434 2.57922 608.474 2.57922 482.703C2.57922 356.931 104.395 254.971 229.99 254.971C234.094 254.971 238.174 255.079 242.224 255.294"
              stroke="#2B00FF" stroke-width="4" stroke-miterlimit="10"></path>
    </g>
    <defs>
        <linearGradient id="paint0_linear_859_148" x1="33.423" y1="555.696" x2="426.677" y2="410.665"
                        gradientUnits="userSpaceOnUse">
            <stop stop-color="#B3DEFF"></stop>
            <stop offset="0.6" stop-color="#C9D7E2"></stop>
            <stop offset="1" stop-color="#D5D5D5"></stop>
        </linearGradient>
        <linearGradient id="paint1_linear_859_148" x1="300.694" y1="52.6319" x2="310.175" y2="52.6319"
                        gradientUnits="userSpaceOnUse">
            <stop stop-color="#B3DEFF"></stop>
            <stop offset="0.6" stop-color="#C9D7E2"></stop>
            <stop offset="1" stop-color="#D5D5D5"></stop>
        </linearGradient>
        <linearGradient id="paint2_linear_859_148" x1="286.477" y1="153.893" x2="324.395" y2="153.893"
                        gradientUnits="userSpaceOnUse">
            <stop stop-color="#B3DEFF"></stop>
            <stop offset="0.6" stop-color="#C9D7E2"></stop>
            <stop offset="1" stop-color="#D5D5D5"></stop>
        </linearGradient>
        <linearGradient id="paint3_linear_859_148" x1="314.914" y1="115.918" x2="314.914" y2="195.084"
                        gradientUnits="userSpaceOnUse">
            <stop stop-color="#2A2EFF"></stop>
            <stop offset="1" stop-color="#7A81FF"></stop>
        </linearGradient>
        <linearGradient id="paint4_linear_859_148" x1="305.436" y1="191.864" x2="305.436" y2="318.442"
                        gradientUnits="userSpaceOnUse">
            <stop stop-color="#2A2EFF"></stop>
            <stop offset="1" stop-color="#7A81FF"></stop>
        </linearGradient>
        <linearGradient id="paint5_linear_859_148" x1="242.236" y1="242.496" x2="343.354" y2="242.496"
                        gradientUnits="userSpaceOnUse">
            <stop stop-color="#B3DEFF"></stop>
            <stop offset="0.6" stop-color="#C9D7E2"></stop>
            <stop offset="1" stop-color="#D5D5D5"></stop>
        </linearGradient>
        <linearGradient id="paint6_linear_859_148" x1="284.04" y1="277.305" x2="284.04" y2="283.634"
                        gradientUnits="userSpaceOnUse">
            <stop stop-color="#2A2EFF"></stop>
            <stop offset="1" stop-color="#7A81FF"></stop>
        </linearGradient>
        <linearGradient id="paint7_linear_859_148" x1="288.033" y1="264.648" x2="288.033" y2="270.976"
                        gradientUnits="userSpaceOnUse">
            <stop stop-color="#2A2EFF"></stop>
            <stop offset="1" stop-color="#7A81FF"></stop>
        </linearGradient>
        <linearGradient id="paint8_linear_859_148" x1="37" y1="260.657" x2="62.2788" y2="260.657"
                        gradientUnits="userSpaceOnUse">
            <stop stop-color="#85CAFF"></stop>
            <stop offset="1" stop-color="#38A9FF"></stop>
        </linearGradient>
        <linearGradient id="paint9_linear_859_148" x1="57.9959" y1="190" x2="161" y2="190"
                        gradientUnits="userSpaceOnUse">
            <stop stop-color="#FF44EC"></stop>
            <stop offset="1" stop-color="#E2A6FF"></stop>
        </linearGradient>
        <linearGradient id="paint10_linear_859_148" x1="73.6204" y1="197.781" x2="145.56" y2="183.249"
                        gradientUnits="userSpaceOnUse">
            <stop stop-color="#0E1D45"></stop>
            <stop offset="1" stop-color="#061845"></stop>
        </linearGradient>
        <linearGradient id="paint11_linear_859_148" x1="169.558" y1="384.894" x2="188.517" y2="384.894"
                        gradientUnits="userSpaceOnUse">
            <stop stop-color="#2A2EFF"></stop>
            <stop offset="1" stop-color="#7A81FF"></stop>
        </linearGradient>
        <linearGradient id="paint12_linear_859_148" x1="162.182" y1="356.414" x2="195.889" y2="356.414"
                        gradientUnits="userSpaceOnUse">
            <stop stop-color="#2A2EFF"></stop>
            <stop offset="1" stop-color="#7A81FF"></stop>
        </linearGradient>
        <linearGradient id="paint13_linear_859_148" x1="368.633" y1="584.253" x2="368.633" y2="609.567"
                        gradientUnits="userSpaceOnUse">
            <stop stop-color="#2A2EFF"></stop>
            <stop offset="1" stop-color="#7A81FF"></stop>
        </linearGradient>
        <linearGradient id="paint14_linear_859_148" x1="292.796" y1="584.253" x2="292.796" y2="609.567"
                        gradientUnits="userSpaceOnUse">
            <stop stop-color="#2A2EFF"></stop>
            <stop offset="1" stop-color="#7A81FF"></stop>
        </linearGradient>
        <linearGradient id="paint15_linear_859_148" x1="216.957" y1="584.253" x2="216.957" y2="609.567"
                        gradientUnits="userSpaceOnUse">
            <stop stop-color="#2A2EFF"></stop>
            <stop offset="1" stop-color="#7A81FF"></stop>
        </linearGradient>
        <linearGradient id="paint16_linear_859_148" x1="141.117" y1="584.253" x2="141.117" y2="609.567"
                        gradientUnits="userSpaceOnUse">
            <stop stop-color="#2A2EFF"></stop>
            <stop offset="1" stop-color="#7A81FF"></stop>
        </linearGradient>
        <linearGradient id="paint17_linear_859_148" x1="65.2781" y1="584.253" x2="65.2781" y2="609.567"
                        gradientUnits="userSpaceOnUse">
            <stop stop-color="#2A2EFF"></stop>
            <stop offset="1" stop-color="#7A81FF"></stop>
        </linearGradient>
        <linearGradient id="paint18_linear_859_148" x1="-10.5613" y1="584.253" x2="-10.5613" y2="609.567"
                        gradientUnits="userSpaceOnUse">
            <stop stop-color="#2A2EFF"></stop>
            <stop offset="1" stop-color="#7A81FF"></stop>
        </linearGradient>
        <linearGradient id="paint19_linear_859_148" x1="179.036" y1="533.621" x2="179.036" y2="539.95"
                        gradientUnits="userSpaceOnUse">
            <stop stop-color="#2A2EFF"></stop>
            <stop offset="1" stop-color="#7A81FF"></stop>
        </linearGradient>
        <linearGradient id="paint20_linear_859_148" x1="14.7205" y1="546.278" x2="14.7205" y2="571.593"
                        gradientUnits="userSpaceOnUse">
            <stop stop-color="#2A2EFF"></stop>
            <stop offset="1" stop-color="#7A81FF"></stop>
        </linearGradient>
        <linearGradient id="paint21_linear_859_148" x1="39.9993" y1="546.278" x2="39.9993" y2="571.593"
                        gradientUnits="userSpaceOnUse">
            <stop stop-color="#2A2EFF"></stop>
            <stop offset="1" stop-color="#7A81FF"></stop>
        </linearGradient>
        <linearGradient id="paint22_linear_859_148" x1="65.2781" y1="546.278" x2="65.2781" y2="571.593"
                        gradientUnits="userSpaceOnUse">
            <stop stop-color="#2A2EFF"></stop>
            <stop offset="1" stop-color="#7A81FF"></stop>
        </linearGradient>
        <linearGradient id="paint23_linear_859_148" x1="90.5569" y1="546.278" x2="90.5569" y2="571.593"
                        gradientUnits="userSpaceOnUse">
            <stop stop-color="#2A2EFF"></stop>
            <stop offset="1" stop-color="#7A81FF"></stop>
        </linearGradient>
        <linearGradient id="paint24_linear_859_148" x1="115.839" y1="546.278" x2="115.839" y2="571.593"
                        gradientUnits="userSpaceOnUse">
            <stop stop-color="#2A2EFF"></stop>
            <stop offset="1" stop-color="#7A81FF"></stop>
        </linearGradient>
        <linearGradient id="paint25_linear_859_148" x1="141.117" y1="546.278" x2="141.117" y2="571.593"
                        gradientUnits="userSpaceOnUse">
            <stop stop-color="#2A2EFF"></stop>
            <stop offset="1" stop-color="#7A81FF"></stop>
        </linearGradient>
        <linearGradient id="paint26_linear_859_148" x1="166.396" y1="546.278" x2="166.396" y2="571.593"
                        gradientUnits="userSpaceOnUse">
            <stop stop-color="#2A2EFF"></stop>
            <stop offset="1" stop-color="#7A81FF"></stop>
        </linearGradient>
        <linearGradient id="paint27_linear_859_148" x1="191.678" y1="546.278" x2="191.678" y2="571.593"
                        gradientUnits="userSpaceOnUse">
            <stop stop-color="#2A2EFF"></stop>
            <stop offset="1" stop-color="#7A81FF"></stop>
        </linearGradient>
        <linearGradient id="paint28_linear_859_148" x1="216.957" y1="546.278" x2="216.957" y2="571.593"
                        gradientUnits="userSpaceOnUse">
            <stop stop-color="#2A2EFF"></stop>
            <stop offset="1" stop-color="#7A81FF"></stop>
        </linearGradient>
        <linearGradient id="paint29_linear_859_148" x1="242.236" y1="546.278" x2="242.236" y2="571.593"
                        gradientUnits="userSpaceOnUse">
            <stop stop-color="#2A2EFF"></stop>
            <stop offset="1" stop-color="#7A81FF"></stop>
        </linearGradient>
        <linearGradient id="paint30_linear_859_148" x1="267.514" y1="546.278" x2="267.514" y2="571.593"
                        gradientUnits="userSpaceOnUse">
            <stop stop-color="#2A2EFF"></stop>
            <stop offset="1" stop-color="#7A81FF"></stop>
        </linearGradient>
        <linearGradient id="paint31_linear_859_148" x1="292.796" y1="546.278" x2="292.796" y2="571.593"
                        gradientUnits="userSpaceOnUse">
            <stop stop-color="#2A2EFF"></stop>
            <stop offset="1" stop-color="#7A81FF"></stop>
        </linearGradient>
        <linearGradient id="paint32_linear_859_148" x1="318.075" y1="546.278" x2="318.075" y2="571.593"
                        gradientUnits="userSpaceOnUse">
            <stop stop-color="#2A2EFF"></stop>
            <stop offset="1" stop-color="#7A81FF"></stop>
        </linearGradient>
        <linearGradient id="paint33_linear_859_148" x1="343.354" y1="546.278" x2="343.354" y2="571.593"
                        gradientUnits="userSpaceOnUse">
            <stop stop-color="#2A2EFF"></stop>
            <stop offset="1" stop-color="#7A81FF"></stop>
        </linearGradient>
        <linearGradient id="paint34_linear_859_148" x1="368.633" y1="546.278" x2="368.633" y2="571.593"
                        gradientUnits="userSpaceOnUse">
            <stop stop-color="#2A2EFF"></stop>
            <stop offset="1" stop-color="#7A81FF"></stop>
        </linearGradient>
        <linearGradient id="paint35_linear_859_148" x1="179.036" y1="482.992" x2="179.036" y2="489.321"
                        gradientUnits="userSpaceOnUse">
            <stop stop-color="#2A2EFF"></stop>
            <stop offset="1" stop-color="#7A81FF"></stop>
        </linearGradient>
        <linearGradient id="paint36_linear_859_148" x1="232.755" y1="470.332" x2="232.755" y2="508.307"
                        gradientUnits="userSpaceOnUse">
            <stop stop-color="#2A2EFF"></stop>
            <stop offset="1" stop-color="#7A81FF"></stop>
        </linearGradient>
        <linearGradient id="paint37_linear_859_148" x1="179.036" y1="470.332" x2="179.036" y2="508.307"
                        gradientUnits="userSpaceOnUse">
            <stop stop-color="#2A2EFF"></stop>
            <stop offset="1" stop-color="#7A81FF"></stop>
        </linearGradient>
        <linearGradient id="paint38_linear_859_148" x1="179.036" y1="457.675" x2="179.036" y2="464.003"
                        gradientUnits="userSpaceOnUse">
            <stop stop-color="#2A2EFF"></stop>
            <stop offset="1" stop-color="#7A81FF"></stop>
        </linearGradient>
        <linearGradient id="paint39_linear_859_148" x1="343.354" y1="546.278" x2="343.354" y2="571.593"
                        gradientUnits="userSpaceOnUse">
            <stop stop-color="#2A2EFF"></stop>
            <stop offset="1" stop-color="#7A81FF"></stop>
        </linearGradient>
        <linearGradient id="paint40_linear_859_148" x1="305.832" y1="204.521" x2="305.832" y2="413.204"
                        gradientUnits="userSpaceOnUse">
            <stop stop-color="#2A2EFF"></stop>
            <stop offset="1" stop-color="#7A81FF"></stop>
        </linearGradient>
        <linearGradient id="paint41_linear_859_148" x1="316.044" y1="314.611" x2="316.044" y2="331.1"
                        gradientUnits="userSpaceOnUse">
            <stop stop-color="#2A2EFF"></stop>
            <stop offset="1" stop-color="#7A81FF"></stop>
        </linearGradient>
        <linearGradient id="paint42_linear_859_148" x1="325.522" y1="331.1" x2="325.522" y2="343.757"
                        gradientUnits="userSpaceOnUse">
            <stop stop-color="#2A2EFF"></stop>
            <stop offset="1" stop-color="#7A81FF"></stop>
        </linearGradient>
        <linearGradient id="paint43_linear_859_148" x1="305.436" y1="191.864" x2="305.436" y2="318.442"
                        gradientUnits="userSpaceOnUse">
            <stop stop-color="#2A2EFF"></stop>
            <stop offset="1" stop-color="#7A81FF"></stop>
        </linearGradient>
        <linearGradient id="paint44_linear_859_148" x1="284.04" y1="277.305" x2="284.04" y2="283.633"
                        gradientUnits="userSpaceOnUse">
            <stop stop-color="#2A2EFF"></stop>
            <stop offset="1" stop-color="#7A81FF"></stop>
        </linearGradient>
        <linearGradient id="paint45_linear_859_148" x1="288.033" y1="264.647" x2="288.033" y2="270.976"
                        gradientUnits="userSpaceOnUse">
            <stop stop-color="#2A2EFF"></stop>
            <stop offset="1" stop-color="#7A81FF"></stop>
        </linearGradient>
    </defs>
</svg>
