<svg width="75" height="58" viewBox="0 0 75 58" fill="none" xmlns="http://www.w3.org/2000/svg">
<rect x="0.5" y="0.5" width="74" height="57" rx="10.5" fill="#6665D8" stroke="#6665D8"/>
<path d="M12.848 43.2C11.8667 41.8987 10.9707 40.4907 10.16 38.976C9.34933 37.44 8.70933 35.8187 8.24 34.112C7.77067 32.4053 7.536 30.6347 7.536 28.8C7.536 26.944 7.77067 25.1733 8.24 23.488C8.70933 21.7813 9.34933 20.1707 10.16 18.656C10.9707 17.12 11.8667 15.7013 12.848 14.4H17.008C16.0267 15.7653 15.1307 17.2267 14.32 18.784C13.5093 20.3413 12.8693 21.9627 12.4 23.648C11.9307 25.312 11.696 27.0293 11.696 28.8C11.696 30.5493 11.9307 32.2667 12.4 33.952C12.8693 35.6373 13.5093 37.2587 14.32 38.816C15.1307 40.352 16.0267 41.8133 17.008 43.2H12.848ZM61.7198 43.2H57.5598C58.5624 41.8133 59.4584 40.352 60.2478 38.816C61.0584 37.2587 61.6984 35.6373 62.1678 33.952C62.6371 32.2667 62.8718 30.5493 62.8718 28.8C62.8718 27.0293 62.6371 25.312 62.1678 23.648C61.6984 21.9627 61.0584 20.3413 60.2478 18.784C59.4584 17.2267 58.5624 15.7653 57.5598 14.4H61.7198C62.7224 15.7013 63.6184 17.12 64.4078 18.656C65.2184 20.1707 65.8584 21.7813 66.3278 23.488C66.7971 25.1733 67.0318 26.944 67.0318 28.8C67.0318 30.6347 66.7971 32.4053 66.3278 34.112C65.8584 35.8187 65.2184 37.44 64.4078 38.976C63.6184 40.4907 62.7224 41.8987 61.7198 43.2Z" fill="white"/>
<path d="M31.384 38L31.128 35.056V22H35.352V38H31.384ZM20.536 31.152V22H24.76V30.192L20.536 31.152ZM24.76 30.192C24.76 31.2587 24.8773 32.1013 25.112 32.72C25.368 33.3173 25.72 33.7547 26.168 34.032C26.6373 34.288 27.16 34.416 27.736 34.416C28.8453 34.4373 29.688 34.1067 30.264 33.424C30.84 32.72 31.128 31.7067 31.128 30.384H32.568C32.568 32.0907 32.312 33.5413 31.8 34.736C31.3093 35.9093 30.6053 36.816 29.688 37.456C28.792 38.0747 27.736 38.384 26.52 38.384C24.6 38.384 23.1173 37.7973 22.072 36.624C21.048 35.4293 20.536 33.6053 20.536 31.152L24.76 30.192ZM39.0115 38V22H42.9795L43.2355 24.944V38H39.0115ZM49.6035 38V29.808L53.8275 28.848V38H49.6035ZM49.6035 29.808C49.6035 28.72 49.4755 27.8773 49.2195 27.28C48.9848 26.6827 48.6435 26.256 48.1955 26C47.7475 25.7227 47.2248 25.584 46.6275 25.584C45.5395 25.5627 44.6968 25.8933 44.0995 26.576C43.5235 27.2587 43.2355 28.272 43.2355 29.616H41.8275C41.8275 27.9093 42.0728 26.4693 42.5635 25.296C43.0755 24.1013 43.7795 23.1947 44.6755 22.576C45.5715 21.936 46.6275 21.616 47.8435 21.616C49.7848 21.616 51.2675 22.2133 52.2915 23.408C53.3368 24.5813 53.8488 26.3947 53.8275 28.848L49.6035 29.808Z" fill="white"/>
</svg>
