<?xml version="1.0" encoding="UTF-8" standalone="no"?>
<!-- Created with Inkscape (http://www.inkscape.org/) -->

<svg
   width="57.547581mm"
   height="59.728806mm"
   viewBox="0 0 57.547581 59.728806"
   version="1.1"
   id="svg2978"
   xmlns="http://www.w3.org/2000/svg"
   xmlns:svg="http://www.w3.org/2000/svg">
  <defs
     id="defs2975">
    <clipPath
       clipPathUnits="userSpaceOnUse"
       id="clipPath16">
      <path
         d="M 0,1190.55 H 841.89 V 0 H 0 Z"
         id="path14" />
    </clipPath>
  </defs>
  <g
     id="layer1"
     transform="translate(-182.90789,-45.307956)">
    <g
       id="g10"
       transform="matrix(0.35277777,0,0,-0.35277777,162.48869,443.73778)">
      <g
         id="g12"
         clip-path="url(#clipPath16)">
        <g
           id="g18"
           transform="translate(79.4142,1059.2504)">
          <path
             d="M 0,0 H -19.443 V -7.95 H 0 c 2.881,0 4.487,1.606 4.487,3.978 C 4.487,-1.183 2.203,0 0,0 M 135.502,17.03 C 122.998,48.161 92.549,70.157 56.939,70.157 21.547,70.157 -8.757,48.425 -21.4,17.588 H 0 c 11.252,0 22.076,-7.018 22.076,-21.56 0,-10.827 -5.328,-16.749 -10.656,-19.367 l 6.426,-13.189 c 0.592,-1.271 0.931,-2.623 0.931,-3.978 0,-4.652 -4.225,-8.711 -8.877,-8.711 -3.301,0 -6.598,1.947 -8.119,5.075 l -8.962,18.689 h -12.262 v -15.308 c 0,-2.058 -0.795,-3.987 -2.09,-5.493 12.562,-31.015 42.957,-52.899 78.472,-52.899 34.688,0 64.48,20.868 77.562,50.729 -1.834,0.774 -3.457,2.051 -4.358,3.689 l -13.019,23.001 c -2.963,-3.131 -5.328,-5.58 -8.541,-9.045 v -9.982 c 0,-5.072 -4.228,-8.456 -8.457,-8.456 h -0.761 c -4.228,0 -8.372,3.384 -8.372,8.456 V 9.131 c 0,4.989 4.144,8.457 8.372,8.457 h 0.761 c 4.229,0 8.457,-3.468 8.457,-8.457 v -14.46 l 0.17,0.08 18.686,19.795 c 1.437,1.523 3.974,2.7 6.259,2.7 0.618,0 1.214,-0.079 1.804,-0.216 M 82.961,8.709 C 82.961,3.89 78.822,0 74.166,0 H 63.594 v -40.761 c 0,-5.072 -3.976,-8.456 -8.449,-8.456 h -0.684 c -4.309,0 -8.453,3.384 -8.453,8.456 L 46.008,0 H 35.526 c -4.656,0 -8.798,3.89 -8.798,8.709 0,4.652 4.142,8.879 8.798,8.879 h 38.64 c 4.656,0 8.795,-4.227 8.795,-8.879 m 46.676,-17.248 10.946,-19.033 c 0.661,4.264 1.011,8.625 1.011,13.071 0,5.69 -0.572,11.236 -1.641,16.61 z"
             style="fill:#009b9d;fill-opacity:1;fill-rule:nonzero;stroke:none"
             id="path20" />
        </g>
      </g>
    </g>
  </g>
</svg>
