<?xml version="1.0" encoding="UTF-8" standalone="no"?>
<!-- Created with Inkscape (http://www.inkscape.org/) -->

<svg
   width="61.144855mm"
   height="63.46225mm"
   viewBox="0 0 61.144855 63.46225"
   version="1.1"
   id="svg2964"
   xmlns="http://www.w3.org/2000/svg"
   xmlns:svg="http://www.w3.org/2000/svg">
  <defs
     id="defs2961">
    <clipPath
       clipPathUnits="userSpaceOnUse"
       id="clipPath18">
      <path
         d="M 0,1207.558 H 858.897 V 0 H 0 Z"
         id="path16" />
    </clipPath>
  </defs>
  <g
     id="layer1"
     transform="translate(-71.512286,-67.750862)">
    <g
       id="g12"
       transform="matrix(0.35277777,0,0,-0.35277777,51.206186,464.27625)"
       style="fill:#000000">
      <g
         id="g14"
         clip-path="url(#clipPath18)"
         style="fill:#000000">
        <g
           id="g20"
           transform="translate(80.4396,1049.467)"
           style="fill:#000000">
          <path
             d="M 0,0 H -20.659 V -8.447 H 0 c 3.061,0 4.768,1.707 4.768,4.227 C 4.768,-1.257 2.341,0 0,0 M 143.972,18.094 C 130.687,51.172 98.335,74.542 60.498,74.542 22.894,74.542 -9.305,51.452 -22.738,18.687 H 0 c 11.956,0 23.456,-7.456 23.456,-22.907 0,-11.505 -5.661,-17.796 -11.322,-20.578 l 6.827,-14.014 c 0.629,-1.35 0.99,-2.787 0.99,-4.226 0,-4.943 -4.489,-9.256 -9.433,-9.256 -3.506,0 -7.009,2.069 -8.626,5.392 l -9.522,19.858 h -13.029 v -16.265 c 0,-2.186 -0.844,-4.237 -2.22,-5.836 13.348,-32.954 45.642,-56.206 83.377,-56.206 36.857,0 68.511,22.172 82.411,53.9 -1.949,0.822 -3.673,2.179 -4.63,3.919 l -13.833,24.44 c -3.148,-3.328 -5.661,-5.929 -9.075,-9.611 v -10.606 c 0,-5.389 -4.492,-8.985 -8.986,-8.985 h -0.809 c -4.491,0 -8.894,3.596 -8.894,8.985 V 9.702 c 0,5.301 4.403,8.985 8.894,8.985 h 0.809 c 4.494,0 8.986,-3.684 8.986,-8.985 V -5.662 l 0.181,0.085 19.853,21.032 c 1.527,1.618 4.223,2.869 6.651,2.869 0.657,0 1.289,-0.084 1.916,-0.23 M 88.147,9.254 C 88.147,4.133 83.749,0 78.802,0 H 67.569 v -43.309 c 0,-5.389 -4.224,-8.985 -8.976,-8.985 h -0.727 c -4.579,0 -8.982,3.596 -8.982,8.985 L 48.884,0 H 37.747 c -4.947,0 -9.349,4.133 -9.349,9.254 0,4.942 4.402,9.433 9.349,9.433 h 41.055 c 4.947,0 9.345,-4.491 9.345,-9.433 m 49.594,-18.327 11.631,-20.222 c 0.702,4.53 1.073,9.163 1.073,13.887 0,6.046 -0.607,11.939 -1.743,17.648 z"
             style="fill:#000000;fill-opacity:1;fill-rule:nonzero;stroke:none"
             id="path22" />
        </g>
      </g>
    </g>
  </g>
</svg>
