<svg width="31" height="28" viewBox="0 0 31 28" fill="none" xmlns="http://www.w3.org/2000/svg">
    <path d="M30.9998 20.3751C30.982 20.3823 30.9521 20.3847 30.9473 20.3966C30.7022 20.9682 30.2169 21.0111 29.6717 21.004C28.1389 20.9841 26.6044 20.957 25.0741 21.0072C24.3768 21.0302 23.8009 20.762 23.1902 20.5415C23.1861 20.4985 23.1821 20.4547 23.1732 20.3696C23.1206 20.4332 23.0939 20.4651 23.0672 20.4977C22.9346 20.3743 22.8003 20.2526 22.6693 20.1276C21.8483 19.3403 21.3177 18.4265 21.3047 17.258C21.2991 16.7255 21.3824 16.2216 21.5668 15.7273C21.5822 15.7058 21.5975 15.6835 21.6129 15.662C22.2414 14.3502 23.2549 13.5041 24.7481 13.4205C26.3027 13.3337 27.8647 13.3696 29.4242 13.3528C29.5754 13.3513 29.7267 13.3528 29.8779 13.3528C30.3075 13.3528 30.6609 13.4906 30.8737 13.8846C30.9157 13.9435 30.9586 14.0024 31.0007 14.0613V20.3759L30.9998 20.3751ZM26.4588 17.2015C26.4653 16.4795 25.8805 15.8865 25.1282 15.9152C24.4205 15.9422 23.9352 16.4405 23.8624 17.1712C23.8033 17.7714 24.5143 18.487 25.1274 18.4647C25.87 18.4369 26.4499 17.8654 26.4588 17.2023V17.2015Z" fill="#3399FF"/>
    <path d="M16.2056 1.28474C16.3043 1.22743 16.4021 1.17091 16.5008 1.1136C16.5178 1.12076 16.534 1.12872 16.5502 1.13589C16.5364 1.12554 16.5218 1.11599 16.5081 1.10564C16.6068 1.04833 16.7047 0.991813 16.8033 0.934501C16.8203 0.941665 16.8365 0.949625 16.8527 0.956789C16.8389 0.946441 16.8244 0.936889 16.8106 0.926541C16.9093 0.869229 17.0072 0.812713 17.1059 0.755401C17.1228 0.762565 17.139 0.770525 17.1552 0.777689C17.1414 0.767341 17.1269 0.757789 17.1131 0.747441C17.2118 0.69013 17.3097 0.633614 17.4084 0.576302C17.4254 0.583466 17.4415 0.591426 17.4577 0.59859C17.444 0.588242 17.4294 0.57869 17.4156 0.568342C17.63 0.457698 17.846 0.351035 18.0571 0.234819C18.1396 0.189447 18.21 0.122584 18.286 0.0660678C18.3661 0.0437799 18.4453 0.0214919 18.5254 0C18.6468 0 18.7673 0 18.8886 0C19.4896 0.166363 19.6829 0.705254 19.9547 1.15818C20.7207 2.43257 21.4665 3.7181 22.2203 4.99886C22.2195 5.03707 22.2179 5.07448 22.2171 5.11269C20.6536 5.11508 19.0908 5.11985 17.5273 5.11985C15.1063 5.11985 12.6854 5.11906 10.2644 5.11269C10.1649 5.11269 10.0654 5.05617 9.96594 5.02672C9.99183 5.01717 10.0169 5.00603 10.0428 4.99488C10.5208 4.70036 10.9932 4.39868 11.4769 4.11371C12.7129 3.38458 13.9537 2.6642 15.1913 1.93746C15.2309 1.91358 15.256 1.86502 15.2875 1.82761C15.3045 1.83477 15.3207 1.84273 15.3368 1.8499C15.3231 1.83955 15.3085 1.83 15.2948 1.81965C15.3935 1.76234 15.4913 1.70582 15.59 1.64851C15.607 1.65567 15.6232 1.66363 15.6394 1.6708C15.6256 1.66045 15.6111 1.6509 15.5973 1.64055C15.696 1.58324 15.7939 1.52672 15.8925 1.46941C15.9095 1.47658 15.9257 1.48453 15.9419 1.4917C15.9281 1.48135 15.9136 1.4718 15.8998 1.46145C15.9985 1.40414 16.0964 1.34762 16.1951 1.29031C16.212 1.29748 16.2282 1.30544 16.2444 1.3126C16.2307 1.30225 16.2161 1.2927 16.2023 1.28235L16.2056 1.28474Z" fill="#3399FF"/>
    <path d="M26.6311 27.8726C26.5721 27.8917 26.513 27.91 26.454 27.9292C25.9767 27.9506 25.4987 27.9897 25.0215 27.9904C20.9286 27.9952 16.8357 27.9928 12.7436 27.9936C12.6328 27.9936 12.522 27.9984 12.4112 28.0008C12.31 28.0008 12.2089 28.0008 12.1078 28.0008C9.32612 27.9992 6.54441 27.9984 3.7627 27.9944C3.53702 27.9944 3.31216 27.9658 3.08648 27.9506C2.57285 27.7111 2.01796 27.5312 1.55448 27.2199C0.747226 26.6778 0.23602 25.9033 0.0629212 24.9402C0.0249042 24.7308 0.00144695 24.5151 0.00144695 24.3026C-0.00017079 17.8192 -0.00178853 11.3366 0.00468244 4.8532C0.00468244 4.58654 0.0839518 4.31988 0.126013 4.05322C0.141382 3.99272 0.15675 3.93302 0.172119 3.87253C0.211754 3.79293 0.250579 3.71333 0.290214 3.63452C0.981799 2.09029 2.21452 1.3134 3.8994 1.2935C6.71427 1.26086 9.52914 1.28394 12.3448 1.28474C12.3812 1.28474 12.4176 1.29668 12.4985 1.31101C11.4656 1.92074 10.4715 2.50898 9.47495 3.09484C9.24847 3.22777 8.99205 3.3217 8.79226 3.48567C8.42099 3.79054 8.00442 3.85183 7.54256 3.84626C6.3519 3.83114 5.16124 3.85263 3.97058 3.8375C3.15766 3.82716 2.72573 4.31749 2.60682 4.84524C2.47012 5.4486 2.84706 6.11167 3.45695 6.30987C3.59445 6.35445 3.74652 6.37196 3.89212 6.37196C11.0959 6.37514 18.3005 6.37355 25.5044 6.37833C25.8829 6.37833 26.2615 6.42449 26.64 6.44837C26.7031 6.4834 26.767 6.51842 26.8301 6.55345C27.7021 6.95702 28.1752 7.6758 28.4357 8.5514C28.4753 8.68433 28.4244 8.84114 28.4244 8.98681C28.4228 9.79873 28.4236 10.6106 28.4236 11.4655C28.2982 11.4655 28.1914 11.4647 28.0855 11.4655C26.9466 11.4759 25.8061 11.4448 24.6704 11.5093C23.5121 11.5754 22.4614 11.9845 21.5514 12.7169C20.6074 13.477 19.9401 14.4179 19.6085 15.5777C19.3901 16.3418 19.3286 17.1123 19.4225 17.9099C19.5705 19.1644 20.1157 20.2311 20.9747 21.1282C21.8313 22.0229 22.9046 22.5952 24.1446 22.8093C24.5636 22.8817 24.9996 22.8762 25.4275 22.8809C26.4135 22.8905 27.3995 22.8841 28.4228 22.8841C28.4228 23.0736 28.4244 23.2383 28.4228 23.4039C28.4139 24.2461 28.4656 25.0962 28.3686 25.9288C28.3225 26.326 28.045 26.7304 27.7797 27.0599C27.5484 27.3473 27.1876 27.5327 26.8843 27.7636C26.8633 27.7795 26.8422 27.7954 26.8212 27.8113C26.7808 27.8185 26.7395 27.8257 26.6991 27.832C26.6756 27.8464 26.6521 27.8607 26.6287 27.875L26.6303 27.8734L26.6311 27.8726Z" fill="#3399FF"/>
</svg>
