<svg width="315" height="122" viewBox="0 0 315 122" fill="none" xmlns="http://www.w3.org/2000/svg">
    <g filter="url(#filter0_d_701_57)">
        <path d="M79.1599 106L65.9999 66.24L52.9799 106H33.9399L10.6999 36H31.1399L44.4399 80.8L58.5799 36H73.2799L87.5599 80.8L100.72 36H121.3L98.1999 106H79.1599ZM182.896 97.04C175.709 104.04 167.029 107.54 156.856 107.54C146.682 107.54 138.002 104.04 130.816 97.04C123.629 89.9467 120.036 81.2667 120.036 71C120.036 60.8267 123.629 52.1933 130.816 45.1C138.002 38.0067 146.682 34.46 156.856 34.46C167.029 34.46 175.709 38.0067 182.896 45.1C190.082 52.1933 193.676 60.8267 193.676 71C193.676 81.2667 190.082 89.9467 182.896 97.04ZM156.856 89.62C161.802 89.62 165.909 87.8933 169.176 84.44C172.536 80.8933 174.216 76.4133 174.216 71C174.216 65.5867 172.536 61.1533 169.176 57.7C165.909 54.1533 161.802 52.38 156.856 52.38C151.816 52.38 147.616 54.1533 144.256 57.7C140.989 61.1533 139.356 65.5867 139.356 71C139.356 76.4133 140.989 80.8933 144.256 84.44C147.616 87.8933 151.816 89.62 156.856 89.62ZM201.907 106V36H221.087V43.98C225.38 37.6333 232.054 34.46 241.107 34.46C249.507 34.46 256.087 37.26 260.847 42.86C265.7 48.3667 268.127 55.74 268.127 64.98V106H248.947V68.2C248.947 63.0667 247.874 59.1 245.727 56.3C243.58 53.4067 240.547 51.96 236.627 51.96C231.96 51.96 228.18 53.64 225.287 57C222.487 60.36 221.087 65.3067 221.087 71.84V106H201.907ZM285.016 70.16L281.376 43.84V6.59999H300.696V43.84L296.916 70.16H285.016ZM290.896 107.12C286.976 107.12 283.662 105.767 280.956 103.06C278.249 100.353 276.896 97.04 276.896 93.12C276.896 89.2 278.249 85.8867 280.956 83.18C283.662 80.4733 286.976 79.12 290.896 79.12C294.722 79.12 297.989 80.52 300.696 83.32C303.496 86.0267 304.896 89.2933 304.896 93.12C304.896 96.9467 303.496 100.26 300.696 103.06C297.989 105.767 294.722 107.12 290.896 107.12Z" fill="white"/>
    </g>
    <defs>
        <filter id="filter0_d_701_57" x="0.699829" y="0.599991" width="314.196" height="120.94" filterUnits="userSpaceOnUse" color-interpolation-filters="sRGB">
            <feFlood flood-opacity="0" result="BackgroundImageFix"/>
            <feColorMatrix in="SourceAlpha" type="matrix" values="0 0 0 0 0 0 0 0 0 0 0 0 0 0 0 0 0 0 127 0" result="hardAlpha"/>
            <feOffset dy="4"/>
            <feGaussianBlur stdDeviation="5"/>
            <feComposite in2="hardAlpha" operator="out"/>
            <feColorMatrix type="matrix" values="0 0 0 0 0.2 0 0 0 0 0.2 0 0 0 0 0.788235 0 0 0 0.5 0"/>
            <feBlend mode="normal" in2="BackgroundImageFix" result="effect1_dropShadow_701_57"/>
            <feBlend mode="normal" in="SourceGraphic" in2="effect1_dropShadow_701_57" result="shape"/>
        </filter>
    </defs>
</svg>
