<svg width="264" height="162" viewBox="0 0 264 162" fill="none" xmlns="http://www.w3.org/2000/svg">
    <g filter="url(#filter0_d_0_1)">
        <path d="M39.76 119.54C26.5067 119.54 16.8933 115.06 10.92 106.1L24.08 94.9C27.44 100.313 32.6667 103.02 39.76 103.02C41.9067 103.02 43.7267 102.6 45.22 101.76C46.7133 100.92 47.46 99.66 47.46 97.98C47.46 96.4866 46.8067 95.2733 45.5 94.34C44.2867 93.3133 41.8134 92.2866 38.08 91.26L32.9 90C26.46 88.32 21.56 85.52 18.2 81.6C14.9333 77.68 13.3933 73.0133 13.58 67.6C13.7667 61.2533 16.2867 56.1666 21.14 52.34C26.0867 48.42 32.34 46.46 39.9 46.46C50.6334 46.46 58.7067 50.38 64.12 58.22L51.52 68.44C48.2534 64.3333 44.2867 62.28 39.62 62.28C37.7534 62.28 36.12 62.7 34.72 63.54C33.32 64.38 32.62 65.5466 32.62 67.04C32.62 69.84 34.9067 71.8466 39.48 73.06L46.06 75.02C59.5934 78.66 66.36 85.8933 66.36 96.72C66.36 103.347 63.84 108.807 58.8 113.1C53.76 117.393 47.4134 119.54 39.76 119.54ZM94.0778 147.26H74.8978V48H94.0778V55.84C95.8512 53.32 98.5578 51.1266 102.198 49.26C105.838 47.3933 109.898 46.46 114.378 46.46C123.618 46.46 131.411 50.0533 137.758 57.24C144.104 64.4266 147.278 73.0133 147.278 83C147.278 92.9866 144.104 101.573 137.758 108.76C131.411 115.947 123.618 119.54 114.378 119.54C109.898 119.54 105.838 118.607 102.198 116.74C98.5578 114.873 95.8512 112.68 94.0778 110.16V147.26ZM97.2978 96.72C100.564 100.267 104.858 102.04 110.178 102.04C115.498 102.04 119.744 100.267 122.918 96.72C126.184 93.1733 127.818 88.6 127.818 83C127.818 77.4 126.184 72.8266 122.918 69.28C119.744 65.7333 115.498 63.96 110.178 63.96C104.858 63.96 100.564 65.7333 97.2978 69.28C94.1245 72.8266 92.5378 77.4 92.5378 83C92.5378 88.6 94.1245 93.1733 97.2978 96.72ZM165.224 36.52C161.957 36.52 159.111 35.3533 156.684 33.02C154.257 30.5933 153.044 27.7 153.044 24.34C153.044 20.98 154.257 18.1333 156.684 15.8C159.111 13.3733 161.957 12.16 165.224 12.16C168.677 12.16 171.571 13.3733 173.904 15.8C176.331 18.1333 177.544 20.98 177.544 24.34C177.544 27.7 176.331 30.5933 173.904 33.02C171.571 35.3533 168.677 36.52 165.224 36.52ZM155.704 118V48H174.884V118H155.704ZM187.702 118V48H206.882V55.98C211.175 49.6333 217.848 46.46 226.902 46.46C235.302 46.46 241.882 49.26 246.642 54.86C251.495 60.3666 253.922 67.74 253.922 76.98V118H234.742V80.2C234.742 75.0666 233.668 71.1 231.522 68.3C229.375 65.4066 226.342 63.96 222.422 63.96C217.755 63.96 213.975 65.64 211.082 69C208.282 72.36 206.882 77.3066 206.882 83.84V118H187.702Z" fill="white"/>
    </g>
    <g filter="url(#filter1_d_0_1)">
        <path d="M25.3201 32.24C23.0801 32.24 21.2401 31.6266 19.8001 30.4C18.3867 29.1466 17.6801 27.3466 17.6801 25V16.8H13.6401V12H17.6801V6.43997H23.1601V12H28.8001V16.8H23.1601V23.92C23.1601 25.1466 23.4267 26.0266 23.9601 26.56C24.4934 27.0666 25.3601 27.32 26.5601 27.32C27.4134 27.32 28.1601 27.2 28.8001 26.96V31.8C27.8401 32.0933 26.6801 32.24 25.3201 32.24ZM38.957 32.44C36.317 32.44 34.0903 31.4133 32.277 29.36C30.4636 27.3066 29.557 24.8533 29.557 22C29.557 19.1466 30.4636 16.6933 32.277 14.64C34.0903 12.5866 36.317 11.56 38.957 11.56C40.237 11.56 41.3836 11.8266 42.397 12.36C43.4103 12.8933 44.1836 13.52 44.717 14.24V12H50.197V32H44.717V29.76C44.1836 30.48 43.4103 31.1066 42.397 31.64C41.3836 32.1733 40.237 32.44 38.957 32.44ZM36.437 25.92C37.3703 26.9333 38.597 27.44 40.117 27.44C41.637 27.44 42.8503 26.9333 43.757 25.92C44.6903 24.9066 45.157 23.6 45.157 22C45.157 20.4 44.6903 19.0933 43.757 18.08C42.8503 17.0666 41.637 16.56 40.117 16.56C38.597 16.56 37.3703 17.0666 36.437 18.08C35.5303 19.0933 35.077 20.4 35.077 22C35.077 23.6 35.5303 24.9066 36.437 25.92ZM59.4045 40.36H53.9245V12H59.4045V14.24C59.9111 13.52 60.6845 12.8933 61.7245 12.36C62.7645 11.8266 63.9245 11.56 65.2045 11.56C67.8445 11.56 70.0711 12.5866 71.8845 14.64C73.6978 16.6933 74.6045 19.1466 74.6045 22C74.6045 24.8533 73.6978 27.3066 71.8845 29.36C70.0711 31.4133 67.8445 32.44 65.2045 32.44C63.9245 32.44 62.7645 32.1733 61.7245 31.64C60.6845 31.1066 59.9111 30.48 59.4045 29.76V40.36ZM60.3245 25.92C61.2578 26.9333 62.4845 27.44 64.0045 27.44C65.5245 27.44 66.7378 26.9333 67.6445 25.92C68.5778 24.9066 69.0445 23.6 69.0445 22C69.0445 20.4 68.5778 19.0933 67.6445 18.08C66.7378 17.0666 65.5245 16.56 64.0045 16.56C62.4845 16.56 61.2578 17.0666 60.3245 18.08C59.4178 19.0933 58.9645 20.4 58.9645 22C58.9645 23.6 59.4178 24.9066 60.3245 25.92ZM93.5295 32.24C91.2895 32.24 89.4494 31.6266 88.0094 30.4C86.5961 29.1466 85.8895 27.3466 85.8895 25V16.8H81.8494V12H85.8895V6.43997H91.3695V12H97.0095V16.8H91.3695V23.92C91.3695 25.1466 91.6361 26.0266 92.1695 26.56C92.7028 27.0666 93.5694 27.32 94.7695 27.32C95.6228 27.32 96.3695 27.2 97.0095 26.96V31.8C96.0495 32.0933 94.8895 32.24 93.5295 32.24ZM115.686 29.44C113.633 31.44 111.153 32.44 108.246 32.44C105.34 32.44 102.86 31.44 100.806 29.44C98.753 27.4133 97.7263 24.9333 97.7263 22C97.7263 19.0933 98.753 16.6266 100.806 14.6C102.86 12.5733 105.34 11.56 108.246 11.56C111.153 11.56 113.633 12.5733 115.686 14.6C117.74 16.6266 118.766 19.0933 118.766 22C118.766 24.9333 117.74 27.4133 115.686 29.44ZM108.246 27.32C109.66 27.32 110.833 26.8266 111.766 25.84C112.726 24.8266 113.206 23.5466 113.206 22C113.206 20.4533 112.726 19.1866 111.766 18.2C110.833 17.1866 109.66 16.68 108.246 16.68C106.806 16.68 105.606 17.1866 104.646 18.2C103.713 19.1866 103.246 20.4533 103.246 22C103.246 23.5466 103.713 24.8266 104.646 25.84C105.606 26.8266 106.806 27.32 108.246 27.32Z" fill="white"/>
    </g>
    <defs>
        <filter id="filter0_d_0_1" x="0.920013" y="6.15997" width="263.002" height="155.1" filterUnits="userSpaceOnUse" color-interpolation-filters="sRGB">
            <feFlood flood-opacity="0" result="BackgroundImageFix"/>
            <feColorMatrix in="SourceAlpha" type="matrix" values="0 0 0 0 0 0 0 0 0 0 0 0 0 0 0 0 0 0 127 0" result="hardAlpha"/>
            <feOffset dy="4"/>
            <feGaussianBlur stdDeviation="5"/>
            <feComposite in2="hardAlpha" operator="out"/>
            <feColorMatrix type="matrix" values="0 0 0 0 0.2 0 0 0 0 0.2 0 0 0 0 0.788235 0 0 0 0.5 0"/>
            <feBlend mode="normal" in2="BackgroundImageFix" result="effect1_dropShadow_0_1"/>
            <feBlend mode="normal" in="SourceGraphic" in2="effect1_dropShadow_0_1" result="shape"/>
        </filter>
        <filter id="filter1_d_0_1" x="3.64008" y="0.439972" width="125.126" height="53.92" filterUnits="userSpaceOnUse" color-interpolation-filters="sRGB">
            <feFlood flood-opacity="0" result="BackgroundImageFix"/>
            <feColorMatrix in="SourceAlpha" type="matrix" values="0 0 0 0 0 0 0 0 0 0 0 0 0 0 0 0 0 0 127 0" result="hardAlpha"/>
            <feOffset dy="4"/>
            <feGaussianBlur stdDeviation="5"/>
            <feComposite in2="hardAlpha" operator="out"/>
            <feColorMatrix type="matrix" values="0 0 0 0 0.2 0 0 0 0 0.2 0 0 0 0 0.788235 0 0 0 0.5 0"/>
            <feBlend mode="normal" in2="BackgroundImageFix" result="effect1_dropShadow_0_1"/>
            <feBlend mode="normal" in="SourceGraphic" in2="effect1_dropShadow_0_1" result="shape"/>
        </filter>
    </defs>
</svg>
