<?xml version="1.0" encoding="UTF-8" standalone="no"?>
<!-- Created with Inkscape (http://www.inkscape.org/) -->

<svg
   width="500"
   height="500"
   viewBox="0 0 132.29166 132.29167"
   version="1.1"
   id="svg5"
   inkscape:version="1.1.2 (0a00cf5339, 2022-02-04)"
   sodipodi:docname="wheeÄ.svg"
   xmlns:inkscape="http://www.inkscape.org/namespaces/inkscape"
   xmlns:sodipodi="http://sodipodi.sourceforge.net/DTD/sodipodi-0.dtd"
   xmlns:xlink="http://www.w3.org/1999/xlink"
   xmlns="http://www.w3.org/2000/svg"
   xmlns:svg="http://www.w3.org/2000/svg">
  <sodipodi:namedview
     id="namedview7"
     pagecolor="#ffffff"
     bordercolor="#666666"
     borderopacity="1.0"
     inkscape:pageshadow="2"
     inkscape:pageopacity="0.0"
     inkscape:pagecheckerboard="0"
     inkscape:document-units="mm"
     showgrid="false"
     units="px"
     width="500px"
     inkscape:zoom="1.1474186"
     inkscape:cx="164.71756"
     inkscape:cy="234.87504"
     inkscape:window-width="2516"
     inkscape:window-height="1411"
     inkscape:window-x="0"
     inkscape:window-y="0"
     inkscape:window-maximized="1"
     inkscape:current-layer="layer1" />
  <defs
     id="defs2">
    <linearGradient
       id="linearGradient1166"
       inkscape:swatch="gradient">
      <stop
         style="stop-color:#00acff;stop-opacity:1;"
         offset="0"
         id="stop1162" />
      <stop
         style="stop-color:#ff9eff;stop-opacity:0;"
         offset="1"
         id="stop1164" />
    </linearGradient>
    <linearGradient
       inkscape:collect="always"
       xlink:href="#linearGradient1166"
       id="linearGradient1176"
       gradientUnits="userSpaceOnUse"
       x1="5.9807405"
       y1="68.148407"
       x2="129.25182"
       y2="68.148407"
       gradientTransform="translate(-0.75949476,-2.6107456)" />
    <clipPath
       clipPathUnits="userSpaceOnUse"
       id="clipPath1232">
      <path
         d="m 41.2,115.058 h 512.899 v 67.7 H 41.2 Z"
         clip-rule="evenodd"
         id="path1230" />
    </clipPath>
  </defs>
  <g
     inkscape:label="Layer 1"
     inkscape:groupmode="layer"
     id="layer1">
    <circle
       style="fill:url(#linearGradient1176);fill-opacity:1;stroke:#000000;stroke-width:1.11125;stroke-linecap:round;stroke-opacity:1"
       id="path846"
       cx="66.856781"
       cy="65.537659"
       r="61.079914" />
    <g
       id="g1226"
       transform="matrix(0.21724614,0,0,-0.21724614,2.11182,98.446632)">
      <g
         id="g1228"
         clip-path="url(#clipPath1232)">
        <path
           d="m 148.25,168.858 c 10.45,0 18,-8 18,-18.25 0,-10.3 -7.55,-18.25 -18,-18.25 -10.5,0 -17.95,7.95 -17.95,18.25 0,10.25 7.45,18.25 17.95,18.25 z m 0,-29.75 c 6.55,0 11.15,4.95 11.15,11.4 0,6.5 -4.6,11.45 -11.15,11.45 -6.55,0 -11.15,-4.95 -11.15,-11.45 0,-6.45 4.65,-11.4 11.15,-11.4 z"
           style="fill:#3333c9;fill-opacity:1;fill-rule:evenodd;stroke:none"
           id="path1234" />
        <path
           d="m 190.45,137.858 h -12.9 l -1.65,-5.05 h -6.8 l 11.5,35.45 h 7.05 l 11.4,-35.45 h -6.95 z m -2.15,6.7 -4.3,13.45 -4.3,-13.45 z"
           style="fill:#3333c9;fill-opacity:1;fill-rule:evenodd;stroke:none"
           id="path1236" />
        <path
           d="m 215.8,162.208 c -3.35,0 -5.5,-1.85 -5.5,-4.25 0,-1.55 0.95,-2.6 2.45,-3.2 2.25,-0.8 5.65,-0.35 9,-1.35 4.4,-1.35 7.15,-4.85 7.15,-9.6 0,-6.7 -5.05,-11.6 -12.7,-11.6 -7.7,0 -13,4.65 -13,11.35 h 6.8 c 0,-2.8 2.7,-4.7 6.25,-4.7 3.55,0 5.85,2 5.85,4.55 0,1.8 -1.1,2.9 -2.5,3.4 -2.25,0.8 -5.9,0.55 -9.05,1.45 -4.6,1.3 -7.1,4.85 -7.1,9.35 0,6.5 5.05,11.2 12.4,11.2 7.35,0 12.5,-4.45 12.5,-10.95 h -6.85 c 0,2.7 -2.35,4.35 -5.7,4.35 z"
           style="fill:#3333c9;fill-opacity:1;fill-rule:evenodd;stroke:none"
           id="path1238" />
        <path
           d="m 236,168.258 h 6.85 v -35.45 H 236 Z"
           style="fill:#3333c9;fill-opacity:1;fill-rule:evenodd;stroke:none"
           id="path1240" />
        <path
           d="m 262.7,162.208 c -3.4,0 -5.5,-1.85 -5.5,-4.25 0,-1.55 0.95,-2.6 2.45,-3.2 2.2,-0.8 5.65,-0.35 8.95,-1.35 4.45,-1.35 7.15,-4.85 7.15,-9.6 0,-6.7 -5.05,-11.6 -12.7,-11.6 -7.65,0 -12.95,4.65 -12.95,11.35 h 6.8 c 0,-2.8 2.65,-4.7 6.2,-4.7 3.55,0 5.9,2 5.9,4.55 0,1.8 -1.15,2.9 -2.5,3.4 -2.25,0.8 -5.95,0.55 -9.05,1.45 -4.6,1.3 -7.1,4.85 -7.1,9.35 0,6.5 5.05,11.2 12.4,11.2 7.35,0 12.45,-4.45 12.45,-10.95 h -6.85 c 0,2.7 -2.3,4.35 -5.65,4.35 z"
           style="fill:#3333c9;fill-opacity:1;fill-rule:evenodd;stroke:none"
           id="path1242" />
        <path
           d="m 326.3,168.258 v -35.45 h -6.75 l -14.6,23.15 v -23.15 h -6.8 v 35.45 h 6.8 l 14.6,-23.2 v 23.2 z"
           style="fill:#3333c9;fill-opacity:1;fill-rule:evenodd;stroke:none"
           id="path1244" />
        <path
           d="m 335.1,168.258 h 27.15 v -6.75 H 341.9 v -7.45 h 11.3 v -6.75 h -11.3 v -7.6 h 20.35 v -6.8 H 335.1 Z"
           style="fill:#3333c9;fill-opacity:1;fill-rule:evenodd;stroke:none"
           id="path1246" />
        <path
           d="m 377.6,161.508 h -10.15 v 6.75 h 27.15 v -6.75 h -10.2 v -28.7 h -6.85 z"
           style="fill:#3333c9;fill-opacity:1;fill-rule:evenodd;stroke:none"
           id="path1248" />
        <path
           d="m 444.05,168.258 -9.95,-35.45 h -7.25 l -5.6,19.6 -5.55,-19.6 h -7.15 l -10.05,35.45 h 7.05 l 6.65,-24.75 6.7,24.75 h 4.8 l 6.6,-24.5 6.85,24.5 z"
           style="fill:#3333c9;fill-opacity:1;fill-rule:evenodd;stroke:none"
           id="path1250" />
        <path
           d="m 465.3,168.858 c 10.5,0 18.05,-8 18.05,-18.25 0,-10.3 -7.55,-18.25 -18.05,-18.25 -10.45,0 -17.95,7.95 -17.95,18.25 0,10.25 7.5,18.25 17.95,18.25 z m 0,-29.75 c 6.55,0 11.2,4.95 11.2,11.4 0,6.5 -4.65,11.45 -11.2,11.45 -6.5,0 -11.15,-4.95 -11.15,-11.45 0,-6.45 4.7,-11.4 11.15,-11.4 z"
           style="fill:#3333c9;fill-opacity:1;fill-rule:evenodd;stroke:none"
           id="path1252" />
        <path
           d="m 503.85,143.358 h -6.4 v -10.5 h -6.9 v 35.5 h 14.85 c 7.35,0 12.6,-5.3 12.6,-12.5 0,-5.05 -2.6,-9.25 -6.8,-11.15 l 7.5,-11.8 h -8.05 z m -6.4,6.75 h 8.1 c 3.35,0 5.65,2.4 5.65,5.7 0,3.3 -2.3,5.7 -5.6,5.7 h -8.1 z"
           style="fill:#3333c9;fill-opacity:1;fill-rule:evenodd;stroke:none"
           id="path1254" />
        <path
           d="m 544.5,132.808 -12.05,16.05 v -16.05 h -6.85 v 35.45 h 6.85 v -15.95 l 12.05,15.95 h 8.4 l -13.4,-17.55 13.6,-17.9 z"
           style="fill:#3333c9;fill-opacity:1;fill-rule:evenodd;stroke:none"
           id="path1256" />
        <path
           d="m 99.1,168.258 c -4.8,6.25 -11.75,10.15 -19.55,10.15 -15.05,0 -26,-14.2 -26,-29.6 0,-10.7 7,-18.75 14.8,-18.75 0.75,0 1.4,0.05 2.15,0.2 -5.25,3.9 -8.6,11 -8.6,18.6 0,12.2 8.1,21.65 17.65,21.65 10.4,0 17.65,-10.55 17.65,-21.65 0,-8.2 -2.95,-16.4 -8,-22.4 -4.4,-5.25 -10.15,-8.65 -16.45,-9.65 0,0 0.5,-0.05 1.2,-0.05 17.45,0 31.6,14.4 31.6,32.1 0,7.3 -2.4,14.05 -6.45,19.4 z m -4.8,-19.4 c 0,10.75 -6.95,18.8 -14.75,18.8 -0.75,0 -1.45,-0.1 -2.2,-0.2 5.25,-3.85 8.55,-10.9 8.55,-18.6 0,-12.15 -8.1,-21.6 -17.65,-21.6 -10.4,0 -17.65,10.55 -17.65,21.6 0,8.25 2.95,16.45 8,22.45 4.45,5.25 10.15,8.65 16.45,9.65 0,0 -0.5,0.05 -1.25,0.05 -17.45,0 -31.6,-14.4 -31.6,-32.15 0,-7.25 2.4,-14 6.45,-19.35 4.8,-6.25 11.8,-10.15 19.55,-10.15 15.15,-0.05 26.1,14.1 26.1,29.5 z"
           style="fill:#3333c9;fill-opacity:1;fill-rule:evenodd;stroke:none"
           id="path1258" />
      </g>
    </g>
  </g>
</svg>
