<svg width="82" height="63" viewBox="0 0 82 63" fill="none" xmlns="http://www.w3.org/2000/svg">
    <path d="M67.3873 9.54269C62.4623 5.8928 56.8118 3.59249 50.8498 2.78089C50.8033 1.79305 49.9848 1 48.9802 1H45.3156C44.3948 1 43.6274 1.66783 43.474 2.54436C34.4797 3.20756 25.8947 7.37223 20.0164 14.0366C14.2217 20.6037 13.4683 31.7945 13.4637 40.8334C12.1522 42.4566 8.78055 46.5749 7.39467 47.8596C2.62317 52.2886 0.665268 55.2289 1.04662 57.3855C1.16753 58.0579 1.57678 58.9762 2.86965 59.5188C3.22309 59.6672 3.59979 59.7414 3.99044 59.7414C5.72046 59.7414 7.83183 58.2852 10.3943 55.3356C12.4545 52.9657 14.0776 50.4706 14.2078 50.2758C18.1375 50.67 22.2766 52.2469 24.839 53.5686C25.9133 54.1205 27.1318 54.8672 28.42 55.651C32.852 58.3547 38.8187 62 45.9388 62C46.4178 62 46.8968 61.9814 47.3851 61.949C58.8162 61.0817 67.4059 47.6602 69.0429 44.9146C74.6469 45.55 79.2881 45.9999 79.3626 46.0091C79.9485 46.0648 80.474 45.6659 80.581 45.0909L80.6415 44.7523C80.6461 44.7245 80.6508 44.692 80.6554 44.6642C82.7807 23.8222 74.6794 14.9456 67.3826 9.54269H67.3873ZM21.7092 15.5207C25.904 10.7624 31.587 7.3676 37.7863 5.75831C34.4937 8.2163 32.8101 11.0917 32.7032 11.2818C32.3962 11.8198 32.5823 12.5062 33.1217 12.8123C33.2985 12.9143 33.4891 12.9607 33.6798 12.9607C34.0705 12.9607 34.4518 12.7566 34.6564 12.3949C34.6936 12.33 38.4002 6.04585 45.4691 4.73337H47.4456C48.0548 4.7612 48.664 4.7983 49.2686 4.85395C53.2634 5.82787 58.593 13.0627 59.2255 20.4367C59.7743 26.8878 60.2672 35.5835 59.6301 41.4827C59.0441 41.3992 58.4628 41.3204 57.9047 41.2369C54.5145 40.7407 50.4591 39.8595 46.1666 38.9273C39.3396 37.4432 32.28 35.9128 27.3225 35.834C27.1969 35.834 27.0713 35.834 26.9458 35.834C21.5836 35.834 17.7422 37.638 15.7332 38.8809C15.8494 30.6351 16.8028 21.0767 21.7092 15.5161V15.5207ZM8.69219 53.8654C6.03205 56.9263 4.36714 57.7101 3.74861 57.4504C3.3161 57.2695 3.28355 57.084 3.26495 56.9959C3.20449 56.6481 3.29285 55.4608 5.87858 52.5715C7.28771 51.0411 9.29676 50.3593 11.5244 50.2155C10.8594 51.1616 9.84088 52.5437 8.69219 53.8654ZM47.2223 59.709C40.186 60.2006 34.3123 56.6156 29.5966 53.7356C28.2712 52.9286 27.0248 52.1634 25.8715 51.5744C21.9836 49.5755 15.589 47.3633 10.2873 48.0915C12.3196 45.8422 15.1891 42.2804 15.6913 41.6543C16.254 41.1998 20.4582 37.9905 27.2852 38.0879C32.0149 38.1621 38.9675 39.6694 45.683 41.1302C50.0127 42.0717 54.1052 42.9575 57.5699 43.4677C58.3884 43.5882 59.2441 43.7088 60.1184 43.8248C60.2161 43.8711 60.3184 43.9036 60.4254 43.9221C60.4812 43.9314 60.5323 43.9361 60.5881 43.9361C60.6579 43.9361 60.723 43.9314 60.7881 43.9175C62.6716 44.1679 64.6388 44.4091 66.5595 44.6364C64.1598 48.3697 56.5328 59.0087 47.2177 59.7136L47.2223 59.709ZM78.4882 43.6624C75.763 43.3888 68.4197 42.6375 61.8577 41.7795C62.5274 35.6809 62.0298 26.8089 61.4671 20.2419C61.0113 14.9178 58.2721 9.34791 54.8911 5.89744C58.8721 6.99658 62.639 8.82384 66.0386 11.3421C72.768 16.323 80.2276 24.4947 78.4882 43.6624Z" fill="#3399FF" stroke="#3399FF" stroke-width="2"/>
</svg>
