<svg width="72" height="96" viewBox="0 0 72 96" fill="none" xmlns="http://www.w3.org/2000/svg">
    <path d="M18.9503 55.7433C19.4342 55.8139 19.9181 55.8475 20.3984 55.8475C23.4149 55.8475 26.3395 54.4823 28.7573 51.9109C30.6788 49.8693 32.2188 47.4657 33.335 44.7689C33.3721 44.6806 33.4021 44.5905 33.4374 44.5022C34.2975 44.7442 35.1699 44.8678 36.0318 44.8678C39.8359 44.8678 43.4528 42.6125 44.9981 38.8843C45.5103 37.6481 45.747 36.3659 45.7346 35.1067C45.8282 35.0925 45.92 35.0749 46.0154 35.0625C48.6239 34.7199 51.1918 34.8365 53.6431 35.414C56.8556 36.1699 59.1921 38.0013 60.2164 40.5709C61.2443 43.1423 60.8558 46.1111 59.1515 48.7125C55.0878 54.915 49.129 57.3222 45.9377 55.9976C44.1893 55.2717 43.5235 53.4598 44.0639 50.8954C44.373 49.4313 44.4348 48.0185 44.2476 46.6921C44.1575 46.0493 43.5606 45.5989 42.9177 45.6908C42.2731 45.7808 41.8263 46.3778 41.9163 47.0206C42.0647 48.0732 42.0117 49.2141 41.7592 50.4097C40.9821 54.0955 42.206 56.9972 45.0335 58.1716C45.8776 58.5231 46.8472 58.7032 47.8963 58.7032C51.9371 58.7032 57.177 56.0223 61.1207 50.0018C63.2205 46.7963 63.6991 42.9445 62.4028 39.6967C61.0836 36.3924 58.1643 34.0576 54.1818 33.1198C51.4532 32.477 48.6009 32.3445 45.7081 32.726C45.611 32.7384 45.5156 32.7578 45.4185 32.7719C44.6838 29.9215 42.6775 27.4331 39.7547 26.2215C36.8442 25.0153 33.6793 25.3491 31.1486 26.8291C31.0867 26.7514 31.0232 26.6754 30.9614 26.5959C29.3595 24.5084 28.178 22.2267 27.4522 19.816C26.5002 16.6547 26.9188 13.7159 28.6319 11.5437C30.345 9.36785 33.1107 8.22343 36.2154 8.39651C43.6188 8.8133 48.6839 12.7711 49.1308 16.1973C49.3762 18.0746 48.1382 19.5564 45.6498 20.3705C44.2281 20.835 42.9725 21.4884 41.9163 22.3132C41.4042 22.7141 41.3141 23.4541 41.7132 23.9663C42.1141 24.4784 42.8541 24.5685 43.3663 24.1694C44.2052 23.5141 45.2189 22.9896 46.3792 22.6099C49.9591 21.4408 51.8611 18.9294 51.4638 15.8935C50.8915 11.5013 45.3973 6.55625 36.3461 6.04586C32.519 5.82863 28.9445 7.34216 26.7811 10.0866C24.5788 12.8806 24.0171 16.577 25.1969 20.4959C26.0057 23.1803 27.3162 25.7164 29.0928 28.03C29.1511 28.1042 29.2112 28.1748 29.2695 28.249C28.3599 29.1373 27.6093 30.2182 27.0919 31.465C25.2022 36.0268 27.0742 41.2173 31.2634 43.5944C31.228 43.6845 31.1962 43.7763 31.1592 43.8664C30.1525 46.2983 28.7661 48.4618 27.0407 50.2949C24.7783 52.7003 22.025 53.8041 19.2876 53.4103C16.5466 53.0129 14.1713 51.1939 12.7708 48.4176C9.4311 41.7966 10.3247 35.4316 13.0692 33.3318C14.5739 32.1803 16.4742 32.5105 18.424 34.2607C19.4465 35.1791 20.5397 35.8979 21.6718 36.3959C22.267 36.6555 22.961 36.3871 23.2242 35.7919C23.4855 35.1967 23.2153 34.5027 22.6202 34.2395C21.7159 33.8422 20.8347 33.2594 19.9975 32.5088C17.1948 29.9939 14.0706 29.6018 11.6387 31.4633C8.12067 34.1565 6.58595 41.3851 10.6691 49.479C12.3946 52.8999 15.4905 55.2417 18.952 55.7415L18.9503 55.7433ZM29.2677 32.3692C30.8148 28.6322 35.1152 26.8503 38.8522 28.3991C42.5892 29.948 44.3712 34.2466 42.8223 37.9854C42.0718 39.7956 40.6624 41.2049 38.8522 41.9555C37.042 42.7061 35.0481 42.7061 33.2378 41.9555C29.5008 40.4067 27.7188 36.108 29.2677 32.3692Z" fill="#3399FF" stroke="#3399FF" stroke-width="1.7"/>
    <path d="M36.0458 69.6317C40.4133 69.6317 44.8532 68.7911 49.1324 67.0197C66.6131 59.7788 74.9437 39.6649 67.7028 22.1843C60.4636 4.70364 40.3497 -3.62871 22.8691 3.61221C5.38669 10.8531 -2.9439 30.967 4.29702 48.4476C9.7648 61.6491 22.5724 69.6317 36.0458 69.6317ZM6.47283 23.085C9.74007 15.1977 15.8825 9.05526 23.7698 5.78801C27.7576 4.13673 31.8902 3.35436 35.9593 3.35436C48.5073 3.35436 60.4353 10.7895 65.5287 23.085C72.2734 39.3665 64.5132 58.0993 48.2317 64.8439C40.3444 68.1111 31.6571 68.1094 23.7698 64.8439C15.8825 61.5767 9.74007 55.4342 6.47283 47.5469C3.20558 39.6596 3.20558 30.9723 6.47283 23.085Z" fill="#3399FF" stroke="#3399FF" stroke-width="1.7"/>
    <path d="M21.2161 84.148H30.0376C30.6876 84.148 31.2156 83.6199 31.2156 82.97V73.8215C31.2156 73.1715 30.6876 72.6435 30.0376 72.6435C29.3877 72.6435 28.8597 73.1698 28.8597 73.8215V81.7938H21.2143C14.9183 81.7938 9.79663 86.9154 9.79663 93.2115C9.79663 93.8614 10.3229 94.3895 10.9746 94.3895H61.0288C61.6787 94.3895 62.2068 93.8632 62.2068 93.2115C62.2068 86.9154 57.0851 81.7938 50.7891 81.7938H43.2355V73.8073C43.2355 73.1574 42.7093 72.6293 42.0576 72.6293C41.4059 72.6293 40.8796 73.1574 40.8796 73.8073V81.7938H36.256C35.6061 81.7938 35.078 82.3201 35.078 82.9718C35.078 83.6235 35.6043 84.1498 36.256 84.1498H50.7873C55.3862 84.1498 59.1956 87.5918 59.7749 92.0353H12.2268C12.806 87.5918 16.6155 84.1498 21.2143 84.1498L21.2161 84.148Z" fill="#3399FF" stroke="#3399FF" stroke-width="1.7"/>
</svg>
