<svg width="71" height="86" viewBox="0 0 71 86" fill="none" xmlns="http://www.w3.org/2000/svg">
    <path d="M35.5002 22.7523C35.2885 22.7523 35.0807 22.7095 34.8808 22.6277C25.5893 18.6759 19.8145 12.1583 19.8145 5.6252C19.8145 3.6201 21.4414 0.95311 35.4963 0.95311C49.5511 0.95311 51.1781 3.6201 51.1781 5.6252C51.1781 12.1583 45.4072 18.6759 36.1157 22.6277C35.9197 22.7134 35.708 22.7523 35.4963 22.7523H35.5002ZM22.9547 5.76926C23.0449 10.8541 27.8161 16.0634 35.5002 19.4935C43.1843 16.0634 47.9555 10.8541 48.0457 5.76926C47.4889 5.23975 44.3996 4.06784 35.5002 4.06784C26.6008 4.06784 23.5114 5.24365 22.9547 5.76926Z" fill="#3399FF" stroke="#3399FF"/>
    <path d="M35.5004 22.7523C21.2418 22.7523 13.5459 17.138 13.5459 11.8547C13.5459 6.57131 21.0457 3.16457 21.9004 2.77134C22.6845 2.40925 23.6175 2.75187 23.9821 3.53444C24.3468 4.31702 24.0018 5.23976 23.2137 5.60185C21.5201 6.38053 16.6823 9.20714 16.6823 11.8547C16.6823 15.1173 23.2216 19.6376 35.5004 19.6376C47.7793 19.6376 54.3186 15.1173 54.3186 11.8547C54.3186 9.39013 49.9199 6.57909 47.7872 5.60185C46.9991 5.23976 46.6581 4.31702 47.0187 3.53444C47.3794 2.75187 48.3125 2.41314 49.1005 2.77134C49.9552 3.16457 57.455 6.74651 57.455 11.8547C57.455 16.9628 49.7591 22.7523 35.5004 22.7523Z" fill="#3399FF" stroke="#3399FF"/>
    <path d="M65.4211 78.942H62.1593C61.2929 78.942 60.5911 78.2451 60.5911 77.3846C60.5911 76.5242 61.2929 75.8273 62.1593 75.8273H65.3858C66.2013 75.7844 66.8638 75.0914 66.8638 74.2699V25.7736C66.8638 21.6894 64.4802 17.8583 60.795 16.0128L55.1887 13.2446C54.4125 12.863 54.0949 11.9286 54.483 11.1577C54.8672 10.3868 55.8121 10.0715 56.5844 10.4569L62.1985 13.229C66.9422 15.6001 70.0002 20.5253 70.0002 25.7736V74.2699C70.0002 76.7928 68.0164 78.8447 65.4799 78.942C65.4603 78.942 65.4407 78.942 65.4211 78.942Z" fill="#3399FF" stroke="#3399FF"/>
    <path d="M8.84115 78.942H5.57934C5.57934 78.942 5.54013 78.942 5.52053 78.942C2.98791 78.8486 1.00024 76.7967 1.00024 74.2699V25.7736C1.00024 20.5214 4.0582 15.6001 8.79411 13.2329L14.416 10.4569C15.1884 10.0754 16.1332 10.3868 16.5174 11.1577C16.9016 11.9286 16.588 12.8631 15.8117 13.2446L10.1976 16.0167C6.52024 17.8583 4.13661 21.6894 4.13661 25.7736V74.2699C4.13661 75.0914 4.79525 75.7845 5.61462 75.8273H8.84115C9.70758 75.8273 10.4093 76.5242 10.4093 77.3847C10.4093 78.2451 9.70758 78.942 8.84115 78.942Z" fill="#3399FF" stroke="#3399FF"/>
    <path d="M65.2955 85.0469H59.0228C58.1564 85.0469 57.4546 84.35 57.4546 83.4895C57.4546 82.6291 58.1564 81.9322 59.0228 81.9322H63.7273V77.3846C63.7273 76.5242 64.4291 75.8273 65.2955 75.8273C66.1619 75.8273 66.8637 76.5242 66.8637 77.3846V83.4895C66.8637 84.35 66.1619 85.0469 65.2955 85.0469Z" fill="#3399FF" stroke="#3399FF"/>
    <path d="M11.9776 85.0469H5.7049C4.83848 85.0469 4.13672 84.35 4.13672 83.4895V77.3846C4.13672 76.5242 4.83848 75.8273 5.7049 75.8273C6.57132 75.8273 7.27308 76.5242 7.27308 77.3846V81.9322H11.9776C12.8441 81.9322 13.5458 82.6291 13.5458 83.4895C13.5458 84.35 12.8441 85.0469 11.9776 85.0469Z" fill="#3399FF" stroke="#3399FF"/>
    <path d="M55.8867 75.7027H15.114C12.5186 75.7027 10.4094 73.608 10.4094 71.0306V30.9285C10.4094 30.068 11.1112 29.3711 11.9776 29.3711C12.844 29.3711 13.5458 30.068 13.5458 30.9285V71.0306C13.5458 71.891 14.2475 72.588 15.114 72.588H55.8867C56.7531 72.588 57.4549 71.891 57.4549 71.0306V30.9285C57.4549 30.068 58.1567 29.3711 59.0231 29.3711C59.8895 29.3711 60.5913 30.068 60.5913 30.9285V71.0306C60.5913 73.608 58.4821 75.7027 55.8867 75.7027Z" fill="#3399FF" stroke="#3399FF"/>
    <path d="M52.7505 81.936H18.2504C15.6551 81.936 13.5459 79.8414 13.5459 77.264V74.1453C13.5459 73.2849 14.2477 72.588 15.1141 72.588C15.9805 72.588 16.6823 73.2849 16.6823 74.1453V77.264C16.6823 78.1244 17.384 78.8213 18.2504 78.8213H52.7505C53.6169 78.8213 54.3186 78.1244 54.3186 77.264V74.1453C54.3186 73.2849 55.0204 72.588 55.8868 72.588C56.7532 72.588 57.455 73.2849 57.455 74.1453V77.264C57.455 79.8414 55.3458 81.936 52.7505 81.936Z" fill="#3399FF" stroke="#3399FF"/>
    <path d="M43.3411 35.2112C42.4747 35.2112 41.7729 34.5143 41.7729 33.6539V20.5097C41.7729 19.6493 42.4747 18.9523 43.3411 18.9523C44.2076 18.9523 44.9093 19.6493 44.9093 20.5097V33.6539C44.9093 34.5143 44.2076 35.2112 43.3411 35.2112Z" fill="#3399FF" stroke="#3399FF"/>
    <path d="M27.6592 35.2112C26.7928 35.2112 26.0911 34.5143 26.0911 33.6539V20.5097C26.0911 19.6493 26.7928 18.9523 27.6592 18.9523C28.5257 18.9523 29.2274 19.6493 29.2274 20.5097V33.6539C29.2274 34.5143 28.5257 35.2112 27.6592 35.2112Z" fill="#3399FF" stroke="#3399FF"/>
</svg>
