<svg width="68" height="75" viewBox="0 0 68 75" fill="none" xmlns="http://www.w3.org/2000/svg">
    <path d="M57.3832 73.9245C52.0812 73.9245 47.7673 69.6107 47.7673 64.3075C47.7673 63.6783 50.4565 1.51437 57.3832 1.51437C64.3099 1.51437 67.0002 63.6796 67.0002 64.3075C67.0002 69.6107 62.6864 73.9245 57.3832 73.9245ZM57.3832 4.82638C54.0787 11.4829 50.5615 56.948 50.5615 64.3062C50.5615 68.0685 53.6209 71.1291 57.3832 71.1291C61.1454 71.1291 64.2061 68.0685 64.2061 64.3062C64.2061 56.9467 60.6889 11.4829 57.3832 4.82638Z" fill="#3399FF" stroke="#3399FF" stroke-width="1.5"/>
    <path d="M45.2196 23.7066C45.1634 23.7066 45.1058 23.7041 45.0483 23.6966C44.2828 23.6028 43.7375 22.9048 43.8313 22.1394C46.3516 1.51437 48.4041 1.51437 49.9037 1.51437C50.6754 1.51437 51.3008 2.13975 51.3008 2.91147C51.3008 3.55186 50.8706 4.09094 50.2827 4.25604C49.8537 4.81513 48.4066 7.72939 46.6055 22.4783C46.5192 23.1863 45.9163 23.7053 45.2196 23.7053V23.7066Z" fill="#3399FF" stroke="#3399FF" stroke-width="1.5"/>
    <path d="M57.3832 4.30857H49.9037C49.132 4.30857 48.5066 3.68319 48.5066 2.91147C48.5066 2.13975 49.132 1.51437 49.9037 1.51437H57.3832C58.1549 1.51437 58.7803 2.13975 58.7803 2.91147C58.7803 3.68319 58.1549 4.30857 57.3832 4.30857Z" fill="#3399FF" stroke="#3399FF" stroke-width="1.5"/>
    <path d="M13.3315 23.7066C13.2752 23.7066 13.2176 23.7041 13.1601 23.6966C12.3946 23.6028 11.8493 22.9061 11.9431 22.1394C14.4596 1.51437 16.5146 1.51437 18.0143 1.51437C20.0818 1.51437 21.5427 3.82578 23.34 16.0232C23.4538 16.7861 22.9248 17.4966 22.1618 17.6091C21.4014 17.728 20.6884 17.1939 20.5758 16.4309C19.4777 8.98515 18.5621 6.04712 18.0418 4.89517C17.4002 6.35106 16.1732 10.5311 14.716 22.4783C14.6297 23.1863 14.0269 23.7053 13.3302 23.7053L13.3315 23.7066Z" fill="#3399FF" stroke="#3399FF" stroke-width="1.5"/>
    <path d="M18.0143 4.30857H10.5348C9.76308 4.30857 9.1377 3.68319 9.1377 2.91147C9.1377 2.13975 9.76433 1.51437 10.5348 1.51437H18.0143C18.786 1.51437 19.4114 2.13975 19.4114 2.91147C19.4114 3.68319 18.786 4.30857 18.0143 4.30857Z" fill="#3399FF" stroke="#3399FF" stroke-width="1.5"/>
    <path d="M13.3302 23.7066C12.7611 23.7066 12.227 23.3564 12.0194 22.7923C11.753 22.0668 12.1244 21.2651 12.8474 20.9987C23.3988 17.1163 35.0658 17.1151 45.6973 20.9974C46.4227 21.2626 46.7955 22.0631 46.5315 22.7885C46.2664 23.5152 45.4659 23.8867 44.7405 23.6228C34.7281 19.9693 23.7465 19.9706 13.813 23.6215C13.6529 23.6816 13.4903 23.7078 13.3302 23.7078V23.7066Z" fill="#3399FF" stroke="#3399FF" stroke-width="1.5"/>
    <path d="M10.5348 73.9245C5.27659 73.9245 1.00024 69.6107 1.00024 64.3075C1.00024 61.8322 1.94832 46.1815 3.38169 31.7765C6.38851 1.51437 8.78496 1.51437 10.5348 1.51437C11.3065 1.51437 11.9319 2.13975 11.9319 2.91147C11.9319 3.55936 11.4904 4.10469 10.8912 4.26354C7.52545 8.1509 3.79444 56.6766 3.79444 64.3075C3.79444 68.0697 6.81877 71.1303 10.5348 71.1303C11.3065 71.1303 11.9319 71.7557 11.9319 72.5274C11.9319 73.2992 11.3065 73.9245 10.5348 73.9245Z" fill="#3399FF" stroke="#3399FF" stroke-width="1.5"/>
    <path d="M57.3832 73.9245H10.5348C9.76308 73.9245 9.1377 73.2992 9.1377 72.5274C9.1377 71.7557 9.76308 71.1303 10.5348 71.1303H57.382C58.1537 71.1303 58.7791 71.7557 58.7791 72.5274C58.7791 73.2992 58.1537 73.9245 57.382 73.9245H57.3832Z" fill="#3399FF" stroke="#3399FF" stroke-width="1.5"/>
    <path d="M57.3708 32.8258C56.1776 32.8258 54.9894 32.5132 53.9512 31.8903C51.7987 30.4932 50.613 28.143 50.8131 25.7278C50.8781 24.9586 51.531 24.3907 52.3228 24.4508C53.092 24.5158 53.6636 25.1912 53.5998 25.9604C53.4822 27.3688 54.1676 28.6996 55.4334 29.5213C56.6041 30.223 58.1688 30.2255 59.3783 29.4963C60.6028 28.7008 61.2882 27.3688 61.1706 25.9617C61.1068 25.1925 61.6784 24.5171 62.4476 24.452C63.2356 24.3995 63.8935 24.9611 63.9573 25.729C64.1574 28.143 62.9705 30.4944 60.8592 31.8665C59.7898 32.5081 58.5778 32.8283 57.3721 32.8283L57.3708 32.8258Z" fill="#3399FF" stroke="#3399FF" stroke-width="1.5"/>
</svg>
