<svg width="79" height="68" viewBox="0 0 79 68" fill="none" xmlns="http://www.w3.org/2000/svg">
    <path d="M67.5003 36.7482C67.3578 36.7482 67.2119 36.7241 67.0728 36.676L58.9299 33.9261C58.2174 33.6855 57.834 32.9087 58.0715 32.1868C58.309 31.465 59.0792 31.0766 59.7883 31.3172L66.8998 33.7199L73.9365 21.8371L58.4007 6.09757C57.8714 5.56135 57.8714 4.6917 58.4007 4.15204C58.9299 3.61582 59.7883 3.61582 60.321 4.15204L76.6067 20.6512C77.0478 21.098 77.1326 21.7889 76.8103 22.332L68.6674 36.0813C68.4164 36.5041 67.9685 36.7482 67.5037 36.7482H67.5003Z" fill="#3399FF" stroke="#3399FF" stroke-width="2"/>
    <path d="M10.5003 36.7482C10.0321 36.7482 9.58762 36.5041 9.33655 36.0813L1.19369 22.332C0.87476 21.7924 0.956189 21.098 1.39726 20.6512L17.683 4.15204C18.2123 3.61582 19.074 3.61582 19.6033 4.15204C20.1326 4.68827 20.1326 5.55791 19.6033 6.09757L4.06744 21.8371L11.1042 33.7199L18.2157 31.3172C18.9248 31.0766 19.6949 31.465 19.9324 32.1868C20.1699 32.9087 19.7865 33.6855 19.074 33.9261L10.9312 36.676C10.7887 36.7241 10.6462 36.7482 10.5037 36.7482H10.5003Z" fill="#3399FF" stroke="#3399FF" stroke-width="2"/>
    <path d="M59.3576 67H18.6433C17.8935 67 17.2861 66.3847 17.2861 65.6251V5.12479C17.2861 4.53357 17.6593 4.00766 18.2158 3.82205L26.3586 1.07219C26.8608 0.900325 27.4172 1.04469 27.7802 1.43998C30.7829 4.702 34.7661 6.49972 39.0004 6.49972C43.2347 6.49972 47.2213 4.702 50.224 1.43655C50.5938 1.03438 51.1604 0.896888 51.6693 1.07907C51.9577 1.17875 57.6136 3.08646 59.7885 3.82205C60.3415 4.00766 60.7181 4.53357 60.7181 5.12479V65.6251C60.7181 66.3847 60.1108 67 59.361 67H59.3576ZM20.0004 64.2501H58.0004V6.11474L51.5913 3.95267C48.1476 7.37624 43.7097 9.24958 38.997 9.24958C34.2877 9.24958 29.8499 7.37624 26.4061 3.95267L19.997 6.11474V64.2467L20.0004 64.2501Z" fill="#3399FF" stroke="#3399FF" stroke-width="2"/>
</svg>
