<svg width="346" height="192" viewBox="0 0 346 192" fill="none" xmlns="http://www.w3.org/2000/svg">
    <g filter="url(#filter0_d_701_72)">
        <path d="M24.82 38.36C27.42 41 30.56 42.32 34.24 42.32C37.92 42.32 41.04 41 43.6 38.36C46.2 35.68 47.5 32.46 47.5 28.7C47.5 24.94 46.2 21.74 43.6 19.1C41.04 16.42 37.92 15.08 34.24 15.08C30.56 15.08 27.42 16.42 24.82 19.1C22.26 21.74 20.98 24.94 20.98 28.7C20.98 32.46 22.26 35.68 24.82 38.36ZM49.78 44.3C45.5 48.58 40.32 50.72 34.24 50.72C28.16 50.72 22.96 48.58 18.64 44.3C14.36 39.98 12.22 34.78 12.22 28.7C12.22 22.62 14.36 17.44 18.64 13.16C22.96 8.84 28.16 6.68 34.24 6.68C40.32 6.68 45.5 8.84 49.78 13.16C54.1 17.44 56.26 22.62 56.26 28.7C56.26 34.78 54.1 39.98 49.78 44.3ZM84.977 46.16C81.897 49.16 78.177 50.66 73.817 50.66C69.457 50.66 65.737 49.16 62.657 46.16C59.577 43.12 58.037 39.4 58.037 35C58.037 30.64 59.577 26.94 62.657 23.9C65.737 20.86 69.457 19.34 73.817 19.34C78.177 19.34 81.897 20.86 84.977 23.9C88.057 26.94 89.597 30.64 89.597 35C89.597 39.4 88.057 43.12 84.977 46.16ZM73.817 42.98C75.937 42.98 77.697 42.24 79.097 40.76C80.537 39.24 81.257 37.32 81.257 35C81.257 32.68 80.537 30.78 79.097 29.3C77.697 27.78 75.937 27.02 73.817 27.02C71.657 27.02 69.857 27.78 68.417 29.3C67.017 30.78 66.317 32.68 66.317 35C66.317 37.32 67.017 39.24 68.417 40.76C69.857 42.24 71.657 42.98 73.817 42.98ZM101.345 62.54H93.1248V20H101.345V23.36C102.105 22.28 103.265 21.34 104.825 20.54C106.385 19.74 108.125 19.34 110.045 19.34C114.005 19.34 117.345 20.88 120.065 23.96C122.785 27.04 124.145 30.72 124.145 35C124.145 39.28 122.785 42.96 120.065 46.04C117.345 49.12 114.005 50.66 110.045 50.66C108.125 50.66 106.385 50.26 104.825 49.46C103.265 48.66 102.105 47.72 101.345 46.64V62.54ZM102.725 40.88C104.125 42.4 105.965 43.16 108.245 43.16C110.525 43.16 112.345 42.4 113.705 40.88C115.105 39.36 115.805 37.4 115.805 35C115.805 32.6 115.105 30.64 113.705 29.12C112.345 27.6 110.525 26.84 108.245 26.84C105.965 26.84 104.125 27.6 102.725 29.12C101.365 30.64 100.685 32.6 100.685 35C100.685 37.4 101.365 39.36 102.725 40.88ZM137.602 50.66C131.922 50.66 127.802 48.74 125.242 44.9L130.882 40.1C132.322 42.42 134.562 43.58 137.602 43.58C138.522 43.58 139.302 43.4 139.942 43.04C140.582 42.68 140.902 42.14 140.902 41.42C140.902 40.78 140.622 40.26 140.062 39.86C139.542 39.42 138.482 38.98 136.882 38.54L134.662 38C131.902 37.28 129.802 36.08 128.362 34.4C126.962 32.72 126.302 30.72 126.382 28.4C126.462 25.68 127.542 23.5 129.622 21.86C131.742 20.18 134.422 19.34 137.662 19.34C142.262 19.34 145.722 21.02 148.042 24.38L142.642 28.76C141.242 27 139.542 26.12 137.542 26.12C136.742 26.12 136.042 26.3 135.442 26.66C134.842 27.02 134.542 27.52 134.542 28.16C134.542 29.36 135.522 30.22 137.482 30.74L140.302 31.58C146.102 33.14 149.002 36.24 149.002 40.88C149.002 43.72 147.922 46.06 145.762 47.9C143.602 49.74 140.882 50.66 137.602 50.66ZM154.761 34.64L153.201 23.36V7.4H161.481V23.36L159.861 34.64H154.761ZM157.281 50.48C155.601 50.48 154.181 49.9 153.021 48.74C151.861 47.58 151.281 46.16 151.281 44.48C151.281 42.8 151.861 41.38 153.021 40.22C154.181 39.06 155.601 38.48 157.281 38.48C158.921 38.48 160.321 39.08 161.481 40.28C162.681 41.44 163.281 42.84 163.281 44.48C163.281 46.12 162.681 47.54 161.481 48.74C160.321 49.9 158.921 50.48 157.281 50.48ZM24.04 107.66C18.36 107.66 14.24 105.74 11.68 101.9L17.32 97.1C18.76 99.42 21 100.58 24.04 100.58C24.96 100.58 25.74 100.4 26.38 100.04C27.02 99.68 27.34 99.14 27.34 98.42C27.34 97.78 27.06 97.26 26.5 96.86C25.98 96.42 24.92 95.98 23.32 95.54L21.1 95C18.34 94.28 16.24 93.08 14.8 91.4C13.4 89.72 12.74 87.72 12.82 85.4C12.9 82.68 13.98 80.5 16.06 78.86C18.18 77.18 20.86 76.34 24.1 76.34C28.7 76.34 32.16 78.02 34.48 81.38L29.08 85.76C27.68 84 25.98 83.12 23.98 83.12C23.18 83.12 22.48 83.3 21.88 83.66C21.28 84.02 20.98 84.52 20.98 85.16C20.98 86.36 21.96 87.22 23.92 87.74L26.74 88.58C32.54 90.14 35.44 93.24 35.44 97.88C35.44 100.72 34.36 103.06 32.2 104.9C30.04 106.74 27.32 107.66 24.04 107.66ZM64.0591 103.16C60.9791 106.16 57.2591 107.66 52.8991 107.66C48.5391 107.66 44.8191 106.16 41.7391 103.16C38.6591 100.12 37.1191 96.4 37.1191 92C37.1191 87.64 38.6591 83.94 41.7391 80.9C44.8191 77.86 48.5391 76.34 52.8991 76.34C57.2591 76.34 60.9791 77.86 64.0591 80.9C67.1391 83.94 68.6791 87.64 68.6791 92C68.6791 96.4 67.1391 100.12 64.0591 103.16ZM52.8991 99.98C55.0191 99.98 56.7791 99.24 58.1791 97.76C59.6191 96.24 60.3391 94.32 60.3391 92C60.3391 89.68 59.6191 87.78 58.1791 86.3C56.7791 84.78 55.0191 84.02 52.8991 84.02C50.7391 84.02 48.9391 84.78 47.4991 86.3C46.0991 87.78 45.3991 89.68 45.3991 92C45.3991 94.32 46.0991 96.24 47.4991 97.76C48.9391 99.24 50.7391 99.98 52.8991 99.98ZM110.007 107V90.98C110.007 86.22 108.447 83.84 105.327 83.84C103.527 83.84 102.087 84.52 101.007 85.88C99.9669 87.24 99.4069 89.26 99.3269 91.94V107H91.1069V90.98C91.1069 86.22 89.5469 83.84 86.4269 83.84C84.5869 83.84 83.1269 84.56 82.0469 86C80.9669 87.44 80.4269 89.56 80.4269 92.36V107H72.2069V77H80.4269V80.42C82.3069 77.7 84.9669 76.34 88.4069 76.34C92.6069 76.34 95.7069 78.18 97.7069 81.86C98.5869 80.14 99.9069 78.8 101.667 77.84C103.427 76.84 105.207 76.34 107.007 76.34C110.567 76.34 113.327 77.52 115.287 79.88C117.247 82.24 118.227 85.48 118.227 89.6V107H110.007ZM137.342 107.66C132.782 107.66 128.982 106.22 125.942 103.34C122.942 100.46 121.442 96.68 121.442 92C121.442 87.52 122.942 83.8 125.942 80.84C128.942 77.84 132.702 76.34 137.222 76.34C141.382 76.34 144.882 77.64 147.722 80.24C150.562 82.8 151.982 86.42 151.982 91.1C151.982 92.42 151.942 93.36 151.862 93.92H129.422C129.662 95.88 130.522 97.42 132.002 98.54C133.522 99.62 135.322 100.16 137.402 100.16C140.922 100.16 143.502 98.9 145.142 96.38L151.262 100.94C148.182 105.42 143.542 107.66 137.342 107.66ZM129.722 88.34H143.762C143.402 86.62 142.582 85.32 141.302 84.44C140.062 83.56 138.622 83.12 136.982 83.12C135.302 83.12 133.762 83.56 132.362 84.44C130.962 85.32 130.082 86.62 129.722 88.34ZM169.642 107.36C166.282 107.36 163.522 106.44 161.362 104.6C159.242 102.72 158.182 100.02 158.182 96.5V84.2H152.122V77H158.182V68.66H166.402V77H174.862V84.2H166.402V94.88C166.402 96.72 166.802 98.04 167.602 98.84C168.402 99.6 169.702 99.98 171.502 99.98C172.782 99.98 173.902 99.8 174.862 99.44V106.7C173.422 107.14 171.682 107.36 169.642 107.36ZM186.547 107H178.327V62H186.547V80.42C188.387 77.7 191.247 76.34 195.127 76.34C198.727 76.34 201.547 77.54 203.587 79.94C205.667 82.3 206.707 85.46 206.707 89.42V107H198.487V90.8C198.487 88.6 198.027 86.9 197.107 85.7C196.187 84.46 194.887 83.84 193.207 83.84C191.207 83.84 189.587 84.56 188.347 86C187.147 87.44 186.547 89.56 186.547 92.36V107ZM215.925 72.08C214.525 72.08 213.305 71.58 212.265 70.58C211.225 69.54 210.705 68.3 210.705 66.86C210.705 65.42 211.225 64.2 212.265 63.2C213.305 62.16 214.525 61.64 215.925 61.64C217.405 61.64 218.645 62.16 219.645 63.2C220.685 64.2 221.205 65.42 221.205 66.86C221.205 68.3 220.685 69.54 219.645 70.58C218.645 71.58 217.405 72.08 215.925 72.08ZM211.845 107V77H220.065V107H211.845ZM225.558 107V77H233.778V80.42C235.618 77.7 238.478 76.34 242.358 76.34C245.958 76.34 248.778 77.54 250.818 79.94C252.898 82.3 253.938 85.46 253.938 89.42V107H245.718V90.8C245.718 88.6 245.258 86.9 244.338 85.7C243.418 84.46 242.118 83.84 240.438 83.84C238.438 83.84 236.818 84.56 235.578 86C234.378 87.44 233.778 89.56 233.778 92.36V107H225.558ZM267.656 97.04C269.136 98.48 270.936 99.2 273.056 99.2C275.176 99.2 276.976 98.48 278.456 97.04C279.936 95.6 280.676 93.76 280.676 91.52C280.676 89.28 279.936 87.44 278.456 86C276.976 84.56 275.176 83.84 273.056 83.84C270.936 83.84 269.136 84.56 267.656 86C266.176 87.44 265.436 89.28 265.436 91.52C265.436 93.76 266.176 95.6 267.656 97.04ZM272.096 120.14C266.096 120.14 261.436 118.54 258.116 115.34L262.616 109.22C265.136 111.7 268.256 112.94 271.976 112.94C274.376 112.94 276.316 112.18 277.796 110.66C279.276 109.14 280.016 107.16 280.016 104.72V102.68C279.176 103.84 277.976 104.8 276.416 105.56C274.856 106.28 273.156 106.64 271.316 106.64C267.396 106.64 264.056 105.18 261.296 102.26C258.536 99.3 257.156 95.72 257.156 91.52C257.156 87.28 258.536 83.7 261.296 80.78C264.056 77.82 267.396 76.34 271.316 76.34C273.196 76.34 274.896 76.72 276.416 77.48C277.976 78.2 279.176 79.16 280.016 80.36V77H288.236V104.66C288.236 109.82 286.756 113.68 283.796 116.24C280.836 118.84 276.936 120.14 272.096 120.14ZM39.64 164L34 146.96L28.42 164H20.26L10.3 134H19.06L24.76 153.2L30.82 134H37.12L43.24 153.2L48.88 134H57.7L47.8 164H39.64ZM73.1181 164.66C68.5581 164.66 64.7581 163.22 61.7181 160.34C58.7181 157.46 57.2181 153.68 57.2181 149C57.2181 144.52 58.7181 140.8 61.7181 137.84C64.7181 134.84 68.4781 133.34 72.9981 133.34C77.1581 133.34 80.6581 134.64 83.4981 137.24C86.3381 139.8 87.7581 143.42 87.7581 148.1C87.7581 149.42 87.7181 150.36 87.6381 150.92H65.1981C65.4381 152.88 66.2981 154.42 67.7781 155.54C69.2981 156.62 71.0981 157.16 73.1781 157.16C76.6981 157.16 79.2781 155.9 80.9181 153.38L87.0381 157.94C83.9581 162.42 79.3181 164.66 73.1181 164.66ZM65.4981 145.34H79.5381C79.1781 143.62 78.3581 142.32 77.0781 141.44C75.8381 140.56 74.3981 140.12 72.7581 140.12C71.0781 140.12 69.5381 140.56 68.1381 141.44C66.7381 142.32 65.8581 143.62 65.4981 145.34ZM91.4256 164V134H99.6456V137.42C101.486 134.7 104.346 133.34 108.226 133.34C111.826 133.34 114.646 134.54 116.686 136.94C118.766 139.3 119.806 142.46 119.806 146.42V164H111.586V147.8C111.586 145.6 111.126 143.9 110.206 142.7C109.286 141.46 107.986 140.84 106.306 140.84C104.306 140.84 102.686 141.56 101.446 143C100.246 144.44 99.6456 146.56 99.6456 149.36V164H91.4256ZM139.112 164.36C135.752 164.36 132.992 163.44 130.832 161.6C128.712 159.72 127.652 157.02 127.652 153.5V141.2H121.592V134H127.652V125.66H135.872V134H144.332V141.2H135.872V151.88C135.872 153.72 136.272 155.04 137.072 155.84C137.872 156.6 139.172 156.98 140.972 156.98C142.252 156.98 143.372 156.8 144.332 156.44V163.7C142.892 164.14 141.152 164.36 139.112 164.36ZM183.734 164L178.094 146.96L172.514 164H164.354L154.394 134H163.154L168.854 153.2L174.914 134H181.214L187.334 153.2L192.974 134H201.794L191.894 164H183.734ZM203.642 164V134H211.862V138.8C212.382 137.32 213.322 136.1 214.682 135.14C216.082 134.14 217.622 133.64 219.302 133.64C220.342 133.64 221.262 133.76 222.062 134V142.34C220.742 141.9 219.502 141.68 218.342 141.68C216.382 141.68 214.802 142.4 213.602 143.84C212.442 145.24 211.862 147.18 211.862 149.66V164H203.642ZM248.819 160.16C245.739 163.16 242.019 164.66 237.659 164.66C233.299 164.66 229.579 163.16 226.499 160.16C223.419 157.12 221.879 153.4 221.879 149C221.879 144.64 223.419 140.94 226.499 137.9C229.579 134.86 233.299 133.34 237.659 133.34C242.019 133.34 245.739 134.86 248.819 137.9C251.899 140.94 253.439 144.64 253.439 149C253.439 153.4 251.899 157.12 248.819 160.16ZM237.659 156.98C239.779 156.98 241.539 156.24 242.939 154.76C244.379 153.24 245.099 151.32 245.099 149C245.099 146.68 244.379 144.78 242.939 143.3C241.539 141.78 239.779 141.02 237.659 141.02C235.499 141.02 233.699 141.78 232.259 143.3C230.859 144.78 230.159 146.68 230.159 149C230.159 151.32 230.859 153.24 232.259 154.76C233.699 156.24 235.499 156.98 237.659 156.98ZM256.967 164V134H265.187V137.42C267.027 134.7 269.887 133.34 273.767 133.34C277.367 133.34 280.187 134.54 282.227 136.94C284.307 139.3 285.347 142.46 285.347 146.42V164H277.127V147.8C277.127 145.6 276.667 143.9 275.747 142.7C274.827 141.46 273.527 140.84 271.847 140.84C269.847 140.84 268.227 141.56 266.987 143C265.787 144.44 265.187 146.56 265.187 149.36V164H256.967ZM299.065 154.04C300.545 155.48 302.345 156.2 304.465 156.2C306.585 156.2 308.385 155.48 309.865 154.04C311.345 152.6 312.085 150.76 312.085 148.52C312.085 146.28 311.345 144.44 309.865 143C308.385 141.56 306.585 140.84 304.465 140.84C302.345 140.84 300.545 141.56 299.065 143C297.585 144.44 296.845 146.28 296.845 148.52C296.845 150.76 297.585 152.6 299.065 154.04ZM303.505 177.14C297.505 177.14 292.845 175.54 289.525 172.34L294.025 166.22C296.545 168.7 299.665 169.94 303.385 169.94C305.785 169.94 307.725 169.18 309.205 167.66C310.685 166.14 311.425 164.16 311.425 161.72V159.68C310.585 160.84 309.385 161.8 307.825 162.56C306.265 163.28 304.565 163.64 302.725 163.64C298.805 163.64 295.465 162.18 292.705 159.26C289.945 156.3 288.565 152.72 288.565 148.52C288.565 144.28 289.945 140.7 292.705 137.78C295.465 134.82 298.805 133.34 302.725 133.34C304.605 133.34 306.305 133.72 307.825 134.48C309.385 135.2 310.585 136.16 311.425 137.36V134H319.645V161.66C319.645 166.82 318.165 170.68 315.205 173.24C312.245 175.84 308.345 177.14 303.505 177.14ZM329.496 164.48C327.816 164.48 326.396 163.9 325.236 162.74C324.076 161.58 323.496 160.16 323.496 158.48C323.496 156.8 324.076 155.38 325.236 154.22C326.396 153.06 327.816 152.48 329.496 152.48C331.136 152.48 332.536 153.08 333.696 154.28C334.896 155.44 335.496 156.84 335.496 158.48C335.496 160.12 334.896 161.54 333.696 162.74C332.536 163.9 331.136 164.48 329.496 164.48Z" fill="white"/>
    </g>
    <defs>
        <filter id="filter0_d_701_72" x="0.300049" y="0.679993" width="345.196" height="190.46" filterUnits="userSpaceOnUse" color-interpolation-filters="sRGB">
            <feFlood flood-opacity="0" result="BackgroundImageFix"/>
            <feColorMatrix in="SourceAlpha" type="matrix" values="0 0 0 0 0 0 0 0 0 0 0 0 0 0 0 0 0 0 127 0" result="hardAlpha"/>
            <feOffset dy="4"/>
            <feGaussianBlur stdDeviation="5"/>
            <feComposite in2="hardAlpha" operator="out"/>
            <feColorMatrix type="matrix" values="0 0 0 0 0.2 0 0 0 0 0.2 0 0 0 0 0.788235 0 0 0 0.5 0"/>
            <feBlend mode="normal" in2="BackgroundImageFix" result="effect1_dropShadow_701_72"/>
            <feBlend mode="normal" in="SourceGraphic" in2="effect1_dropShadow_701_72" result="shape"/>
        </filter>
    </defs>
</svg>
