<svg width="593" height="592" viewBox="0 0 593 592" fill="none" xmlns="http://www.w3.org/2000/svg">
    <path d="M294.915 589.915V567.57C295.092 567.572 295.269 567.576 295.448 567.579L295.45 567.579C295.796 567.586 296.148 567.593 296.5 567.593C296.852 567.593 297.204 567.586 297.55 567.579L297.552 567.579C297.731 567.576 297.908 567.572 298.085 567.57V589.915C298.085 590.792 297.377 591.5 296.5 591.5C295.623 591.5 294.915 590.792 294.915 589.915Z" fill="#D2E9FF" stroke="white"/>
    <path d="M267.811 588.515L269.863 566.293C270.911 566.396 271.966 566.491 273.023 566.578L270.957 588.81C270.957 588.81 270.957 588.811 270.957 588.811C270.871 589.68 270.098 590.321 269.238 590.237L269.238 590.237L269.231 590.237C268.43 590.169 267.823 589.508 267.79 588.734L267.811 588.515Z" fill="#D2E9FF" stroke="white"/>
    <path d="M245.029 562.69C246.064 562.891 247.102 563.091 248.147 563.283L244.055 585.195L244.055 585.197C243.897 586.059 243.064 586.622 242.206 586.463L242.204 586.463C241.342 586.305 240.779 585.472 240.938 584.614C240.938 584.613 240.938 584.613 240.938 584.613L245.029 562.69Z" fill="#D2E9FF" stroke="white"/>
    <path d="M214.534 578.267L214.615 577.984L214.601 577.969L220.623 556.831C221.562 557.102 222.505 557.367 223.443 557.63C223.521 557.652 223.6 557.674 223.678 557.696L217.575 579.132L217.574 579.134C217.343 579.965 216.467 580.462 215.623 580.22L215.619 580.218C214.788 579.987 214.291 579.111 214.534 578.267Z" fill="#D2E9FF" stroke="white"/>
    <path d="M188.848 569.499L188.848 569.498L196.896 548.74C197.877 549.12 198.861 549.5 199.853 549.872L191.808 570.638L191.807 570.639C191.49 571.464 190.572 571.864 189.759 571.548L189.757 571.547C188.932 571.229 188.532 570.311 188.848 569.499Z" fill="#D2E9FF" stroke="white"/>
    <path d="M164.076 558.394L164.438 557.67H164.423L173.998 538.454C174.942 538.927 175.892 539.393 176.841 539.858L166.906 559.809C166.906 559.809 166.906 559.81 166.906 559.81C166.515 560.591 165.565 560.907 164.784 560.517C164.002 560.126 163.685 559.176 164.076 558.394Z" fill="#D2E9FF" stroke="white"/>
    <path d="M140.44 545.063L152.181 526.092C153.071 526.66 153.967 527.22 154.864 527.771L143.122 546.73C143.122 546.73 143.121 546.731 143.121 546.731C142.654 547.473 141.669 547.702 140.934 547.24L140.934 547.24L140.93 547.237C140.252 546.821 140.001 545.955 140.327 545.245L140.44 545.063Z" fill="#D2E9FF" stroke="white"/>
    <path d="M118.106 529.591L118.106 529.59L131.563 511.77C131.765 511.924 131.966 512.078 132.167 512.232C132.807 512.722 133.446 513.211 134.088 513.696L120.631 531.503C120.631 531.503 120.631 531.503 120.631 531.503C120.102 532.2 119.109 532.337 118.412 531.809C117.715 531.281 117.578 530.288 118.106 529.591Z" fill="#D2E9FF" stroke="white"/>
    <path d="M97.3112 512.142L97.3123 512.141L112.372 495.627C113.146 496.344 113.927 497.052 114.707 497.759L99.6588 514.275L99.6573 514.277C99.0659 514.932 98.0641 514.974 97.42 514.383C96.7714 513.787 96.7235 512.783 97.3112 512.142Z" fill="#D2E9FF" stroke="white"/>
    <path d="M78.1172 495.08C77.5297 494.44 77.5773 493.436 78.2253 492.84C78.2255 492.84 78.2257 492.84 78.2259 492.84L94.7386 477.795C95.4403 478.576 96.1556 479.356 96.8723 480.128L80.3605 495.186C80.3602 495.186 80.3598 495.186 80.3594 495.187C79.7142 495.767 78.7085 495.724 78.1172 495.08Z" fill="#D2E9FF" stroke="white"/>
    <path d="M60.9793 471.872L61.1812 471.722V471.706L78.8038 458.398C79.4401 459.243 80.0835 460.087 80.7277 460.924L62.8955 474.393L62.8955 474.393L62.8921 474.396C62.2101 474.921 61.2218 474.784 60.7074 474.091L60.6856 474.062L60.6597 474.036L60.6564 474.032C60.1532 473.352 60.2945 472.38 60.9793 471.872Z" fill="#D2E9FF" stroke="white"/>
    <path d="M45.7517 449.381L45.99 449.234V449.219L64.7274 437.622C65.1283 438.277 65.5367 438.925 65.9432 439.57C66.1 439.819 66.2565 440.068 66.4122 440.316L47.4243 452.073C47.424 452.073 47.4238 452.073 47.4235 452.073C46.7244 452.502 45.8239 452.329 45.3229 451.674V451.663L45.2489 451.542C44.7927 450.799 45.0191 449.831 45.7517 449.381Z" fill="#D2E9FF" stroke="white"/>
    <path d="M32.6791 425.592L32.953 425.453V425.442L52.639 415.646C53.0984 416.597 53.5715 417.547 54.0457 418.488L34.0804 428.423C34.0802 428.423 34.08 428.423 34.0797 428.423C33.3489 428.783 32.4536 428.514 32.0218 427.809V427.795L31.9703 427.691C31.5924 426.925 31.9063 425.984 32.6791 425.592Z" fill="#D2E9FF" stroke="white"/>
    <path d="M42.6411 392.647C43.0107 393.636 43.383 394.621 43.7697 395.605L22.9882 403.651L22.9882 403.651L22.9851 403.652C22.2197 403.955 21.344 403.599 20.9863 402.833V402.813L20.9514 402.725C20.6378 401.93 21.0328 401.024 21.8492 400.706L42.6411 392.647Z" fill="#D2E9FF" stroke="white"/>
    <path d="M13.3514 374.912L13.3514 374.912L13.3541 374.911L34.8027 368.808C35.0882 369.831 35.3748 370.847 35.6687 371.863L14.2201 377.966L14.2201 377.966L14.2172 377.967C13.4106 378.201 12.5679 377.751 12.2996 376.953V376.916L12.2797 376.848C12.0373 376.015 12.5233 375.142 13.3514 374.912Z" fill="#D2E9FF" stroke="white"/>
    <path d="M7.2763 348.459L7.27727 348.458L29.1987 344.354C29.3571 345.24 29.5301 346.121 29.7019 346.996C29.733 347.154 29.7641 347.313 29.795 347.471L7.85863 351.575C7.85853 351.575 7.85842 351.575 7.85832 351.575C7.02081 351.73 6.22032 351.196 6.03131 350.361V350.325L6.02274 350.279C5.86516 349.439 6.42283 348.617 7.2763 348.459Z" fill="#D2E9FF" stroke="white"/>
    <path d="M25.9258 319.477C25.9505 319.758 25.975 320.04 25.9994 320.322C26.0665 321.094 26.1336 321.868 26.2077 322.637L3.97013 324.703L3.97013 324.703L3.96783 324.703C3.11427 324.786 2.3604 324.169 2.2648 323.312V323.297V323.272L2.26243 323.248C2.17847 322.388 2.80655 321.628 3.67466 321.543C3.67503 321.543 3.6754 321.543 3.67577 321.543L25.9258 319.477Z" fill="#D2E9FF" stroke="white"/>
    <path d="M2.5709 294.415H24.9301C24.9275 294.591 24.924 294.769 24.9204 294.947L24.9204 294.95C24.9134 295.296 24.9064 295.647 24.9064 296V296.014C24.9064 296.366 24.9134 296.718 24.9204 297.063L24.9204 297.066C24.924 297.245 24.9275 297.422 24.9301 297.598H2.5709C1.70735 297.598 1 296.891 1 296.028V295.986C1 295.122 1.70736 294.415 2.5709 294.415Z" fill="#D2E9FF" stroke="white"/>
    <path d="M3.96783 267.296L3.97013 267.296L26.2071 269.362C26.1041 270.411 26.009 271.466 25.9219 272.522L3.67577 270.457C3.6754 270.457 3.67503 270.457 3.67466 270.457C2.80655 270.371 2.17847 269.612 2.26243 268.751L2.2648 268.727V268.703V268.687C2.36068 267.841 3.1171 267.213 3.96783 267.296Z" fill="#D2E9FF" stroke="white"/>
    <path d="M6.03574 241.725L6.04522 241.677V241.635C6.22181 240.805 7.01852 240.269 7.85824 240.424C7.85838 240.424 7.85851 240.424 7.85865 240.424L29.7955 244.529C29.5951 245.564 29.3953 246.601 29.2025 247.646L7.27741 243.541C7.27737 243.541 7.27732 243.541 7.27728 243.541C6.4318 243.383 5.86861 242.571 6.03574 241.725Z" fill="#D2E9FF" stroke="white"/>
    <path d="M12.2797 215.152L12.2996 215.083V215.047C12.5663 214.254 13.4065 213.808 14.2215 214.034C14.222 214.034 14.2224 214.034 14.2228 214.034L35.6688 220.137C35.398 221.075 35.1332 222.018 34.8702 222.955C34.848 223.034 34.8259 223.113 34.8037 223.192L13.357 217.089C13.3566 217.089 13.3561 217.089 13.3556 217.089C12.5185 216.845 12.0388 215.979 12.2797 215.152Z" fill="#D2E9FF" stroke="white"/>
    <path d="M22.9872 188.334L22.9882 188.334L43.7731 196.382C43.3935 197.363 43.0141 198.347 42.6416 199.339L21.8484 191.28L21.8484 191.28L21.8439 191.278C21.0366 190.974 20.6378 190.074 20.964 189.264L21.0002 189.174V189.147C21.3316 188.393 22.2007 188.028 22.9872 188.334Z" fill="#D2E9FF" stroke="white"/>
    <path d="M34.0894 163.561L34.8155 163.929V163.908L54.0601 173.484C53.5866 174.428 53.1204 175.378 52.6561 176.327L32.6897 166.392L32.6897 166.392L32.6857 166.39C31.9088 166.012 31.5957 165.068 31.9931 164.304L32.0496 164.196V164.169C32.456 163.463 33.3555 163.189 34.0894 163.561Z" fill="#D2E9FF" stroke="white"/>
    <path d="M47.4243 139.913L48.186 140.381V140.371L66.4124 151.656C66.2559 151.906 66.0987 152.157 65.9414 152.407C65.5357 153.054 65.1288 153.703 64.7292 154.35L45.7561 142.608C45.7556 142.607 45.7552 142.607 45.7547 142.607C45.0104 142.138 44.7876 141.183 45.2574 140.452L45.3368 140.329V140.309C45.8249 139.658 46.7232 139.482 47.4243 139.913Z" fill="#D2E9FF" stroke="white"/>
    <path d="M62.8959 117.593L63.6969 118.196V118.184L80.7296 131.049C80.5757 131.25 80.4217 131.452 80.2678 131.653C79.7782 132.292 79.2889 132.932 78.804 133.574L60.9826 120.116L60.9826 120.116L60.9793 120.114C60.2962 119.607 60.1513 118.648 60.6576 117.952L60.6595 117.95L60.6842 117.925L60.7052 117.897C61.2193 117.215 62.2121 117.077 62.8959 117.593Z" fill="#D2E9FF" stroke="white"/>
    <path d="M80.3572 96.8249L80.3584 96.826L96.8725 111.886C96.1562 112.66 95.4472 113.44 94.7407 114.221L78.2259 99.1737C78.2257 99.1735 78.2255 99.1733 78.2253 99.1731C77.5773 98.5776 77.5296 97.5736 78.1172 96.9337C78.7126 96.285 79.717 96.2372 80.3572 96.8249Z" fill="#D2E9FF" stroke="white"/>
    <path d="M99.6311 77.7245L114.691 94.2385C113.91 94.9401 113.13 95.6553 112.358 96.3719L97.3003 79.8464C97.3 79.8461 97.2998 79.8458 97.2995 79.8455C96.7533 79.2388 96.7566 78.3197 97.3042 77.7074L97.4167 77.606C97.9985 77.0814 98.8691 77.0668 99.4573 77.5338L99.6311 77.7245Z" fill="#D2E9FF" stroke="white"/>
    <path d="M118.28 60.2779H118.292L118.426 60.1765C119.123 59.649 120.102 59.7848 120.631 60.4826C120.631 60.4827 120.631 60.4828 120.631 60.4829L134.088 78.3035C133.243 78.9399 132.399 79.5832 131.562 80.2274L118.093 62.3953L118.092 62.3947C117.598 61.7425 117.684 60.8366 118.28 60.2779Z" fill="#D2E9FF" stroke="white"/>
    <path d="M143.105 45.2654L143.105 45.2654L143.106 45.2669L154.851 64.2292C154.262 64.593 153.675 64.9635 153.089 65.3332C152.782 65.5267 152.476 65.72 152.17 65.912L140.412 46.9363L140.412 46.9363L140.41 46.9336C139.973 46.2376 140.154 45.3278 140.809 44.8365H140.826L140.948 44.7598C141.684 44.2974 142.652 44.5278 143.105 45.2654Z" fill="#D2E9FF" stroke="white"/>
    <path d="M166.906 32.1896L176.84 52.1389C175.889 52.5982 174.939 53.0713 173.998 53.5455L164.062 33.5924L164.062 33.5916C163.688 32.8433 163.962 31.94 164.673 31.5216H164.692L164.797 31.4688C165.544 31.0955 166.435 31.3677 166.854 32.0792V32.0843L166.906 32.1896Z" fill="#D2E9FF" stroke="white"/>
    <path d="M191.794 21.3618L199.839 42.1421C199.82 42.1492 199.801 42.1564 199.782 42.1636C198.82 42.5253 197.847 42.8906 196.881 43.2696L188.835 22.5017L188.834 22.5009C188.528 21.7144 188.893 20.8302 189.65 20.486H189.671L189.759 20.4519C190.543 20.1463 191.416 20.5087 191.76 21.2679V21.2747L191.794 21.3618Z" fill="#D2E9FF" stroke="white"/>
    <path d="M214.535 13.7221C214.308 12.8956 214.765 12.0529 215.561 11.7855H215.581L215.647 11.7672C216.478 11.5356 217.345 12.0188 217.589 12.8555C217.589 12.8559 217.59 12.8564 217.59 12.8568L223.692 34.2886C222.669 34.5741 221.653 34.8607 220.637 35.1546L214.535 13.7242C214.535 13.7235 214.535 13.7228 214.535 13.7221Z" fill="#D2E9FF" stroke="white"/>
    <path d="M244.041 6.78995L244.117 7.19891H244.131L248.146 28.7123C247.26 28.8708 246.379 29.0438 245.504 29.2155C245.345 29.2467 245.187 29.2777 245.029 29.3086L240.924 7.37229C240.924 7.37214 240.924 7.372 240.924 7.37186C240.768 6.52879 241.308 5.72134 242.136 5.54497H242.16L242.206 5.53661C243.063 5.37783 243.884 5.93881 244.041 6.78995Z" fill="#D2E9FF" stroke="white"/>
    <path d="M270.957 3.17551L270.958 3.17544L273.023 25.4116C272.742 25.4364 272.46 25.4608 272.178 25.4853C271.406 25.5523 270.632 25.6194 269.863 25.6935L267.797 3.45969C267.797 3.45911 267.797 3.45853 267.797 3.45796C267.725 2.59982 268.346 1.8461 269.201 1.75064H269.203H269.224L269.246 1.74882C270.112 1.67486 270.872 2.30779 270.957 3.17551Z" fill="#D2E9FF" stroke="white"/>
    <path d="M298.085 2.07066V24.4299C297.908 24.4273 297.731 24.4237 297.552 24.4202L297.55 24.4201C297.204 24.4132 296.852 24.4062 296.5 24.4062C296.148 24.4062 295.796 24.4132 295.45 24.4201L295.448 24.4202C295.269 24.4237 295.092 24.4273 294.915 24.4299V2.07066C294.915 1.20711 295.623 0.499756 296.486 0.499756H296.514C297.377 0.499756 298.085 1.20711 298.085 2.07066Z" fill="#D2E9FF" stroke="white"/>
    <path d="M325.203 3.46757L325.201 3.49179V3.50684L323.137 25.7208C322.089 25.6177 321.034 25.5226 319.977 25.4356L322.043 3.18708L322.043 3.18708L322.044 3.18338C322.117 2.32027 322.887 1.67811 323.748 1.76217L323.773 1.76453H323.797H323.802C324.655 1.84817 325.287 2.61256 325.203 3.46757Z" fill="#D2E9FF" stroke="white"/>
    <path d="M352.062 7.37229L351.952 7.96333H351.965L347.971 29.3092C346.936 29.1087 345.898 28.9089 344.853 28.716L348.945 6.79063L348.945 6.78995C349.103 5.93881 349.923 5.37783 350.781 5.53661L350.826 5.54497H350.85C351.678 5.72137 352.218 6.52906 352.062 7.37229Z" fill="#D2E9FF" stroke="white"/>
    <path d="M378.467 13.717L378.466 13.7198L372.363 35.1547C371.425 34.8838 370.481 34.619 369.545 34.356C369.466 34.3339 369.387 34.3117 369.308 34.2896L375.411 12.8539L375.411 12.8539L375.412 12.8512C375.642 12.023 376.515 11.5371 377.348 11.7794L377.416 11.7994H377.443C378.248 12.0553 378.703 12.9065 378.467 13.717Z" fill="#D2E9FF" stroke="white"/>
    <path d="M404.152 22.5009L404.152 22.5016L396.104 43.259C395.123 42.8793 394.139 42.4999 393.147 42.1274L401.192 21.362L401.193 21.3608C401.51 20.5357 402.428 20.1354 403.241 20.4519L403.243 20.4527C404.068 20.7701 404.468 21.6884 404.152 22.5009Z" fill="#D2E9FF" stroke="white"/>
    <path d="M428.924 33.6055L428.562 34.3291H428.577L419.001 53.5476C418.051 53.0741 417.108 52.6077 416.158 52.1422L426.094 32.1903C426.094 32.1902 426.094 32.19 426.094 32.1898C426.485 31.4087 427.435 31.092 428.216 31.4827C428.998 31.8735 429.315 32.824 428.924 33.6055Z" fill="#D2E9FF" stroke="white"/>
    <path d="M452.576 46.9336L452.574 46.9365L440.831 65.9093C439.933 65.3411 439.034 64.7808 438.136 64.2286L449.88 45.2669L449.881 45.2654C450.333 44.529 451.315 44.2966 452.052 44.7598L452.052 44.7599L452.059 44.7642C452.807 45.2174 453.038 46.1977 452.576 46.9336Z" fill="#D2E9FF" stroke="white"/>
    <path d="M474.894 62.4086L474.893 62.4093L461.437 80.2293C461.235 80.0753 461.034 79.9212 460.833 79.7671C460.193 79.2777 459.554 78.7886 458.912 78.3039L472.369 60.4968C472.369 60.4968 472.369 60.4968 472.369 60.4967C472.898 59.7995 473.891 59.6624 474.588 60.1904C475.285 60.7187 475.422 61.7116 474.894 62.4086Z" fill="#D2E9FF" stroke="white"/>
    <path d="M495.675 79.857L495.674 79.8582L480.614 96.3723C479.84 95.6559 479.059 94.947 478.279 94.2405L493.327 77.7243L493.329 77.7227C493.92 77.0679 494.922 77.0256 495.566 77.6169C496.215 78.2124 496.263 79.2168 495.675 79.857Z" fill="#D2E9FF" stroke="white"/>
    <path d="M498.261 114.205C497.56 113.423 496.844 112.644 496.128 111.872L512.642 96.8121L512.643 96.811C513.283 96.2233 514.287 96.2711 514.883 96.9198C515.47 97.5598 515.423 98.5638 514.775 99.1593C514.774 99.1595 514.774 99.1597 514.774 99.1598L498.261 114.205Z" fill="#D2E9FF" stroke="white"/>
    <path d="M512.272 131.076L530.091 117.62L530.091 117.62C530.788 117.092 531.781 117.229 532.309 117.926C532.837 118.623 532.7 119.616 532.003 120.144C532.003 120.144 532.003 120.144 532.003 120.144L514.196 133.601C513.56 132.756 512.916 131.912 512.272 131.076Z" fill="#D2E9FF" stroke="white"/>
    <path d="M547.216 142.622L546.685 142.955L546.696 142.966L528.273 154.363C527.872 153.709 527.463 153.061 527.057 152.416C526.9 152.167 526.744 151.918 526.588 151.67L545.548 139.927C545.548 139.927 545.548 139.927 545.549 139.926C546.288 139.472 547.259 139.694 547.724 140.445L547.726 140.448C548.187 141.182 547.96 142.154 547.216 142.622Z" fill="#D2E9FF" stroke="white"/>
    <path d="M560.309 166.406L560.033 166.544V166.558L540.361 176.353C539.902 175.402 539.428 174.453 538.954 173.512L558.894 163.576L558.894 163.576C559.676 163.185 560.626 163.502 561.017 164.283C561.408 165.065 561.091 166.015 560.309 166.406Z" fill="#D2E9FF" stroke="white"/>
    <path d="M572.048 189.259C572.363 190.067 571.954 190.989 571.137 191.308C571.137 191.308 571.137 191.308 571.137 191.308L550.373 199.352C550.003 198.363 549.631 197.379 549.244 196.394L569.998 188.348L569.999 188.348C570.808 188.033 571.73 188.442 572.048 189.259Z" fill="#D2E9FF" stroke="white"/>
    <path d="M579.631 217.089L579.631 217.093L558.21 223.192C557.925 222.179 557.639 221.165 557.345 220.15L578.766 214.048L578.769 214.047C579.598 213.805 580.476 214.287 580.72 215.136L580.72 215.138C580.962 215.967 580.48 216.845 579.631 217.089Z" fill="#D2E9FF" stroke="white"/>
    <path d="M585.696 243.555L585.695 243.555L563.787 247.646C563.629 246.76 563.456 245.878 563.284 245.003C563.253 244.845 563.222 244.687 563.191 244.529L585.114 240.438C585.114 240.438 585.114 240.438 585.114 240.438C585.969 240.28 586.805 240.853 586.963 241.705C587.122 242.561 586.549 243.397 585.696 243.555Z" fill="#D2E9FF" stroke="white"/>
    <path d="M589.313 270.443L567.074 272.509C567.05 272.228 567.025 271.947 567.001 271.665C566.934 270.892 566.866 270.118 566.792 269.349L589.012 267.297C589.013 267.297 589.013 267.297 589.014 267.297C589.882 267.224 590.653 267.858 590.738 268.737L590.738 268.737C590.815 269.53 590.276 270.249 589.511 270.424L589.313 270.443Z" fill="#D2E9FF" stroke="white"/>
    <path d="M568.07 294.415H590.415C591.293 294.415 592 295.122 592 296C592 296.877 591.293 297.585 590.415 297.585H568.07C568.072 297.408 568.076 297.231 568.08 297.052L568.08 297.05C568.086 296.704 568.094 296.352 568.094 296C568.094 295.647 568.086 295.296 568.08 294.95L568.08 294.947C568.076 294.769 568.072 294.591 568.07 294.415Z" fill="#D2E9FF" stroke="white"/>
    <path d="M566.793 322.623C566.896 321.575 566.991 320.519 567.078 319.463L589.313 321.529L589.316 321.529C590.177 321.603 590.822 322.371 590.738 323.249L590.738 323.249L590.737 323.255C590.669 324.056 590.008 324.663 589.235 324.695L589.016 324.675L566.793 322.623Z" fill="#D2E9FF" stroke="white"/>
    <path d="M563.784 344.353L585.695 348.445L585.697 348.445C586.561 348.603 587.123 349.423 586.963 350.295C586.805 351.158 585.972 351.721 585.114 351.561L563.191 347.47C563.391 346.436 563.591 345.398 563.784 344.353Z" fill="#D2E9FF" stroke="white"/>
    <path d="M557.332 371.849C557.614 370.883 557.888 369.905 558.161 368.934C558.173 368.892 558.184 368.85 558.196 368.808L579.632 374.911L579.635 374.912C580.466 375.143 580.963 376.019 580.72 376.863L580.719 376.867C580.498 377.659 579.692 378.148 578.885 377.981L578.877 377.974L578.752 377.938L557.332 371.849Z" fill="#D2E9FF" stroke="white"/>
    <path d="M569.999 403.652L569.998 403.651L549.241 395.604C549.62 394.623 550 393.638 550.372 392.647L571.138 400.692L571.139 400.692C571.964 401.01 572.364 401.928 572.048 402.741L572.047 402.743C571.73 403.568 570.811 403.968 569.999 403.652Z" fill="#D2E9FF" stroke="white"/>
    <path d="M558.894 428.424L558.171 428.062V428.077L538.954 418.501C539.427 417.558 539.893 416.608 540.358 415.658L560.309 425.593C560.31 425.593 560.31 425.594 560.31 425.594C561.091 425.985 561.408 426.935 561.017 427.716C560.626 428.498 559.676 428.815 558.894 428.424Z" fill="#D2E9FF" stroke="white"/>
    <path d="M545.566 452.075L545.563 452.074L526.588 440.329C526.744 440.079 526.901 439.829 527.059 439.578C527.464 438.931 527.871 438.283 528.271 437.635L547.23 449.378C547.23 449.378 547.231 449.378 547.231 449.379C547.972 449.846 548.203 450.818 547.738 451.568L547.737 451.57C547.285 452.306 546.303 452.539 545.566 452.075Z" fill="#D2E9FF" stroke="white"/>
    <path d="M530.091 474.394L530.091 474.393L512.27 460.936C512.425 460.735 512.579 460.533 512.733 460.332C513.222 459.693 513.711 459.054 514.196 458.412L532.003 471.869C532.003 471.869 532.003 471.869 532.003 471.869C532.7 472.397 532.837 473.39 532.309 474.087C531.781 474.785 530.788 474.922 530.091 474.394Z" fill="#D2E9FF" stroke="white"/>
    <path d="M512.643 495.175L512.642 495.174L496.127 480.114C496.844 479.34 497.553 478.559 498.259 477.779L514.775 492.827L514.777 492.829C515.432 493.42 515.474 494.422 514.883 495.066C514.287 495.715 513.283 495.762 512.643 495.175Z" fill="#D2E9FF" stroke="white"/>
    <path d="M495.58 514.383C494.94 514.97 493.936 514.922 493.341 514.274C493.34 514.274 493.34 514.274 493.34 514.274L478.295 497.761C479.076 497.059 479.856 496.344 480.628 495.627L495.686 512.139C495.686 512.14 495.686 512.14 495.687 512.14C496.267 512.785 496.224 513.791 495.58 514.383Z" fill="#D2E9FF" stroke="white"/>
    <path d="M474.88 529.59L474.88 529.591C475.408 530.288 475.271 531.281 474.574 531.809C473.877 532.337 472.884 532.2 472.355 531.503C472.355 531.503 472.355 531.503 472.355 531.503L458.898 513.696C459.743 513.06 460.587 512.416 461.424 511.772L474.88 529.59Z" fill="#D2E9FF" stroke="white"/>
    <path d="M449.894 546.719L438.149 527.756C438.738 527.393 439.325 527.022 439.911 526.653C440.217 526.459 440.524 526.266 440.83 526.074L452.574 545.049L452.576 545.052C453.037 545.786 452.81 546.757 452.067 547.225C451.37 547.656 450.483 547.487 449.986 546.868L449.894 546.719Z" fill="#D2E9FF" stroke="white"/>
    <path d="M426.094 559.809L425.955 559.533H425.942L416.146 539.861C417.098 539.401 418.047 538.928 418.988 538.454L428.924 558.393L428.924 558.394C429.315 559.176 428.998 560.126 428.216 560.517C427.435 560.908 426.484 560.591 426.094 559.809Z" fill="#D2E9FF" stroke="white"/>
    <path d="M393.147 549.873C394.137 549.503 395.121 549.131 396.105 548.744L404.152 569.498L404.152 569.499C404.467 570.307 404.058 571.229 403.241 571.548C402.432 571.863 401.511 571.454 401.192 570.637C401.192 570.637 401.192 570.637 401.192 570.637L393.147 549.873Z" fill="#D2E9FF" stroke="white"/>
    <path d="M375.411 579.13L375.176 578.314L375.164 578.326L369.294 557.711C370.317 557.425 371.333 557.139 372.349 556.845L378.452 578.266L378.453 578.269C378.694 579.098 378.213 579.975 377.363 580.22L377.362 580.22C376.533 580.461 375.655 579.98 375.411 579.13Z" fill="#D2E9FF" stroke="white"/>
    <path d="M348.945 585.196L348.945 585.195L344.854 563.287C345.74 563.129 346.621 562.956 347.496 562.784C347.655 562.753 347.813 562.722 347.971 562.691L352.062 584.613C352.062 584.613 352.062 584.613 352.062 584.613C352.22 585.469 351.647 586.305 350.794 586.463C349.939 586.621 349.103 586.048 348.945 585.196Z" fill="#D2E9FF" stroke="white"/>
    <path d="M322.057 588.812L319.991 566.574C320.272 566.549 320.553 566.525 320.835 566.5C321.607 566.433 322.381 566.366 323.151 566.292L325.203 588.512C325.203 588.513 325.203 588.513 325.203 588.514C325.276 589.379 324.63 590.153 323.762 590.237C322.97 590.315 322.25 589.776 322.076 589.011L322.057 588.812Z" fill="#D2E9FF" stroke="white"/>
</svg>
