<svg width="264" height="164" viewBox="0 0 264 164" fill="none" xmlns="http://www.w3.org/2000/svg">
    <g filter="url(#filter0_d_0_1)">
        <path d="M39.7601 121.54C26.5067 121.54 16.8934 117.06 10.9201 108.1L24.0801 96.9C27.4401 102.313 32.6667 105.02 39.7601 105.02C41.9067 105.02 43.7267 104.6 45.2201 103.76C46.7134 102.92 47.4601 101.66 47.4601 99.98C47.4601 98.4867 46.8067 97.2733 45.5001 96.34C44.2867 95.3133 41.8134 94.2867 38.0801 93.26L32.9001 92C26.4601 90.32 21.5601 87.52 18.2001 83.6C14.9334 79.68 13.3934 75.0133 13.5801 69.6C13.7667 63.2533 16.2867 58.1667 21.1401 54.34C26.0867 50.42 32.3401 48.46 39.9001 48.46C50.6334 48.46 58.7067 52.38 64.1201 60.22L51.5201 70.44C48.2534 66.3333 44.2867 64.28 39.6201 64.28C37.7534 64.28 36.1201 64.7 34.7201 65.54C33.3201 66.38 32.6201 67.5467 32.6201 69.04C32.6201 71.84 34.9067 73.8467 39.4801 75.06L46.0601 77.02C59.5934 80.66 66.3601 87.8933 66.3601 98.72C66.3601 105.347 63.8401 110.807 58.8001 115.1C53.7601 119.393 47.4134 121.54 39.7601 121.54ZM94.0779 149.26H74.8979V50H94.0779V57.84C95.8512 55.32 98.5579 53.1267 102.198 51.26C105.838 49.3933 109.898 48.46 114.378 48.46C123.618 48.46 131.411 52.0533 137.758 59.24C144.105 66.4267 147.278 75.0133 147.278 85C147.278 94.9867 144.105 103.573 137.758 110.76C131.411 117.947 123.618 121.54 114.378 121.54C109.898 121.54 105.838 120.607 102.198 118.74C98.5579 116.873 95.8512 114.68 94.0779 112.16V149.26ZM97.2979 98.72C100.565 102.267 104.858 104.04 110.178 104.04C115.498 104.04 119.745 102.267 122.918 98.72C126.185 95.1733 127.818 90.6 127.818 85C127.818 79.4 126.185 74.8267 122.918 71.28C119.745 67.7333 115.498 65.96 110.178 65.96C104.858 65.96 100.565 67.7333 97.2979 71.28C94.1245 74.8267 92.5379 79.4 92.5379 85C92.5379 90.6 94.1245 95.1733 97.2979 98.72ZM165.224 38.52C161.957 38.52 159.111 37.3533 156.684 35.02C154.257 32.5933 153.044 29.7 153.044 26.34C153.044 22.98 154.257 20.1333 156.684 17.8C159.111 15.3733 161.957 14.16 165.224 14.16C168.677 14.16 171.571 15.3733 173.904 17.8C176.331 20.1333 177.544 22.98 177.544 26.34C177.544 29.7 176.331 32.5933 173.904 35.02C171.571 37.3533 168.677 38.52 165.224 38.52ZM155.704 120V50H174.884V120H155.704ZM187.702 120V50H206.882V57.98C211.175 51.6333 217.848 48.46 226.902 48.46C235.302 48.46 241.882 51.26 246.642 56.86C251.495 62.3667 253.922 69.74 253.922 78.98V120H234.742V82.2C234.742 77.0667 233.668 73.1 231.522 70.3C229.375 67.4067 226.342 65.96 222.422 65.96C217.755 65.96 213.975 67.64 211.082 71C208.282 74.36 206.882 79.3067 206.882 85.84V120H187.702Z" fill="white"/>
    </g>
    <g filter="url(#filter1_d_0_1)">
        <path d="M24.9601 37.44C21.9735 37.44 19.4535 36.4533 17.4001 34.48C15.3735 32.48 14.3601 29.9867 14.3601 27C14.3601 24.0133 15.3735 21.5333 17.4001 19.56C19.4535 17.56 21.9735 16.56 24.9601 16.56C27.0135 16.56 28.8801 17.0933 30.5601 18.16C32.2668 19.2 33.5601 20.5867 34.4401 22.32L29.6801 24.88C29.2535 23.92 28.6268 23.1467 27.8001 22.56C27.0001 21.9733 26.0535 21.68 24.9601 21.68C23.5201 21.68 22.3068 22.1867 21.3201 23.2C20.3601 24.2133 19.8801 25.48 19.8801 27C19.8801 28.52 20.3601 29.7867 21.3201 30.8C22.3068 31.8133 23.5201 32.32 24.9601 32.32C26.0535 32.32 27.0001 32.0267 27.8001 31.44C28.6268 30.8533 29.2535 30.08 29.6801 29.12L34.4401 31.68C33.5601 33.4133 32.2668 34.8133 30.5601 35.88C28.8801 36.92 27.0135 37.44 24.9601 37.44ZM36.3448 37V7H41.8248V37H36.3448ZM48.207 13.72C47.2737 13.72 46.4603 13.3867 45.767 12.72C45.0737 12.0267 44.727 11.2 44.727 10.24C44.727 9.28 45.0737 8.46667 45.767 7.8C46.4603 7.10667 47.2737 6.76 48.207 6.76C49.1937 6.76 50.0203 7.10667 50.687 7.8C51.3803 8.46667 51.727 9.28 51.727 10.24C51.727 11.2 51.3803 12.0267 50.687 12.72C50.0203 13.3867 49.1937 13.72 48.207 13.72ZM45.487 37V17H50.967V37H45.487ZM63.9492 37.44C60.9625 37.44 58.4425 36.4533 56.3892 34.48C54.3625 32.48 53.3492 29.9867 53.3492 27C53.3492 24.0133 54.3625 21.5333 56.3892 19.56C58.4425 17.56 60.9625 16.56 63.9492 16.56C66.0025 16.56 67.8692 17.0933 69.5492 18.16C71.2559 19.2 72.5492 20.5867 73.4292 22.32L68.6692 24.88C68.2425 23.92 67.6159 23.1467 66.7892 22.56C65.9892 21.9733 65.0425 21.68 63.9492 21.68C62.5092 21.68 61.2959 22.1867 60.3092 23.2C59.3492 24.2133 58.8692 25.48 58.8692 27C58.8692 28.52 59.3492 29.7867 60.3092 30.8C61.2959 31.8133 62.5092 32.32 63.9492 32.32C65.0425 32.32 65.9892 32.0267 66.7892 31.44C67.6159 30.8533 68.2425 30.08 68.6692 29.12L73.4292 31.68C72.5492 33.4133 71.2559 34.8133 69.5492 35.88C67.8692 36.92 66.0025 37.44 63.9492 37.44ZM88.9739 37L80.8139 27.8V37H75.3339V7H80.8139V24.36L87.2939 17H93.8939L85.9739 26L95.7339 37H88.9739ZM111.736 37.24C109.496 37.24 107.656 36.6267 106.216 35.4C104.802 34.1467 104.096 32.3467 104.096 30V21.8H100.056V17H104.096V11.44H109.576V17H115.216V21.8H109.576V28.92C109.576 30.1467 109.842 31.0267 110.376 31.56C110.909 32.0667 111.776 32.32 112.976 32.32C113.829 32.32 114.576 32.2 115.216 31.96V36.8C114.256 37.0933 113.096 37.24 111.736 37.24ZM133.893 34.44C131.839 36.44 129.359 37.44 126.453 37.44C123.546 37.44 121.066 36.44 119.013 34.44C116.959 32.4133 115.933 29.9333 115.933 27C115.933 24.0933 116.959 21.6267 119.013 19.6C121.066 17.5733 123.546 16.56 126.453 16.56C129.359 16.56 131.839 17.5733 133.893 19.6C135.946 21.6267 136.973 24.0933 136.973 27C136.973 29.9333 135.946 32.4133 133.893 34.44ZM126.453 32.32C127.866 32.32 129.039 31.8267 129.973 30.84C130.933 29.8267 131.413 28.5467 131.413 27C131.413 25.4533 130.933 24.1867 129.973 23.2C129.039 22.1867 127.866 21.68 126.453 21.68C125.013 21.68 123.813 22.1867 122.853 23.2C121.919 24.1867 121.453 25.4533 121.453 27C121.453 28.5467 121.919 29.8267 122.853 30.84C123.813 31.8267 125.013 32.32 126.453 32.32Z" fill="white"/>
    </g>
    <defs>
        <filter id="filter0_d_0_1" x="0.920059" y="8.16" width="263.002" height="155.1" filterUnits="userSpaceOnUse" color-interpolation-filters="sRGB">
            <feFlood flood-opacity="0" result="BackgroundImageFix"/>
            <feColorMatrix in="SourceAlpha" type="matrix" values="0 0 0 0 0 0 0 0 0 0 0 0 0 0 0 0 0 0 127 0" result="hardAlpha"/>
            <feOffset dy="4"/>
            <feGaussianBlur stdDeviation="5"/>
            <feComposite in2="hardAlpha" operator="out"/>
            <feColorMatrix type="matrix" values="0 0 0 0 0.2 0 0 0 0 0.2 0 0 0 0 0.788235 0 0 0 0.5 0"/>
            <feBlend mode="normal" in2="BackgroundImageFix" result="effect1_dropShadow_0_1"/>
            <feBlend mode="normal" in="SourceGraphic" in2="effect1_dropShadow_0_1" result="shape"/>
        </filter>
        <filter id="filter1_d_0_1" x="4.36012" y="0.76001" width="142.613" height="50.68" filterUnits="userSpaceOnUse" color-interpolation-filters="sRGB">
            <feFlood flood-opacity="0" result="BackgroundImageFix"/>
            <feColorMatrix in="SourceAlpha" type="matrix" values="0 0 0 0 0 0 0 0 0 0 0 0 0 0 0 0 0 0 127 0" result="hardAlpha"/>
            <feOffset dy="4"/>
            <feGaussianBlur stdDeviation="5"/>
            <feComposite in2="hardAlpha" operator="out"/>
            <feColorMatrix type="matrix" values="0 0 0 0 0.2 0 0 0 0 0.2 0 0 0 0 0.788235 0 0 0 0.5 0"/>
            <feBlend mode="normal" in2="BackgroundImageFix" result="effect1_dropShadow_0_1"/>
            <feBlend mode="normal" in="SourceGraphic" in2="effect1_dropShadow_0_1" result="shape"/>
        </filter>
    </defs>
</svg>
