<svg width="295" height="102" viewBox="0 0 295 102" fill="none" xmlns="http://www.w3.org/2000/svg">
    <path d="M69.16 100L56 60.24L42.98 100H23.94L0.7 30H21.14L34.44 74.8L48.58 30H63.28L77.56 74.8L90.72 30H111.3L88.2 100H69.16ZM172.896 91.04C165.709 98.04 157.029 101.54 146.856 101.54C136.682 101.54 128.002 98.04 120.816 91.04C113.629 83.9467 110.036 75.2667 110.036 65C110.036 54.8267 113.629 46.1933 120.816 39.1C128.002 32.0067 136.682 28.46 146.856 28.46C157.029 28.46 165.709 32.0067 172.896 39.1C180.082 46.1933 183.676 54.8267 183.676 65C183.676 75.2667 180.082 83.9467 172.896 91.04ZM146.856 83.62C151.802 83.62 155.909 81.8933 159.176 78.44C162.536 74.8933 164.216 70.4133 164.216 65C164.216 59.5867 162.536 55.1533 159.176 51.7C155.909 48.1533 151.802 46.38 146.856 46.38C141.816 46.38 137.616 48.1533 134.256 51.7C130.989 55.1533 129.356 59.5867 129.356 65C129.356 70.4133 130.989 74.8933 134.256 78.44C137.616 81.8933 141.816 83.62 146.856 83.62ZM191.907 100V30H211.087V37.98C215.381 31.6333 222.054 28.46 231.107 28.46C239.507 28.46 246.087 31.26 250.847 36.86C255.701 42.3667 258.127 49.74 258.127 58.98V100H238.947V62.2C238.947 57.0667 237.874 53.1 235.727 50.3C233.581 47.4067 230.547 45.96 226.627 45.96C221.961 45.96 218.181 47.64 215.287 51C212.487 54.36 211.087 59.3067 211.087 65.84V100H191.907ZM275.016 64.16L271.376 37.84V0.599995H290.696V37.84L286.916 64.16H275.016ZM280.896 101.12C276.976 101.12 273.662 99.7667 270.956 97.06C268.249 94.3533 266.896 91.04 266.896 87.12C266.896 83.2 268.249 79.8867 270.956 77.18C273.662 74.4733 276.976 73.12 280.896 73.12C284.722 73.12 287.989 74.52 290.696 77.32C293.496 80.0267 294.896 83.2933 294.896 87.12C294.896 90.9467 293.496 94.26 290.696 97.06C287.989 99.7667 284.722 101.12 280.896 101.12Z" fill="white"/>
</svg>
