<svg width="328" height="93" viewBox="0 0 328 93" fill="none" xmlns="http://www.w3.org/2000/svg">
    <path d="M12.28 91V45.4H0.16V31H12.28V23.2C12.28 16.08 14.44 10.48 18.76 6.39999C23.08 2.31999 28.56 0.279995 35.2 0.279995C39.28 0.279995 42.76 0.719994 45.64 1.59999V16.12C43.72 15.4 41.48 15.04 38.92 15.04C35.32 15.04 32.72 15.84 31.12 17.44C29.52 18.96 28.72 21.56 28.72 25.24V31H45.64V45.4H28.72V91H12.28ZM73.2925 92.32C65.3725 92.32 58.6925 89.24 53.2525 83.08C47.8125 76.92 45.0925 69.56 45.0925 61C45.0925 52.44 47.8125 45.08 53.2525 38.92C58.6925 32.76 65.3725 29.68 73.2925 29.68C77.1325 29.68 80.5725 30.48 83.6125 32.08C86.6525 33.68 88.9725 35.56 90.5725 37.72V31H107.013V91H90.5725V84.28C88.9725 86.44 86.6525 88.32 83.6125 89.92C80.5725 91.52 77.1325 92.32 73.2925 92.32ZM65.7325 72.76C68.5325 75.8 72.2125 77.32 76.7725 77.32C81.3325 77.32 84.9725 75.8 87.6925 72.76C90.4925 69.72 91.8925 65.8 91.8925 61C91.8925 56.2 90.4925 52.28 87.6925 49.24C84.9725 46.2 81.3325 44.68 76.7725 44.68C72.2125 44.68 68.5325 46.2 65.7325 49.24C63.0125 52.28 61.6525 56.2 61.6525 61C61.6525 65.8 63.0125 69.72 65.7325 72.76ZM126.355 21.16C123.555 21.16 121.115 20.16 119.035 18.16C116.955 16.08 115.915 13.6 115.915 10.72C115.915 7.84 116.955 5.4 119.035 3.4C121.115 1.32 123.555 0.279995 126.355 0.279995C129.315 0.279995 131.795 1.32 133.795 3.4C135.875 5.4 136.915 7.84 136.915 10.72C136.915 13.6 135.875 16.08 133.795 18.16C131.795 20.16 129.315 21.16 126.355 21.16ZM118.195 91V31H134.635V91H118.195ZM145.622 91V0.999993H162.062V91H145.622ZM201.008 92.32C191.888 92.32 184.288 89.44 178.208 83.68C172.208 77.92 169.208 70.36 169.208 61C169.208 52.04 172.208 44.6 178.208 38.68C184.208 32.68 191.728 29.68 200.768 29.68C209.088 29.68 216.088 32.28 221.768 37.48C227.448 42.6 230.288 49.84 230.288 59.2C230.288 61.84 230.208 63.72 230.048 64.84H185.168C185.648 68.76 187.368 71.84 190.328 74.08C193.368 76.24 196.968 77.32 201.128 77.32C208.168 77.32 213.328 74.8 216.608 69.76L228.848 78.88C222.688 87.84 213.408 92.32 201.008 92.32ZM185.768 53.68H213.848C213.128 50.24 211.488 47.64 208.928 45.88C206.448 44.12 203.568 43.24 200.288 43.24C196.928 43.24 193.848 44.12 191.048 45.88C188.248 47.64 186.488 50.24 185.768 53.68ZM261.983 92.32C254.063 92.32 247.383 89.24 241.943 83.08C236.503 76.92 233.783 69.56 233.783 61C233.783 52.44 236.503 45.08 241.943 38.92C247.383 32.76 254.063 29.68 261.983 29.68C265.823 29.68 269.263 30.48 272.303 32.08C275.343 33.68 277.663 35.56 279.263 37.72V0.999993H295.703V91H279.263V84.28C277.663 86.44 275.343 88.32 272.303 89.92C269.263 91.52 265.823 92.32 261.983 92.32ZM254.423 72.76C257.223 75.8 260.903 77.32 265.463 77.32C270.023 77.32 273.663 75.8 276.383 72.76C279.183 69.72 280.583 65.8 280.583 61C280.583 56.2 279.183 52.28 276.383 49.24C273.663 46.2 270.023 44.68 265.463 44.68C260.903 44.68 257.223 46.2 254.423 49.24C251.703 52.28 250.343 56.2 250.343 61C250.343 65.8 251.703 69.72 254.423 72.76ZM315.646 91.96C312.286 91.96 309.446 90.8 307.126 88.48C304.806 86.16 303.646 83.32 303.646 79.96C303.646 76.6 304.806 73.76 307.126 71.44C309.446 69.12 312.286 67.96 315.646 67.96C318.926 67.96 321.726 69.16 324.046 71.56C326.446 73.88 327.646 76.68 327.646 79.96C327.646 83.24 326.446 86.08 324.046 88.48C321.726 90.8 318.926 91.96 315.646 91.96Z" fill="white"/>
</svg>
