<svg width="196" height="26" viewBox="0 0 196 26" fill="none" xmlns="http://www.w3.org/2000/svg">
    <path d="M40.6779 5.50562C44.6954 5.50562 47.5891 8.57323 47.5891 12.5173C47.5891 16.4614 44.6954 19.529 40.6779 19.529C36.6603 19.529 33.7906 16.4614 33.7906 12.5173C33.7906 8.57323 36.6603 5.50562 40.6779 5.50562ZM40.6779 16.924C43.1889 16.924 44.9585 15.025 44.9585 12.5417C44.9585 10.0583 43.1889 8.15935 40.6779 8.15935C38.1669 8.15935 36.3973 10.0583 36.3973 12.5417C36.3973 15.025 38.1908 16.924 40.6779 16.924Z" fill="#3333C9"/>
    <path d="M56.8677 17.4108H51.9175L51.2958 19.3585H48.6891L53.0893 5.72461H55.7916L60.1679 19.3585H57.5134L56.8677 17.4108V17.4108ZM56.0547 14.8301L54.4046 9.66869L52.7545 14.8301H56.0547V14.8301Z" fill="#3333C9"/>
    <path d="M66.6008 8.06179C65.3094 8.06179 64.4963 8.76783 64.4963 9.69298C64.4963 10.2773 64.855 10.6912 65.429 10.9103C66.2899 11.2268 67.6052 11.0564 68.8726 11.4459C70.5705 11.9572 71.6227 13.2962 71.6227 15.1222C71.6227 17.7029 69.6857 19.5775 66.7442 19.5775C63.8028 19.5775 61.7701 17.8003 61.7701 15.2196H64.3768C64.3768 16.2908 65.4051 17.0212 66.7682 17.0212C68.1313 17.0212 69.0161 16.2664 69.0161 15.2683C69.0161 14.5866 68.5856 14.1727 68.0595 13.9779C67.1986 13.6614 65.7877 13.7588 64.592 13.4179C62.8223 12.9067 61.8658 11.5433 61.8658 9.81471C61.8658 7.3314 63.8028 5.52979 66.6247 5.52979C69.4465 5.52979 71.4075 7.23402 71.4075 9.71733H68.7769C68.7769 8.69479 67.8921 8.06179 66.6008 8.06179V8.06179Z" fill="#3333C9"/>
    <path d="M74.349 5.72461H76.9795V19.3585H74.349V5.72461Z" fill="#3333C9"/>
    <path d="M84.5842 8.06179C83.2928 8.06179 82.4797 8.76783 82.4797 9.69298C82.4797 10.2773 82.8385 10.6912 83.4124 10.9103C84.2733 11.2268 85.5886 11.0564 86.856 11.4459C88.5539 11.9572 89.6062 13.2962 89.6062 15.1222C89.6062 17.7029 87.6691 19.5775 84.7277 19.5775C81.7862 19.5775 79.7535 17.8003 79.7535 15.2196H82.3602C82.3602 16.2908 83.3885 17.0212 84.7516 17.0212C86.1147 17.0212 86.9995 16.2664 86.9995 15.2683C86.9995 14.5866 86.5691 14.1727 86.0429 13.9779C85.182 13.6614 83.7711 13.7588 82.5754 13.4179C80.8058 12.9067 79.8492 11.5433 79.8492 9.81471C79.8492 7.3314 81.7862 5.52979 84.6081 5.52979C87.43 5.52979 89.3909 7.23402 89.3909 9.71733H86.7604C86.7604 8.69479 85.8756 8.06179 84.5842 8.06179V8.06179Z" fill="#3333C9"/>
    <path d="M109 5.72461V19.3585H106.394L100.798 10.4478V19.3585H98.1913V5.72461H100.798L106.394 14.6353V5.72461H109Z" fill="#3333C9"/>
    <path d="M112.372 5.72461H122.775V8.32965H114.979V11.1782H119.307V13.7832H114.979V16.7047H122.775V19.3098H112.372V5.72461Z" fill="#3333C9"/>
    <path d="M128.682 8.32965H124.784V5.72461H135.186V8.32965H131.288V19.3585H128.658L128.682 8.32965V8.32965Z" fill="#3333C9"/>
    <path d="M154.174 5.72461L150.348 19.3585H147.574L145.422 11.8112L143.293 19.3585H140.543L136.693 5.72461H139.395L141.954 15.244L144.513 5.72461H146.354L148.889 15.1466L151.52 5.72461H154.174V5.72461Z" fill="#3333C9"/>
    <path d="M162.329 5.50562C166.346 5.50562 169.24 8.57323 169.24 12.5173C169.24 16.4614 166.346 19.529 162.329 19.529C158.311 19.529 155.442 16.4614 155.442 12.5173C155.442 8.57323 158.311 5.50562 162.329 5.50562ZM162.329 16.924C164.84 16.924 166.61 15.025 166.61 12.5417C166.61 10.0583 164.84 8.15935 162.329 8.15935C159.818 8.15935 158.048 10.0583 158.048 12.5417C158.048 15.025 159.842 16.924 162.329 16.924Z" fill="#3333C9"/>
    <path d="M177.108 15.2926H174.645V19.3341H172.014V5.7002H177.706C180.528 5.7002 182.536 7.72093 182.536 10.4964C182.536 12.4441 181.532 14.0509 179.93 14.7813L182.799 19.3097H179.714L177.108 15.2926V15.2926ZM174.645 12.7119H177.753C179.045 12.7119 179.93 11.7867 179.93 10.5207C179.93 9.25474 179.045 8.32958 177.777 8.32958H174.669L174.645 12.7119Z" fill="#3333C9"/>
    <path d="M192.7 19.3585L188.084 13.1745V19.3585H185.454V5.72461H188.084V11.8598L192.7 5.72461H195.928L190.787 12.4685L196 19.3585H192.7Z" fill="#3333C9"/>
    <path fill-rule="evenodd" clip-rule="evenodd" d="M21.8336 5.72464C19.9922 3.33871 17.3138 1.82925 14.3245 1.82925C8.56125 1.82925 4.35237 7.28279 4.35237 13.1989C4.35237 17.3134 7.03075 20.4054 10.02 20.4054C10.307 20.4054 10.57 20.381 10.857 20.3323C8.84822 18.8229 7.55686 16.0961 7.55686 13.1746C7.55686 8.5001 10.6657 4.87252 14.3245 4.87252C18.3182 4.87252 21.0922 8.91398 21.0922 13.1746C21.0922 16.3396 19.9683 19.4802 18.0312 21.7931C16.3333 23.8138 14.1332 25.1042 11.7179 25.4937C11.7179 25.4937 11.9092 25.5181 12.1723 25.5181C18.8682 25.5181 24.2967 19.9915 24.2967 13.1746C24.2967 10.3748 23.388 7.79406 21.8336 5.72464ZM19.9922 13.1746C19.9922 9.06006 17.3138 5.9681 14.3245 5.9681C14.0376 5.9681 13.7745 5.99244 13.4876 6.04114C15.4963 7.52625 16.7638 10.2287 16.7638 13.1746C16.7638 17.849 13.655 21.4766 9.99609 21.4766C6.00244 21.4766 3.2284 17.4351 3.2284 13.1746C3.2284 10.0096 4.35237 6.86891 6.28941 4.55602C7.98731 2.53529 10.1874 1.24494 12.6027 0.855401C12.6027 0.855401 12.4114 0.831055 12.1245 0.831055C5.4285 0.831055 0 6.35764 0 13.1746C0 15.9744 0.908736 18.5551 2.46315 20.6245C4.30454 23.0104 7.00683 24.5199 9.97218 24.5199C15.7833 24.5442 19.9922 19.0907 19.9922 13.1746V13.1746Z" fill="#3333C9"/>
</svg>
