<?xml version="1.0" encoding="utf-8"?>
<!-- Generator: Adobe Illustrator 28.0.0, SVG Export Plug-In . SVG Version: 6.00 Build 0)  -->
<svg version="1.1" id="Layer_1" xmlns="http://www.w3.org/2000/svg" xmlns:xlink="http://www.w3.org/1999/xlink" x="0px" y="0px"
	 viewBox="0 0 926.5 951.5" style="enable-background:new 0 0 926.5 951.5;" xml:space="preserve">
<style type="text/css">
	.st0{fill:#FFFFFF;stroke:#000000;stroke-miterlimit:10;}
	.st1{fill-rule:evenodd;clip-rule:evenodd;fill:#3737C5;}
	.st2{fill:#3737C5;}
	.st3{fill:#06F2F2;}
</style>
<rect class="st0" width="926.5" height="951.5"/>
<g>
	<path class="st1" d="M744.2,234.9C687.9,166,606,122.5,514.8,122.5C338.9,122.5,210,279.8,210,450.2C210,568.8,291.9,658,383.1,658
		c8.8,0,16.7-0.9,25.6-2.2c-61.4-43.5-101-122.1-101-206.5c0-134.9,94.9-239.4,206.6-239.4c121.9,0,206.6,116.4,206.6,239.4
		c0,91.4-34.4,181.9-93.5,248.6c-51.6,58.4-119.1,95.3-192.6,106.7c0,0,6.1,0.9,14,0.9c204.7,0,370.4-159.5,370.4-355.8
		c0-80.8-27.9-155.1-75.4-214.8L744.2,234.9L744.2,234.9z M687.9,449.8C687.9,331.1,606,242,514.8,242c-8.8,0-16.7,0.9-25.6,2.2
		c61.4,43,100,120.8,100,205.6c0,134.9-94.9,239.4-206.6,239.4c-121.9,0-206.6-116.4-206.6-239.4c0-91.4,34.4-181.9,93.5-248.6
		c51.6-58.4,119.1-95.3,192.6-106.7c0,0-6.1-0.9-14.4-0.9C243.1,93.5,77.4,253,77.4,449.3c0,80.8,27.9,155.1,75.4,214.8
		c56.3,69,138.7,112.5,229.4,112.5c177.7,0.9,306.2-156.4,306.2-327.3L687.9,449.8L687.9,449.8z"/>
	<g>
		<circle class="st2" cx="604.8" cy="593.7" r="202.7"/>
		<path id="fill" class="st3" d="M824.8,601.1c-2.6-4.6-2.6-10.3,0-14.9l17-29.9c7.6-13.4,9.3-29.6,4.5-44.3
			c-4.8-14.7-15.6-26.8-29.7-33.2l-31.4-14.2c-4.8-2.2-8.2-6.8-8.7-12l-3.8-34.2c-1.7-15.4-9.9-29.4-22.4-38.5
			c-12.5-9.1-28.4-12.5-43.5-9.4l-33.7,6.9c-5.2,1.1-10.6-0.7-14.2-4.6l-23.2-25.4c-10.4-11.4-25.3-18-40.7-18
			c-15.5,0-30.3,6.5-40.7,18l-23.2,25.4c-3.6,3.9-9,5.7-14.2,4.6l-33.7-6.9c-15.1-3.1-31,0.3-43.5,9.4S419,403,417.3,418.3
			l-3.8,34.2c-0.6,5.2-3.9,9.9-8.7,12l-31.4,14.2c-14.1,6.4-24.9,18.5-29.7,33.2c-4.8,14.7-3.1,30.8,4.5,44.3l17,29.9
			c2.6,4.6,2.6,10.3,0,14.9l-17,29.9c-7.6,13.4-9.3,29.6-4.5,44.3c4.8,14.7,15.6,26.8,29.7,33.2l31.4,14.2c4.8,2.2,8.2,6.8,8.7,12
			l3.8,34.2c1.7,15.4,9.9,29.4,22.4,38.5c12.5,9.1,28.4,12.5,43.5,9.4l33.7-6.9c5.2-1.1,10.6,0.7,14.2,4.6l23.2,25.4
			c10.4,11.4,25.3,18,40.7,18c15.5,0,30.3-6.5,40.7-18l23.2-25.4c3.6-3.9,9-5.7,14.2-4.6l33.7,6.9c15.1,3.1,31-0.3,43.5-9.4
			c12.5-9.1,20.7-23.1,22.4-38.5l3.8-34.2c0.6-5.2,3.9-9.9,8.7-12l31.4-14.2c14.1-6.4,24.9-18.5,29.7-33.2
			c4.8-14.7,3.1-30.8-4.5-44.3L824.8,601.1L824.8,601.1z M698.7,543.3l-129,129c-3.9,3.9-9,5.9-14.2,5.9s-10.3-2-14.2-5.9l-50-50
			c-7.8-7.8-7.8-20.5,0-28.4c7.8-7.8,20.5-7.8,28.4,0l35.8,35.8L670.3,515c7.8-7.8,20.5-7.8,28.4,0
			C706.5,522.8,706.5,535.5,698.7,543.3z"/>
	</g>
</g>
</svg>
