<svg width="146" height="150" viewBox="0 0 146 150" fill="none" xmlns="http://www.w3.org/2000/svg">
<rect width="146" height="150" fill="white"/>
<g clip-path="url(#clip0_10_801)">
<path d="M110.87 26.09C105.54 20.65 99.22 16.18 92.24 12.92C91.96 12.77 91.67 12.64 91.37 12.52C90 11.91 88.61 11.32 87.19 10.81C83.21 9.36 79.05 8.31 74.74 7.68C71.73 7.24 68.66 7 65.53 7C30.5 7 2 35.5 2 70.53C2 97.82 19.3 121.14 43.51 130.12C46.36 131.18 49.3 132.03 52.32 132.67C56.58 133.58 61 134.06 65.53 134.06C89.66 134.06 110.69 120.53 121.44 100.67C126.3 91.7 129.06 81.43 129.06 70.53C129.06 53.25 122.11 37.56 110.87 26.09ZM20.95 104.52C13.44 94.62 9.48 82.81 9.48 70.36C9.48 49.11 21.26 30.56 38.64 20.89C39.1 20.63 39.55 21.24 39.17 21.6C37.58 23.09 36.06 24.69 34.6 26.39C24.53 38.17 18.73 54.19 18.68 70.35C18.68 91.33 32.72 113.98 55.39 113.98C75.63 113.98 92.09 94.41 92.09 70.35C92.09 59.05 88.3 48.19 81.83 40.14C81.6 39.86 81.87 39.45 82.22 39.56C93.16 42.79 101.34 55.38 101.34 70.36C101.34 83.59 96.54 96.76 88.17 106.49C79.5 116.58 67.85 122.14 55.39 122.14C42.26 122.14 29.7 115.7 20.95 104.52ZM111.11 36.23C118.61 46.11 122.57 57.9 122.56 70.35C122.56 91.6 110.78 110.16 93.4 119.82C92.94 120.08 92.49 119.47 92.87 119.11C94.46 117.62 95.98 116.02 97.44 114.32C107.51 102.54 113.31 86.53 113.36 70.36C113.36 49.38 99.32 26.73 76.65 26.73C56.41 26.73 39.95 46.3 39.95 70.36C39.95 81.66 43.74 92.52 50.21 100.58C50.44 100.86 50.17 101.27 49.82 101.16C38.88 97.93 30.7 85.35 30.7 70.37C30.7 57.15 35.5 43.98 43.87 34.25C52.55 24.16 64.19 18.6 76.67 18.6C89.79 18.6 102.35 25.03 111.13 36.25L111.11 36.23ZM85.45 70.36C85.45 85.35 78.17 98.28 67.74 104.09C66.45 104.81 64.85 104.72 63.66 103.85L61.43 102.22C52.28 95.54 46.59 83.33 46.59 70.35C46.59 55.36 53.87 42.43 64.3 36.63C65.59 35.91 67.19 36 68.38 36.87L70.61 38.5C79.76 45.18 85.45 57.39 85.45 70.37V70.36Z" fill="#0500E0"/>
<path d="M141.89 96.73C141.89 72.4184 122.182 52.71 97.8701 52.71C73.5585 52.71 53.8501 72.4184 53.8501 96.73C53.8501 121.042 73.5585 140.75 97.8701 140.75C122.182 140.75 141.89 121.042 141.89 96.73Z" fill="#00FFFF" stroke="#0500E0" stroke-width="4" stroke-miterlimit="10"/>
<path d="M119.74 75.95C122.66 78.84 125.51 81.66 128.33 84.45C116.22 96.56 104.11 108.66 92.07 120.71C85.23 113.87 78.36 107 71.5 100.14C74.25 97.42 77.09 94.61 79.95 91.77C83.89 95.71 87.92 99.74 91.94 103.76C101.26 94.44 110.51 85.19 119.75 75.96L119.74 75.95Z" fill="#0500E0"/>
</g>
<defs>
<clipPath id="clip0_10_801">
<rect width="141.89" height="135.75" fill="white" transform="translate(2 7)"/>
</clipPath>
</defs>
</svg>
