<?xml version="1.0" encoding="UTF-8"?>
<svg id="Layer_1" data-name="Layer 1" xmlns="http://www.w3.org/2000/svg" viewBox="0 0 926.45 951.48">
  <defs>
    <style>
      .cls-1 {
        fill-rule: evenodd;
      }

      .cls-1, .cls-2 {
        fill: #3737c5;
      }

      .cls-1, .cls-2, .cls-3 {
        stroke-width: 0px;
      }

      .cls-3 {
        fill: #06f2f2;
      }
    </style>
  </defs>
  <path class="cls-1" d="m790.37,194.33c-63.73-78.07-156.42-127.3-259.65-127.3-199.08,0-344.98,178.02-344.98,370.96,0,134.26,92.7,235.2,195.92,235.2,10.01,0,18.96-.99,28.97-2.49-69.52-49.23-114.29-138.24-114.29-233.71,0-152.66,107.44-271.01,233.85-271.01,137.99,0,233.85,131.77,233.85,271.01,0,103.43-38.97,205.87-105.86,281.45-58.46,66.14-134.83,107.91-218.05,120.83,0,0,6.85.99,15.8.99,231.74,0,419.24-180.51,419.24-402.78,0-91.5-31.6-175.53-85.32-243.16h.53Zm-63.73,243.16c0-134.26-92.7-235.2-195.92-235.2-10.01,0-18.96.99-28.97,2.49,69.52,48.73,113.24,136.75,113.24,232.72,0,152.66-107.44,271.01-233.85,271.01-137.99,0-233.85-131.77-233.85-271.01,0-103.43,38.97-205.87,105.86-281.45,58.46-66.14,134.83-107.91,218.05-120.83,0,0-6.85-.99-16.33-.99-231.74,0-419.24,180.51-419.24,402.78,0,91.5,31.6,175.53,85.32,243.16,63.73,78.07,156.95,127.3,259.65,127.3,201.19.99,346.56-177.03,346.56-370.46l-.53.5Z"/>
  <g>
    <circle class="cls-2" cx="632.58" cy="600.42" r="229.5"/>
    <path id="fill" class="cls-3" d="m881.7,608.84c-2.95-5.19-2.95-11.65,0-16.84l19.25-33.89c8.64-15.22,10.5-33.49,5.09-50.13-5.41-16.64-17.65-30.34-33.58-37.57l-35.49-16.1c-5.44-2.47-9.23-7.69-9.9-13.63l-4.35-38.73c-1.95-17.39-11.19-33.26-25.35-43.55-14.16-10.29-32.11-14.17-49.25-10.65l-38.18,7.83c-5.85,1.2-11.99-.79-16.02-5.21l-26.28-28.78c-11.8-12.92-28.61-20.33-46.11-20.33s-34.3,7.41-46.11,20.33l-26.28,28.78c-4.03,4.41-10.16,6.41-16.02,5.2l-38.18-7.83c-17.14-3.52-35.09.37-49.25,10.65-14.16,10.28-23.4,26.16-25.35,43.55l-4.35,38.73c-.67,5.94-4.46,11.16-9.9,13.63l-35.49,16.1c-15.94,7.23-28.18,20.92-33.58,37.57-5.41,16.64-3.55,34.92,5.09,50.14l19.24,33.89c2.95,5.2,2.95,11.65,0,16.84l-19.25,33.89c-8.64,15.22-10.5,33.49-5.09,50.13s17.65,30.34,33.58,37.57l35.49,16.1c5.44,2.47,9.23,7.69,9.9,13.63l4.35,38.73c1.95,17.39,11.19,33.26,25.35,43.55,14.16,10.29,32.11,14.17,49.25,10.65l38.17-7.83c5.85-1.2,11.99.79,16.02,5.21l26.28,28.78c11.8,12.92,28.61,20.33,46.11,20.33s34.3-7.41,46.11-20.33l26.28-28.78c4.03-4.41,10.17-6.41,16.02-5.21l38.18,7.83c17.14,3.52,35.09-.37,49.25-10.65,14.16-10.29,23.4-26.16,25.35-43.55l4.35-38.73c.67-5.94,4.46-11.16,9.9-13.63l35.49-16.1c15.94-7.23,28.18-20.93,33.58-37.57s3.55-34.91-5.09-50.13l-19.25-33.89Zm-142.79-65.41l-146.07,146.07c-4.43,4.43-10.24,6.65-16.05,6.65s-11.62-2.21-16.05-6.65l-56.61-56.61c-8.86-8.86-8.86-23.23,0-32.1,8.86-8.86,23.23-8.86,32.1,0l40.56,40.56,130.02-130.02c8.86-8.86,23.23-8.86,32.1,0,8.86,8.86,8.86,23.23,0,32.1Z"/>
  </g>
</svg>