<?xml version="1.0" encoding="UTF-8"?>
<svg id="Layer_2" data-name="Layer 2" xmlns="http://www.w3.org/2000/svg" viewBox="0 0 875.88 146.19">
  <defs>
    <style>
      .cls-1 {
        fill: #fff;
        stroke-width: 0px;
      }
    </style>
  </defs>
  <g id="Layer_1-2" data-name="Layer 1">
    <g>
      <g>
        <path class="cls-1" d="M125.26,21.97c-6.14-6.26-13.4-11.41-21.44-15.15-.33-.17-.66-.32-1-.47-1.58-.71-3.18-1.38-4.81-1.97-4.58-1.66-9.37-2.88-14.32-3.6-3.46-.5-7-.78-10.6-.78C32.79,0,0,32.79,0,73.09c0,31.4,19.9,58.23,47.76,68.56,3.28,1.21,6.66,2.2,10.14,2.93,4.91,1.04,9.99,1.6,15.2,1.6,27.76,0,51.96-15.56,64.33-38.42,5.59-10.32,8.77-22.14,8.77-34.68,0-19.89-7.99-37.94-20.92-51.13ZM21.8,112.2c-8.64-11.39-13.2-24.98-13.2-39.3,0-24.45,13.56-45.8,33.55-56.91.53-.29,1.05.41.61.82-1.83,1.72-3.58,3.56-5.25,5.52-11.59,13.55-18.26,31.98-18.32,50.58,0,24.14,16.15,50.2,42.24,50.2,23.28,0,42.23-22.52,42.23-50.2,0-13.01-4.36-25.5-11.81-34.76-.26-.33.05-.79.45-.67,12.59,3.72,22,18.2,22,35.44,0,15.22-5.52,30.37-15.15,41.57-9.98,11.61-23.38,18.01-37.72,18.01-15.1,0-29.56-7.41-39.63-20.28ZM125.54,33.63c8.63,11.36,13.18,24.94,13.17,39.25,0,24.45-13.56,45.8-33.55,56.92-.53.29-1.05-.41-.61-.82,1.83-1.72,3.58-3.56,5.25-5.52,11.59-13.55,18.26-31.98,18.32-50.58,0-24.14-16.15-50.2-42.24-50.2-23.28,0-42.23,22.52-42.23,50.2,0,13.01,4.36,25.5,11.81,34.77.26.33-.05.79-.45.67-12.59-3.72-22-18.19-22-35.42,0-15.22,5.52-30.37,15.15-41.56,9.98-11.61,23.38-18.01,37.73-18.01,15.09,0,29.54,7.4,39.65,20.3ZM96.02,72.89c0,17.24-8.38,32.12-20.38,38.8-1.49.83-3.32.72-4.7-.28l-2.57-1.87c-10.53-7.68-17.07-21.73-17.07-36.67,0-17.24,8.38-32.12,20.38-38.8,1.49-.83,3.32-.72,4.7.28l2.57,1.87c10.53,7.68,17.07,21.73,17.07,36.66Z"/>
        <g>
          <path class="cls-1" d="M206.83,50.96c-3.26-2.09-7.08-3.13-11.44-3.13s-8.19,1.04-11.48,3.13c-3.29,2.09-5.83,5.07-7.63,8.96-1.8,3.89-2.7,8.52-2.7,13.89s.9,9.93,2.7,13.82c1.8,3.89,4.34,6.88,7.63,8.99,3.29,2.11,7.11,3.17,11.48,3.17s8.18-1.05,11.44-3.17c3.26-2.11,5.8-5.11,7.63-8.99,1.82-3.89,2.73-8.49,2.73-13.82s-.91-10.06-2.73-13.92c-1.82-3.86-4.37-6.84-7.63-8.92ZM204.93,83.16c-.93,2.59-2.23,4.57-3.89,5.94-1.65,1.37-3.54,2.05-5.65,2.05s-4.01-.68-5.68-2.05c-1.68-1.37-2.99-3.35-3.92-5.94-.94-2.59-1.4-5.71-1.4-9.35s.47-6.76,1.4-9.35c.93-2.59,2.24-4.57,3.92-5.94,1.68-1.37,3.57-2.05,5.68-2.05s3.99.68,5.65,2.05c1.66,1.37,2.95,3.33,3.89,5.9.94,2.57,1.4,5.7,1.4,9.39s-.47,6.76-1.4,9.35Z"/>
          <path class="cls-1" d="M235.85,50.42l-12.33,45.55c-.4,1.49.72,2.95,2.25,2.95h5.51c1.06,0,1.99-.72,2.26-1.74l1.89-7.17c.27-1.03,1.2-1.74,2.26-1.74h12.57c1.07,0,2,.72,2.26,1.75l1.85,7.15c.27,1.03,1.2,1.75,2.26,1.75h5.78c1.54,0,2.66-1.46,2.25-2.95l-12.4-45.55c-.28-1.02-1.2-1.72-2.25-1.72h-11.9c-1.05,0-1.98.71-2.25,1.73ZM241.18,79.63c-1.53,0-2.65-1.45-2.26-2.93l2.07-7.86.75-3.13c.57-2.39,3.97-2.39,4.54,0l.75,3.13,2.03,7.87c.38,1.48-.73,2.92-2.26,2.92h-5.63Z"/>
          <path class="cls-1" d="M321.01,51.03v3.96c0,1.29,1.05,2.34,2.34,2.34h3.75c1.29,0,2.34,1.05,2.34,2.34v28.28c0,1.29-1.05,2.34-2.34,2.34h-3.75c-1.29,0-2.34,1.05-2.34,2.34v3.96c0,1.29,1.05,2.34,2.34,2.34h22.6c1.29,0,2.34-1.05,2.34-2.34v-3.96c0-1.29-1.05-2.34-2.34-2.34h-3.75c-1.29,0-2.34-1.05-2.34-2.34v-28.28c0-1.29,1.05-2.34,2.34-2.34h3.75c1.29,0,2.34-1.05,2.34-2.34v-3.96c0-1.29-1.05-2.34-2.34-2.34h-22.6c-1.29,0-2.34,1.05-2.34,2.34Z"/>
          <path class="cls-1" d="M395.58,77.72c-.98-1.85-2.28-3.33-3.89-4.46-1.61-1.13-3.36-2.01-5.25-2.66-1.9-.65-3.8-1.2-5.72-1.65-1.92-.46-3.68-.94-5.29-1.44-1.61-.5-2.89-1.16-3.85-1.98-.96-.81-1.44-1.89-1.44-3.24,0-1.87.71-3.31,2.12-4.32,1.41-1.01,3.2-1.51,5.36-1.51,1.49,0,2.89.25,4.14.9,1.65.87,2.78,2.2,3.41,3.15.43.65,1.16,1.03,1.94,1.03h6.3c1.63,0,2.8-1.64,2.19-3.16-.43-1.08-.97-2.08-1.64-3-1.77-2.45-4.09-4.32-6.94-5.61-2.85-1.3-5.98-1.94-9.39-1.94-3.69,0-6.91.65-9.64,1.94-2.73,1.29-4.86,3.06-6.37,5.29-1.51,2.23-2.27,4.74-2.27,7.52s.48,4.9,1.44,6.65c.96,1.75,2.24,3.16,3.85,4.21,1.61,1.06,3.37,1.92,5.29,2.59,1.92.67,3.83,1.25,5.72,1.73,1.9.48,3.65,1,5.25,1.55,1.61.55,2.89,1.26,3.85,2.12.96.86,1.44,2.01,1.44,3.45,0,1.97-.73,3.5-2.19,4.61-1.46,1.1-3.42,1.65-5.86,1.65-3.02,0-5.32-.89-6.91-2.66-.66-.74-1.17-1.63-1.54-2.66s-1.3-1.69-2.38-1.69h-5.67c-1.56,0-2.67,1.49-2.25,2.99.38,1.36.89,2.64,1.54,3.81,1.58,2.83,3.84,5.01,6.76,6.55,2.93,1.53,6.41,2.3,10.43,2.3,3.65,0,6.9-.64,9.75-1.91,2.85-1.27,5.1-3.02,6.73-5.25,1.63-2.23,2.45-4.83,2.45-7.81s-.49-5.24-1.48-7.09Z"/>
          <path class="cls-1" d="M309.49,77.72c-.98-1.85-2.28-3.33-3.89-4.46-1.61-1.13-3.36-2.01-5.25-2.66-1.9-.65-3.8-1.2-5.72-1.65-1.92-.46-3.68-.94-5.29-1.44-1.61-.5-2.89-1.16-3.85-1.98-.96-.81-1.44-1.89-1.44-3.24,0-1.87.71-3.31,2.12-4.32,1.41-1.01,3.2-1.51,5.36-1.51,1.49,0,2.89.25,4.14.9,1.65.87,2.78,2.2,3.41,3.15.43.65,1.16,1.03,1.94,1.03h6.3c1.63,0,2.8-1.64,2.19-3.16-.43-1.08-.97-2.08-1.64-3-1.77-2.45-4.09-4.32-6.94-5.61-2.85-1.3-5.98-1.94-9.39-1.94-3.69,0-6.91.65-9.64,1.94-2.73,1.29-4.86,3.06-6.37,5.29-1.51,2.23-2.27,4.74-2.27,7.52s.48,4.9,1.44,6.65c.96,1.75,2.24,3.16,3.85,4.21,1.61,1.06,3.37,1.92,5.29,2.59,1.92.67,3.83,1.25,5.72,1.73,1.9.48,3.65,1,5.25,1.55,1.61.55,2.89,1.26,3.85,2.12.96.86,1.44,2.01,1.44,3.45,0,1.97-.73,3.5-2.19,4.61s-3.42,1.65-5.86,1.65c-3.02,0-5.32-.89-6.91-2.66-.66-.74-1.17-1.63-1.54-2.66-.37-1.01-1.3-1.69-2.38-1.69h-5.67c-1.56,0-2.67,1.49-2.25,2.99.38,1.36.89,2.64,1.54,3.81,1.58,2.83,3.84,5.01,6.76,6.55,2.93,1.53,6.41,2.3,10.43,2.3,3.65,0,6.9-.64,9.75-1.91,2.85-1.27,5.1-3.02,6.73-5.25,1.63-2.23,2.45-4.83,2.45-7.81s-.49-5.24-1.48-7.09Z"/>
        </g>
      </g>
      <g>
        <path class="cls-1" d="M445.84,50.52c-2.52-1.22-5.48-1.83-8.89-1.83h-16.88c-1.05,0-1.91.85-1.91,1.91v46.42c0,1.05.85,1.91,1.91,1.91h1.01c1.05,0,1.91-.85,1.91-1.91v-16.26c0-1.05.85-1.91,1.91-1.91h10.97c3.55,0,6.68-.63,9.39-1.91,2.71-1.27,4.81-3.05,6.3-5.33,1.49-2.28,2.23-4.93,2.23-7.95s-.7-5.72-2.09-7.95c-1.39-2.23-3.35-3.96-5.87-5.18ZM445.09,71.53c-2.35,1.99-5.45,2.99-9.28,2.99h-10.9c-1.05,0-1.91-.85-1.91-1.91v-17.7c0-1.05.85-1.91,1.91-1.91h12.05c3.5,0,6.32.97,8.46,2.92s3.2,4.52,3.2,7.74-1.18,5.89-3.53,7.88Z"/>
        <path class="cls-1" d="M470.24,48.68h-1.01c-1.05,0-1.91.85-1.91,1.91v46.42c0,1.05.85,1.91,1.91,1.91h28.64c1.05,0,1.91-.85,1.91-1.91v-.5c0-1.05-.85-1.91-1.91-1.91h-23.82c-1.05,0-1.91-.85-1.91-1.91v-42.1c0-1.05-.85-1.91-1.91-1.91Z"/>
        <path class="cls-1" d="M524.6,49.96l-16.09,46.42c-.43,1.24.49,2.53,1.8,2.53h1c.81,0,1.53-.51,1.8-1.28l4.21-12.05c.27-.77.99-1.28,1.8-1.28h18.37c.81,0,1.54.52,1.8,1.28l4.16,12.04c.27.77.99,1.28,1.8,1.28h1c1.31,0,2.23-1.29,1.8-2.53l-16.09-46.42c-.27-.77-.99-1.28-1.8-1.28h-3.76c-.81,0-1.54.51-1.8,1.28ZM521.96,79.99c-1.31,0-2.23-1.3-1.8-2.54l5.17-14.81,1.2-3.76c.56-1.77,3.08-1.77,3.64,0l1.14,3.61,5.17,14.96c.43,1.24-.49,2.53-1.8,2.53h-12.72Z"/>
        <path class="cls-1" d="M579.88,64.95l-3.19,5.97c-.72,1.35-2.66,1.34-3.37-.02l-3.08-5.88-8.88-15.38c-.34-.59-.97-.95-1.65-.95h-1c-1.47,0-2.38,1.58-1.65,2.86l15.24,26.57c.17.29.25.62.25.95v17.95c0,1.05.85,1.91,1.91,1.91h1.01c1.05,0,1.91-.85,1.91-1.91v-17.95c0-.34.09-.67.26-.96l15.42-26.56c.74-1.27-.18-2.86-1.65-2.86h-.99c-.68,0-1.31.36-1.65.95l-8.88,15.31Z"/>
        <path class="cls-1" d="M614.71,54.8c2.54-1.77,5.35-2.66,8.42-2.66,3.6,0,6.56,1.09,8.89,3.27,2.01,1.89,3.33,4.39,3.96,7.51.18.88.96,1.52,1.86,1.52h1.58c1.19,0,2.11-1.08,1.88-2.24-.48-2.51-1.35-4.73-2.6-6.65-1.61-2.47-3.73-4.38-6.37-5.72-2.64-1.34-5.66-2.02-9.07-2.02-4.32,0-8.13,1.1-11.44,3.31-3.31,2.21-5.91,5.25-7.81,9.14-1.9,3.89-2.84,8.4-2.84,13.53s.92,9.86,2.77,13.75c1.85,3.89,4.45,6.9,7.81,9.03,3.36,2.14,7.24,3.2,11.66,3.2,3.79,0,7.3-.75,10.54-2.27,3.03-1.42,5.47-3.37,7.3-5.86.24-.33.36-.73.36-1.13v-15.89c0-1.05-.85-1.91-1.91-1.91h-11.03c-1.02,0-1.85.8-1.9,1.81l-.02.46c-.06,1.11.84,2.03,1.95,2l6.15-.13c1.07-.02,1.95.84,1.95,1.91v10.14c0,.46-.16.92-.47,1.26-1.25,1.36-2.89,2.54-4.93,3.56-2.3,1.15-4.89,1.73-7.77,1.73-3.21,0-6.12-.83-8.71-2.48s-4.65-4.09-6.19-7.3c-1.54-3.21-2.3-7.17-2.3-11.87s.74-8.3,2.23-11.51c1.49-3.21,3.5-5.71,6.04-7.48Z"/>
        <path class="cls-1" d="M682.94,72.07c1.58-1.34,2.79-2.87,3.63-4.57s1.26-3.49,1.26-5.36c0-2.83-.71-5.25-2.12-7.27-1.42-2.01-3.35-3.55-5.79-4.61-2.45-1.05-5.21-1.58-8.28-1.58h-17.31c-1.05,0-1.91.85-1.91,1.91v46.42c0,1.05.85,1.91,1.91,1.91h.93c1.05,0,1.91-.85,1.91-1.91v-18.71c0-1.05.85-1.91,1.91-1.91h4.65c.33,0,.67.09.96.25,1.87,1.07,3.58,2.17,5.11,3.31,2.42,1.8,4.47,3.72,6.15,5.76,1.68,2.04,3.03,4.16,4.07,6.37.82,1.77,1.47,3.58,1.95,5.44.21.83.99,1.4,1.85,1.4h.95c1.21,0,2.12-1.11,1.88-2.29-.35-1.68-.83-3.31-1.44-4.9-.89-2.3-2.13-4.52-3.74-6.66-1.61-2.13-3.62-4.17-6.04-6.12-.01,0-.02-.02-.03-.03-1.25-1-.83-2.94.71-3.36.36-.1.71-.2,1.05-.32,2.28-.77,4.21-1.82,5.79-3.17ZM669.48,72.14h-10.4c-1.05,0-1.91-.85-1.91-1.91v-15.33c0-1.05.85-1.91,1.91-1.91h12.56c2.01,0,3.86.37,5.54,1.12,1.68.74,3.02,1.79,4.03,3.13,1.01,1.34,1.51,2.98,1.51,4.89,0,2.02-.58,3.78-1.73,5.29-1.15,1.51-2.71,2.67-4.68,3.49-1.97.82-4.25,1.22-6.84,1.22Z"/>
        <path class="cls-1" d="M726.33,51.02c-3.07-2.13-6.69-3.2-10.87-3.2s-7.8,1.07-10.87,3.2-5.45,5.16-7.12,9.07c-1.68,3.91-2.52,8.48-2.52,13.71s.84,9.79,2.52,13.67c1.68,3.89,4.05,6.91,7.12,9.07s6.69,3.24,10.87,3.24,7.8-1.08,10.87-3.24,5.45-5.18,7.12-9.07c1.68-3.89,2.52-8.44,2.52-13.67s-.84-9.8-2.52-13.71c-1.68-3.91-4.05-6.93-7.12-9.07ZM728.96,85.17c-1.27,3.26-3.06,5.79-5.36,7.59-2.3,1.8-5.01,2.7-8.13,2.7s-5.83-.9-8.13-2.7c-2.3-1.8-4.09-4.33-5.36-7.59-1.27-3.26-1.91-7.05-1.91-11.37s.63-8.11,1.91-11.37c1.27-3.26,3.06-5.79,5.36-7.59,2.3-1.8,5.01-2.7,8.13-2.7s5.83.9,8.13,2.7c2.3,1.8,4.09,4.32,5.36,7.56,1.27,3.24,1.91,7.04,1.91,11.41s-.64,8.11-1.91,11.37Z"/>
        <path class="cls-1" d="M776.06,81.21c0,2.83-.58,5.31-1.73,7.45-1.15,2.13-2.76,3.8-4.82,5-2.06,1.2-4.49,1.8-7.27,1.8s-5.22-.6-7.3-1.8c-2.09-1.2-3.71-2.87-4.86-5-1.15-2.13-1.73-4.62-1.73-7.45v-30.62c0-1.05-.85-1.91-1.91-1.91h-1.08c-1.05,0-1.91.85-1.91,1.91v30.62c0,3.7.8,6.93,2.41,9.72,1.61,2.78,3.82,4.95,6.66,6.51,2.83,1.56,6.07,2.34,9.71,2.34s6.87-.78,9.68-2.34,5.01-3.73,6.62-6.51c1.61-2.78,2.41-6.02,2.41-9.72v-30.62c0-1.05-.85-1.91-1.91-1.91h-1.08c-1.05,0-1.91.85-1.91,1.91v30.62Z"/>
        <path class="cls-1" d="M822.05,78.48l.2,6.21c.06,1.97-2.55,2.73-3.55,1.03l-21.21-36.09c-.34-.58-.97-.94-1.64-.94h-2.76c-1.05,0-1.91.85-1.91,1.91v46.42c0,1.05.85,1.91,1.91,1.91h.94c1.05,0,1.91-.85,1.91-1.91v-27.96l-.19-5.9c-.06-1.97,2.54-2.73,3.55-1.03l21.28,35.86c.34.58.97.93,1.64.93h2.69c1.05,0,1.91-.85,1.91-1.91v-46.42c0-1.05-.85-1.91-1.91-1.91h-.94c-1.05,0-1.91.85-1.91,1.91v27.89Z"/>
        <path class="cls-1" d="M874.22,63.36c-1.11-3.07-2.66-5.7-4.68-7.88-2.01-2.18-4.46-3.86-7.34-5.04-2.88-1.17-6.12-1.76-9.71-1.76h-12.63c-1.05,0-1.91.85-1.91,1.91v46.42c0,1.05.85,1.91,1.91,1.91h12.63c3.6,0,6.84-.59,9.71-1.76,2.88-1.17,5.33-2.88,7.34-5.11,2.01-2.23,3.57-4.89,4.68-7.99,1.1-3.09,1.65-6.56,1.65-10.4s-.55-7.22-1.65-10.29ZM868.5,84.67c-1.51,3.17-3.63,5.61-6.37,7.34-2.74,1.73-5.95,2.59-9.64,2.59h-7.81c-1.05,0-1.91-.85-1.91-1.91v-37.78c0-1.05.85-1.91,1.91-1.91h7.81c3.69,0,6.91.84,9.64,2.52,2.73,1.68,4.86,4.07,6.37,7.16,1.51,3.09,2.27,6.75,2.27,10.97s-.76,7.84-2.27,11.01Z"/>
      </g>
    </g>
  </g>
</svg>