<?xml version="1.0" encoding="UTF-8" standalone="no"?>
<svg
   id="Layer_1"
   data-name="Layer 1"
   viewBox="0 0 670.66998 246.94"
   version="1.1"
   sodipodi:docname="logo.svg"
   width="670.66998"
   height="246.94"
   inkscape:version="1.1.2 (0a00cf5339, 2022-02-04)"
   xmlns:inkscape="http://www.inkscape.org/namespaces/inkscape"
   xmlns:sodipodi="http://sodipodi.sourceforge.net/DTD/sodipodi-0.dtd"
   xmlns="http://www.w3.org/2000/svg"
   xmlns:svg="http://www.w3.org/2000/svg">
  <sodipodi:namedview
     id="namedview21"
     pagecolor="#ffffff"
     bordercolor="#666666"
     borderopacity="1.0"
     inkscape:pageshadow="2"
     inkscape:pageopacity="0.0"
     inkscape:pagecheckerboard="0"
     showgrid="false"
     fit-margin-top="0"
     fit-margin-left="0"
     fit-margin-right="0"
     fit-margin-bottom="0"
     inkscape:zoom="0.5962963"
     inkscape:cx="806.64596"
     inkscape:cy="111.52174"
     inkscape:window-width="1876"
     inkscape:window-height="1051"
     inkscape:window-x="0"
     inkscape:window-y="0"
     inkscape:window-maximized="1"
     inkscape:current-layer="Layer_1" />
  <defs
     id="defs4">
    <style
       id="style2">
      .cls-1 {
        fill: #0500e2;
        stroke-width: 0px;
      }
    </style>
  </defs>
  <path
     class="cls-1"
     d="M 211.59,37.1 C 201.22,26.52 188.96,17.84 175.38,11.51 174.83,11.23 174.27,10.97 173.69,10.72 171.02,9.53 168.32,8.39 165.56,7.39 157.83,4.58 149.73,2.53 141.37,1.31 135.52,0.46 129.55,0 123.47,0 55.39,0 0,55.39 0,123.47 c 0,53.04 33.62,98.37 80.67,115.81 5.53,2.05 11.25,3.71 17.13,4.96 8.29,1.76 16.87,2.7 25.67,2.7 46.9,0 87.76,-26.29 108.66,-64.89 9.44,-17.44 14.81,-37.39 14.81,-58.57 0,-33.59 -13.5,-64.08 -35.34,-86.36 z M 36.83,189.52 c -14.59,-19.24 -22.3,-42.2 -22.3,-66.39 0,-41.31 22.9,-77.36 56.67,-96.14 0.89,-0.5 1.78,0.69 1.03,1.39 -3.08,2.9 -6.05,6.01 -8.87,9.32 -19.57,22.89 -30.85,54.02 -30.95,85.43 0,40.78 27.28,84.8 71.35,84.8 39.33,0 71.33,-38.04 71.33,-84.8 0,-21.97 -7.37,-43.07 -19.94,-58.72 -0.44,-0.55 0.08,-1.34 0.76,-1.13 21.26,6.29 37.16,30.74 37.16,59.85 0,25.71 -9.33,51.3 -25.59,70.22 -16.86,19.61 -39.49,30.41 -63.72,30.42 -25.51,0 -49.93,-12.51 -66.94,-34.25 z M 212.06,56.8 c 14.58,19.2 22.27,42.12 22.25,66.3 0,41.31 -22.9,77.36 -56.67,96.14 -0.89,0.5 -1.78,-0.69 -1.03,-1.39 3.09,-2.91 6.05,-6.01 8.87,-9.32 19.57,-22.89 30.85,-54.02 30.95,-85.43 0,-40.78 -27.28,-84.8 -71.35,-84.8 -39.33,0 -71.33,38.04 -71.33,84.8 0,21.97 7.37,43.07 19.94,58.72 0.44,0.55 -0.08,1.34 -0.76,1.13 -21.26,-6.29 -37.16,-30.73 -37.16,-59.83 0,-25.7 9.33,-51.29 25.59,-70.21 16.86,-19.61 39.5,-30.41 63.74,-30.41 25.5,0 49.9,12.5 66.97,34.29 z m -49.87,66.33 c 0,29.12 -14.15,54.26 -34.43,65.54 -2.51,1.4 -5.61,1.22 -7.93,-0.47 l -4.34,-3.17 C 97.71,172.05 86.66,148.32 86.66,123.1 c 0,-29.12 14.15,-54.26 34.43,-65.54 2.51,-1.4 5.61,-1.22 7.93,0.47 l 4.34,3.16 c 17.79,12.98 28.84,36.71 28.84,61.93 z"
     id="path6"
     style="fill:#000000" />
  <g
     id="g18"
     transform="translate(-201.66,-427.58)"
     style="fill:#000000">
    <path
       class="cls-1"
       d="m 551.03,513.65 c -5.51,-3.53 -11.95,-5.29 -19.32,-5.29 -7.37,0 -13.84,1.76 -19.39,5.29 -5.55,3.52 -9.84,8.57 -12.88,15.13 -3.04,6.56 -4.56,14.38 -4.56,23.46 0,9.08 1.52,16.77 4.56,23.34 3.04,6.56 7.33,11.63 12.88,15.19 5.55,3.57 12.01,5.35 19.39,5.35 7.38,0 13.81,-1.78 19.32,-5.35 5.51,-3.56 9.8,-8.63 12.88,-15.19 3.08,-6.56 4.62,-14.34 4.62,-23.34 0,-9 -1.54,-16.99 -4.62,-23.52 -3.08,-6.52 -7.37,-11.55 -12.88,-15.07 z m -3.22,54.39 c -1.58,4.38 -3.77,7.72 -6.56,10.03 -2.79,2.31 -5.98,3.46 -9.54,3.46 -3.56,0 -6.77,-1.15 -9.6,-3.46 -2.84,-2.31 -5.04,-5.65 -6.62,-10.03 -1.58,-4.38 -2.37,-9.64 -2.37,-15.8 0,-6.16 0.79,-11.43 2.37,-15.8 1.58,-4.38 3.79,-7.72 6.62,-10.03 2.83,-2.31 6.04,-3.46 9.6,-3.46 3.56,0 6.75,1.16 9.54,3.46 2.8,2.31 4.98,5.63 6.56,9.97 1.58,4.34 2.37,9.62 2.37,15.86 0,6.24 -0.79,11.43 -2.37,15.8 z"
       id="path8"
       style="fill:#000000" />
    <path
       class="cls-1"
       d="m 600.04,512.74 -20.83,76.94 c -0.68,2.51 1.21,4.98 3.81,4.98 h 9.3 c 1.79,0 3.36,-1.21 3.82,-2.94 l 3.18,-12.1 c 0.46,-1.73 2.02,-2.94 3.82,-2.94 h 21.23 c 1.8,0 3.37,1.22 3.82,2.96 l 3.12,12.07 c 0.45,1.74 2.02,2.96 3.82,2.96 h 9.77 c 2.6,0 4.49,-2.47 3.81,-4.98 l -20.94,-76.94 c -0.47,-1.72 -2.03,-2.91 -3.81,-2.91 h -20.1 c -1.78,0 -3.34,1.19 -3.81,2.91 z m 9.01,49.34 c -2.59,0 -4.47,-2.45 -3.82,-4.95 l 3.49,-13.28 1.27,-5.29 c 0.97,-4.03 6.71,-4.03 7.67,0 l 1.27,5.29 3.44,13.3 c 0.65,2.5 -1.24,4.93 -3.82,4.93 h -9.51 z"
       id="path10"
       style="fill:#000000" />
    <path
       class="cls-1"
       d="m 743.89,513.77 v 6.69 c 0,2.18 1.77,3.95 3.95,3.95 h 6.33 c 2.18,0 3.95,1.77 3.95,3.95 v 47.77 c 0,2.18 -1.77,3.95 -3.95,3.95 h -6.33 c -2.18,0 -3.95,1.77 -3.95,3.95 v 6.69 c 0,2.18 1.77,3.95 3.95,3.95 h 38.17 c 2.18,0 3.95,-1.77 3.95,-3.95 v -6.69 c 0,-2.18 -1.77,-3.95 -3.95,-3.95 h -6.33 c -2.18,0 -3.95,-1.77 -3.95,-3.95 v -47.77 c 0,-2.18 1.77,-3.95 3.95,-3.95 h 6.33 c 2.18,0 3.95,-1.77 3.95,-3.95 v -6.69 c 0,-2.18 -1.77,-3.95 -3.95,-3.95 h -38.17 c -2.18,0 -3.95,1.77 -3.95,3.95 z"
       id="path12"
       style="fill:#000000" />
    <path
       class="cls-1"
       d="m 869.84,558.86 c -1.66,-3.12 -3.85,-5.63 -6.56,-7.54 -2.72,-1.9 -5.67,-3.4 -8.87,-4.5 -3.2,-1.09 -6.42,-2.03 -9.66,-2.79 -3.24,-0.77 -6.22,-1.58 -8.93,-2.43 -2.71,-0.85 -4.88,-1.96 -6.5,-3.34 -1.62,-1.38 -2.43,-3.2 -2.43,-5.47 0,-3.16 1.19,-5.59 3.59,-7.29 2.39,-1.7 5.41,-2.55 9.06,-2.55 2.51,0 4.89,0.41 6.99,1.52 2.79,1.47 4.69,3.71 5.76,5.32 0.72,1.1 1.96,1.74 3.27,1.74 h 10.65 c 2.76,0 4.72,-2.78 3.7,-5.34 -0.72,-1.82 -1.64,-3.51 -2.77,-5.07 -3,-4.13 -6.91,-7.29 -11.73,-9.48 -4.82,-2.19 -10.11,-3.28 -15.86,-3.28 -6.24,0 -11.67,1.09 -16.29,3.28 -4.62,2.19 -8.2,5.16 -10.76,8.93 -2.55,3.77 -3.83,8 -3.83,12.7 0,4.7 0.81,8.28 2.43,11.24 1.62,2.96 3.79,5.33 6.5,7.11 2.71,1.78 5.69,3.24 8.93,4.38 3.24,1.13 6.46,2.11 9.66,2.92 3.2,0.81 6.16,1.68 8.87,2.61 2.71,0.93 4.88,2.13 6.5,3.59 1.62,1.46 2.43,3.4 2.43,5.83 0,3.32 -1.23,5.92 -3.71,7.78 -2.47,1.86 -5.77,2.79 -9.91,2.79 -5.1,0 -8.99,-1.5 -11.67,-4.5 -1.11,-1.25 -1.97,-2.76 -2.6,-4.49 -0.63,-1.73 -2.2,-2.85 -4.01,-2.85 h -9.57 c -2.63,0 -4.5,2.51 -3.8,5.05 0.64,2.3 1.5,4.45 2.61,6.43 2.67,4.78 6.48,8.47 11.42,11.06 4.94,2.59 10.82,3.89 17.62,3.89 6.16,0 11.65,-1.07 16.47,-3.22 4.82,-2.15 8.61,-5.1 11.36,-8.87 2.75,-3.77 4.13,-8.16 4.13,-13.19 0,-5.03 -0.83,-8.85 -2.49,-11.97 z"
       id="path14"
       style="fill:#000000" />
    <path
       class="cls-1"
       d="m 724.44,558.86 c -1.66,-3.12 -3.85,-5.63 -6.56,-7.54 -2.72,-1.9 -5.67,-3.4 -8.87,-4.5 -3.2,-1.09 -6.42,-2.03 -9.66,-2.79 -3.24,-0.77 -6.22,-1.58 -8.93,-2.43 -2.71,-0.85 -4.88,-1.96 -6.5,-3.34 -1.62,-1.38 -2.43,-3.2 -2.43,-5.47 0,-3.16 1.19,-5.59 3.59,-7.29 2.39,-1.7 5.41,-2.55 9.06,-2.55 2.51,0 4.89,0.41 6.99,1.52 2.79,1.47 4.69,3.71 5.76,5.32 0.72,1.1 1.96,1.74 3.27,1.74 h 10.65 c 2.76,0 4.72,-2.78 3.7,-5.34 -0.72,-1.82 -1.64,-3.51 -2.77,-5.07 -3,-4.13 -6.91,-7.29 -11.73,-9.48 -4.82,-2.19 -10.11,-3.28 -15.86,-3.28 -6.24,0 -11.67,1.09 -16.29,3.28 -4.62,2.19 -8.2,5.16 -10.76,8.93 -2.55,3.77 -3.83,8 -3.83,12.7 0,4.7 0.81,8.28 2.43,11.24 1.62,2.96 3.79,5.33 6.5,7.11 2.71,1.78 5.69,3.24 8.93,4.38 3.24,1.13 6.46,2.11 9.66,2.92 3.2,0.81 6.16,1.68 8.87,2.61 2.71,0.93 4.88,2.13 6.5,3.59 1.62,1.46 2.43,3.4 2.43,5.83 0,3.32 -1.23,5.92 -3.71,7.78 -2.47,1.86 -5.77,2.79 -9.91,2.79 -5.1,0 -8.99,-1.5 -11.67,-4.5 -1.11,-1.25 -1.97,-2.76 -2.6,-4.49 -0.62,-1.7 -2.2,-2.85 -4.01,-2.85 h -9.57 c -2.63,0 -4.5,2.51 -3.8,5.05 0.64,2.3 1.5,4.45 2.61,6.43 2.67,4.78 6.48,8.47 11.42,11.06 4.94,2.59 10.82,3.89 17.62,3.89 6.16,0 11.65,-1.07 16.47,-3.22 4.82,-2.15 8.61,-5.1 11.36,-8.87 2.75,-3.77 4.13,-8.16 4.13,-13.19 0,-5.03 -0.83,-8.85 -2.49,-11.97 z"
       id="path16"
       style="fill:#000000" />
  </g>
</svg>
